<svg preserveAspectRatio="none" width="100%" height="100%" overflow="visible" style="display: block;" viewBox="0 0 174.472 40" fill="none" xmlns="http://www.w3.org/2000/svg">
<g id="logicode_logotype (3) 2">
<path id="Vector" d="M22.0484 28.3057L21.946 28.2585L2.24027 19.0504V11.613L22.3476 2.31545L29.2224 5.52846L15.6972 11.8146L21.985 14.7659L35.2842 8.65854L41.9102 11.748V19.1187L22.0484 28.3057ZM2.72808 18.7398L22.05 27.7675L41.4208 18.813V12.065L35.2842 9.19675L21.9834 15.3041L14.5443 11.8114L28.0679 5.52846L22.346 2.85366L2.72808 11.9252V18.7398Z" fill="var(--fill-0, black)"/>
<path id="Vector_2" d="M21.8863 37.8993L21.7838 37.8521L2.07812 28.644V21.2098L8.61796 18.0879L8.72203 18.1383L21.8277 24.3594L35.122 18.2521L41.748 21.3415V28.7123L21.8863 37.8993ZM2.56593 28.3334L21.8879 37.3611L41.2586 28.4066V21.6586L35.122 18.7903L21.8212 24.8976L21.7171 24.8489L8.61796 18.6277L2.56918 21.5172L2.56593 28.3334Z" fill="var(--fill-0, black)"/>
<path id="Vector_3" d="M22.2922 28.0374H21.8044V21.135L2.38001 11.9902L2.58651 11.5496L22.2922 20.826V28.0374Z" fill="var(--fill-0, black)"/>
<path id="Vector_4" d="M41.5617 11.6859L21.9481 20.7611L22.1529 21.2039L41.7665 12.1286L41.5617 11.6859Z" fill="var(--fill-0, black)"/>
<path id="Vector_5" d="M8.87888 8.70429L8.67188 9.146L28.2085 18.3018L28.4155 17.8601L8.87888 8.70429Z" fill="var(--fill-0, black)"/>
<path id="Vector_6" d="M29.2142 5.5252H28.7264V11.9089H29.2142V5.5252Z" fill="var(--fill-0, black)"/>
<path id="Vector_7" d="M21.9001 30.6424L2.21875 21.5855L2.422 21.1416L21.9001 30.1042L41.1066 21.2294L41.3114 21.6717L21.9001 30.6424Z" fill="var(--fill-0, black)"/>
<path id="Vector_8" d="M22.1441 30.374H21.6562V37.6309H22.1441V30.374Z" fill="var(--fill-0, black)"/>
<path id="Vector_9" d="M28.0829 27.6863L22.0439 24.7773L15.5089 27.6115L15.3154 27.1643L22.0553 24.2407L28.2959 27.2472L28.0829 27.6863Z" fill="var(--fill-0, black)"/>
<path id="Vector_10" d="M60.8122 25.971H47.5146V14.2441H49.0772V24.4084H60.8122V25.971Z" fill="var(--fill-0, black)"/>
<path id="Vector_11" d="M76.1215 25.9707H65.9573C65.4054 25.9769 64.8627 25.8294 64.3898 25.5447C63.921 25.2667 63.5296 24.8753 63.2516 24.4065C62.9678 23.9339 62.8204 23.3919 62.8256 22.8407V17.3756C62.8197 16.8217 62.9672 16.277 63.2516 15.8016C63.5302 15.3333 63.9215 14.942 64.3898 14.6634C64.8631 14.3799 65.4056 14.233 65.9573 14.239H76.1215C76.6741 14.2337 77.2175 14.3805 77.6923 14.6634C78.1613 14.9411 78.5528 15.3326 78.8305 15.8016C79.1127 16.2777 79.2584 16.8222 79.2516 17.3756V22.8472C79.2577 23.3979 79.112 23.9396 78.8305 24.413C78.5534 24.8825 78.1618 25.2741 77.6923 25.5512C77.2173 25.8331 76.6737 25.9783 76.1215 25.9707ZM76.1215 24.4081C76.3272 24.4108 76.5314 24.3722 76.722 24.2946C76.9125 24.2171 77.0857 24.1022 77.2311 23.9568C77.3766 23.8113 77.4915 23.6382 77.569 23.4476C77.6465 23.257 77.6851 23.0529 77.6825 22.8472V17.3756C77.6862 17.1696 77.6484 16.9649 77.5713 16.7738C77.4942 16.5828 77.3793 16.4092 77.2336 16.2635C77.0879 16.1178 76.9144 16.0029 76.7233 15.9258C76.5322 15.8487 76.3275 15.8109 76.1215 15.8146H65.9573C65.7514 15.8118 65.5471 15.8502 65.3563 15.9276C65.1656 16.0051 64.9923 16.1199 64.8466 16.2654C64.701 16.4109 64.5859 16.5841 64.5083 16.7748C64.4307 16.9655 64.3921 17.1698 64.3947 17.3756V22.8472C64.3932 23.0527 64.4326 23.2565 64.5106 23.4467C64.5886 23.6369 64.7037 23.8096 64.8491 23.9549C64.9945 24.1002 65.1674 24.2151 65.3576 24.2929C65.5479 24.3707 65.7517 24.4099 65.9573 24.4081H76.1215Z" fill="var(--fill-0, black)"/>
<path id="Vector_12" d="M94.1032 25.9706H84.7244C84.173 25.9766 83.6308 25.8291 83.1585 25.5446C82.6897 25.2666 82.2983 24.8752 82.0203 24.4064C81.737 23.9336 81.5901 23.3917 81.5959 22.8406V17.3755C81.5895 16.8218 81.7363 16.277 82.0203 15.8015C82.299 15.3333 82.6903 14.9421 83.1585 14.6633C83.6313 14.38 84.1732 14.2331 84.7244 14.2389H94.1032C94.6558 14.2336 95.1992 14.3804 95.674 14.6633C96.1433 14.9407 96.5348 15.3322 96.8122 15.8015C97.0937 16.2779 97.2393 16.8222 97.2333 17.3755H95.6707C95.674 17.1695 95.6358 16.9649 95.5584 16.7739C95.4811 16.5829 95.3661 16.4094 95.2203 16.2638C95.0745 16.1182 94.9009 16.0034 94.7098 15.9262C94.5188 15.849 94.3141 15.811 94.1081 15.8145H84.7244C84.5183 15.811 84.3137 15.849 84.1226 15.9262C83.9316 16.0034 83.758 16.1182 83.6122 16.2638C83.4664 16.4094 83.3514 16.5829 83.274 16.7739C83.1966 16.9649 83.1585 17.1695 83.1618 17.3755V22.8471C83.1594 23.0529 83.1981 23.2571 83.2758 23.4476C83.3535 23.6382 83.4686 23.8113 83.6142 23.9568C83.7598 24.1022 83.933 24.2171 84.1237 24.2946C84.3143 24.3721 84.5186 24.4107 84.7244 24.408H94.1032C94.309 24.4107 94.5132 24.3721 94.7039 24.2946C94.8946 24.2171 95.0678 24.1022 95.2134 23.9568C95.359 23.8113 95.474 23.6382 95.5517 23.4476C95.6294 23.2571 95.6682 23.0529 95.6658 22.8471V20.8958H89.4187V19.3332H97.2235V22.8503C97.2289 23.4009 97.0832 23.9425 96.8024 24.4162C96.5257 24.886 96.134 25.2776 95.6642 25.5544C95.1918 25.8334 94.6518 25.9774 94.1032 25.9706Z" fill="var(--fill-0, black)"/>
<path id="Vector_13" d="M101.095 25.971H99.5342V14.2441H101.095V25.971Z" fill="var(--fill-0, black)"/>
<path id="Vector_14" d="M116.028 25.9706H106.648C106.097 25.9766 105.554 25.8291 105.082 25.5446C104.613 25.2666 104.222 24.8752 103.944 24.4064C103.659 23.9341 103.512 23.3919 103.518 22.8406V17.3755C103.511 16.8215 103.659 16.2766 103.944 15.8015C104.222 15.3332 104.614 14.942 105.082 14.6633C105.555 14.38 106.097 14.2331 106.648 14.2389H116.028C116.581 14.2336 117.124 14.3804 117.599 14.6633C118.068 14.941 118.46 15.3325 118.737 15.8015C119.019 16.2776 119.165 16.8221 119.158 17.3755H117.596C117.6 17.1695 117.562 16.9648 117.485 16.7738C117.408 16.5827 117.293 16.4091 117.147 16.2634C117.001 16.1177 116.828 16.0028 116.637 15.9257C116.446 15.8486 116.241 15.8108 116.035 15.8145H106.648C106.442 15.8119 106.238 15.8505 106.047 15.928C105.857 16.0055 105.684 16.1204 105.538 16.2659C105.393 16.4114 105.278 16.5845 105.2 16.7751C105.123 16.9656 105.084 17.1698 105.087 17.3755V22.8471C105.085 23.0525 105.125 23.2561 105.203 23.4462C105.281 23.6363 105.395 23.809 105.541 23.9542C105.686 24.0995 105.859 24.2144 106.049 24.2923C106.239 24.3702 106.442 24.4096 106.648 24.408H116.028C116.234 24.4107 116.438 24.3721 116.629 24.2946C116.819 24.217 116.992 24.1022 117.138 23.9567C117.283 23.8112 117.398 23.6381 117.476 23.4475C117.553 23.2569 117.592 23.0528 117.589 22.8471H119.152C119.158 23.3978 119.012 23.9396 118.731 24.4129C118.454 24.8824 118.062 25.2741 117.593 25.5511C117.12 25.8319 116.578 25.977 116.028 25.9706Z" fill="var(--fill-0, black)"/>
<path id="Vector_15" d="M134.429 25.9707H124.263C123.712 25.9767 123.169 25.8292 122.697 25.5447C122.228 25.2667 121.837 24.8753 121.559 24.4065C121.274 23.9342 121.127 23.392 121.133 22.8407V17.3756C121.126 16.8216 121.274 16.2767 121.559 15.8016C121.838 15.3333 122.229 14.942 122.697 14.6634C123.17 14.3801 123.712 14.2332 124.263 14.239H134.429C134.981 14.2335 135.524 14.3803 135.998 14.6634C136.467 14.9408 136.859 15.3323 137.136 15.8016C137.418 16.2777 137.564 16.8222 137.557 17.3756V22.8472C137.563 23.3979 137.418 23.9396 137.136 24.413C136.859 24.8828 136.468 25.2745 135.998 25.5512C135.524 25.8333 134.981 25.9785 134.429 25.9707ZM134.429 24.4081C134.635 24.4108 134.839 24.3722 135.029 24.2946C135.22 24.2171 135.393 24.1022 135.538 23.9568C135.684 23.8113 135.799 23.6382 135.876 23.4476C135.954 23.257 135.992 23.0529 135.99 22.8472V17.3756C135.994 17.1696 135.956 16.9649 135.879 16.7738C135.802 16.5828 135.687 16.4092 135.541 16.2635C135.395 16.1178 135.222 16.0029 135.031 15.9258C134.84 15.8487 134.635 15.8109 134.429 15.8146H124.263C124.057 15.812 123.853 15.8506 123.663 15.9281C123.472 16.0056 123.299 16.1205 123.153 16.266C123.008 16.4115 122.893 16.5846 122.816 16.7752C122.738 16.9657 122.699 17.1699 122.702 17.3756V22.8472C122.701 23.0526 122.74 23.2562 122.818 23.4463C122.896 23.6364 123.011 23.8091 123.156 23.9543C123.301 24.0996 123.474 24.2145 123.664 24.2924C123.854 24.3703 124.058 24.4096 124.263 24.4081H134.429Z" fill="var(--fill-0, black)"/>
<path id="Vector_16" d="M152.501 25.9706H140V14.2438H152.502C153.055 14.2381 153.599 14.3849 154.073 14.6682C154.542 14.9456 154.934 15.3371 155.211 15.8064C155.493 16.2828 155.639 16.8271 155.633 17.3804V22.8519C155.638 23.4026 155.492 23.9441 155.211 24.4178C154.935 24.8876 154.543 25.2793 154.073 25.556C153.597 25.8369 153.053 25.9804 152.501 25.9706ZM152.501 24.408C152.707 24.4107 152.911 24.3721 153.101 24.2946C153.292 24.2171 153.465 24.1022 153.611 23.9568C153.757 23.8113 153.872 23.6382 153.949 23.4476C154.027 23.2571 154.066 23.0529 154.063 22.8471V17.3755C154.067 17.1695 154.029 16.9649 153.951 16.7739C153.874 16.5829 153.759 16.4094 153.613 16.2638C153.467 16.1182 153.294 16.0034 153.103 15.9262C152.911 15.849 152.707 15.811 152.501 15.8145H141.559V24.408H152.501Z" fill="var(--fill-0, black)"/>
<path id="Vector_17" d="M172.439 25.971H157.98V14.2441H172.439V15.8149H159.543V19.3303H170.876V20.8929H159.543V24.4084H172.439V25.971Z" fill="var(--fill-0, black)"/>
</g>
</svg>
