<svg preserveAspectRatio="none" width="100%" height="100%" overflow="visible" style="display: block;" viewBox="0 0 174.472 40" fill="none" xmlns="http://www.w3.org/2000/svg">
<g id="logicode_logotype (1) 3">
<path id="Vector" d="M22.0489 28.3057L21.9464 28.2585L2.24074 19.0504V11.613L22.3481 2.31545L29.2228 5.52846L15.6976 11.8146L21.9855 14.7659L35.2846 8.65854L41.9107 11.748V19.1187L22.0489 28.3057ZM2.72854 18.7398L22.0505 27.7675L41.4212 18.813V12.065L35.2846 9.19675L21.9838 15.3041L14.5448 11.8114L28.0684 5.52846L22.3464 2.85366L2.72854 11.9252V18.7398Z" fill="var(--fill-0, #28F06A)"/>
<path id="Vector_2" d="M21.8862 37.8992L21.7838 37.852L2.0781 28.6439V21.2098L8.61794 18.0878L8.722 18.1382L21.8277 24.3594L35.122 18.252L41.748 21.3415V28.7122L21.8862 37.8992ZM2.5659 28.3333L21.8879 37.361L41.2586 28.4065V21.6585L35.122 18.7902L21.8212 24.8976L21.7171 24.8488L8.61794 18.6276L2.56916 21.5171L2.5659 28.3333Z" fill="var(--fill-0, #28F06A)"/>
<path id="Vector_3" d="M22.2927 28.0374H21.8049V21.135L2.38049 11.9902L2.587 11.5496L22.2927 20.826V28.0374Z" fill="var(--fill-0, #28F06A)"/>
<path id="Vector_4" d="M41.562 11.6859L21.9484 20.7611L22.1533 21.2039L41.7668 12.1286L41.562 11.6859Z" fill="var(--fill-0, #28F06A)"/>
<path id="Vector_5" d="M8.87967 8.7044L8.67267 9.1461L28.2093 18.3019L28.4163 17.8602L8.87967 8.7044Z" fill="var(--fill-0, #28F06A)"/>
<path id="Vector_6" d="M29.2146 5.52521H28.7267V11.9089H29.2146V5.52521Z" fill="var(--fill-0, #28F06A)"/>
<path id="Vector_7" d="M21.9009 30.6423L2.21961 21.5854L2.42287 21.1415L21.9009 30.1041L41.1074 21.2293L41.3123 21.6715L21.9009 30.6423Z" fill="var(--fill-0, #28F06A)"/>
<path id="Vector_8" d="M22.1447 30.374H21.6569V37.6309H22.1447V30.374Z" fill="var(--fill-0, #28F06A)"/>
<path id="Vector_9" d="M28.083 27.6862L22.0439 24.7772L15.509 27.6114L15.3155 27.1642L22.0553 24.2406L28.296 27.2472L28.083 27.6862Z" fill="var(--fill-0, #28F06A)"/>
<path id="Vector_10" d="M60.8132 25.9707H47.5156V14.2439H49.0782V24.4081H60.8132V25.9707Z" fill="var(--fill-0, white)"/>
<path id="Vector_11" d="M76.1218 25.9707H65.9576C65.4057 25.9769 64.863 25.8294 64.3901 25.5447C63.9214 25.2667 63.53 24.8753 63.2519 24.4065C62.9681 23.9339 62.8207 23.3919 62.8259 22.8407V17.3756C62.82 16.8217 62.9675 16.277 63.2519 15.8016C63.5306 15.3333 63.9218 14.942 64.3901 14.6634C64.8634 14.3799 65.406 14.233 65.9576 14.239H76.1218C76.6744 14.2337 77.2179 14.3805 77.6926 14.6634C78.1616 14.9411 78.5531 15.3326 78.8308 15.8016C79.113 16.2777 79.2587 16.8222 79.2519 17.3756V22.8472C79.258 23.3979 79.1123 23.9396 78.8308 24.413C78.5537 24.8825 78.1621 25.2741 77.6926 25.5512C77.2177 25.8331 76.6741 25.9783 76.1218 25.9707ZM76.1218 24.4081C76.3276 24.4108 76.5317 24.3722 76.7223 24.2946C76.9129 24.2171 77.086 24.1022 77.2315 23.9568C77.3769 23.8113 77.4918 23.6382 77.5693 23.4476C77.6469 23.257 77.6854 23.0529 77.6828 22.8472V17.3756C77.6866 17.1696 77.6488 16.9649 77.5716 16.7738C77.4945 16.5828 77.3797 16.4092 77.234 16.2635C77.0883 16.1178 76.9147 16.0029 76.7236 15.9258C76.5325 15.8487 76.3279 15.8109 76.1218 15.8146H65.9576C65.7518 15.8118 65.5474 15.8502 65.3567 15.9276C65.1659 16.0051 64.9926 16.1199 64.8469 16.2654C64.7013 16.4109 64.5863 16.5841 64.5087 16.7748C64.431 16.9655 64.3924 17.1698 64.395 17.3756V22.8472C64.3935 23.0527 64.4329 23.2565 64.5109 23.4467C64.5889 23.6369 64.704 23.8096 64.8494 23.9549C64.9948 24.1002 65.1677 24.2151 65.358 24.2929C65.5482 24.3707 65.7521 24.4099 65.9576 24.4081H76.1218Z" fill="var(--fill-0, white)"/>
<path id="Vector_12" d="M94.1042 25.9707H84.7253C84.174 25.9767 83.6318 25.8292 83.1595 25.5447C82.6907 25.2667 82.2993 24.8753 82.0213 24.4065C81.738 23.9337 81.5911 23.3918 81.5969 22.8406V17.3756C81.5904 16.8218 81.7373 16.2771 82.0213 15.8016C82.3 15.3334 82.6912 14.9422 83.1595 14.6634C83.6323 14.3801 84.1742 14.2332 84.7253 14.239H94.1042C94.6568 14.2337 95.2002 14.3805 95.6749 14.6634C96.1442 14.9408 96.5358 15.3323 96.8131 15.8016C97.0946 16.278 97.2403 16.8223 97.2343 17.3756H95.6717C95.675 17.1696 95.6368 16.965 95.5594 16.774C95.482 16.583 95.367 16.4095 95.2212 16.2639C95.0755 16.1183 94.9019 16.0034 94.7108 15.9263C94.5198 15.8491 94.3151 15.8111 94.1091 15.8146H84.7253C84.5193 15.8111 84.3147 15.8491 84.1236 15.9263C83.9325 16.0034 83.7589 16.1183 83.6132 16.2639C83.4674 16.4095 83.3524 16.583 83.275 16.774C83.1976 16.965 83.1594 17.1696 83.1627 17.3756V22.8472C83.1603 23.0529 83.1991 23.2571 83.2768 23.4477C83.3545 23.6383 83.4696 23.8114 83.6152 23.9569C83.7608 24.1023 83.934 24.2172 84.1247 24.2947C84.3153 24.3722 84.5195 24.4107 84.7253 24.4081H94.1042C94.31 24.4107 94.5142 24.3722 94.7049 24.2947C94.8955 24.2172 95.0688 24.1023 95.2144 23.9569C95.36 23.8114 95.475 23.6383 95.5527 23.4477C95.6304 23.2571 95.6692 23.0529 95.6668 22.8472V20.8959H89.4196V19.3333H97.2245V22.8504C97.2299 23.401 97.0842 23.9426 96.8034 24.4163C96.5267 24.8861 96.135 25.2777 95.6652 25.5545C95.1928 25.8335 94.6528 25.9775 94.1042 25.9707Z" fill="var(--fill-0, white)"/>
<path id="Vector_13" d="M101.096 25.9707H99.535V14.2439H101.096V25.9707Z" fill="var(--fill-0, white)"/>
<path id="Vector_14" d="M116.029 25.9707H106.649C106.098 25.9767 105.555 25.8292 105.083 25.5447C104.614 25.2667 104.223 24.8753 103.945 24.4065C103.66 23.9342 103.513 23.392 103.519 22.8406V17.3756C103.512 16.8216 103.66 16.2767 103.945 15.8016C104.223 15.3333 104.615 14.942 105.083 14.6634C105.556 14.3801 106.098 14.2332 106.649 14.239H116.029C116.582 14.2337 117.125 14.3805 117.6 14.6634C118.069 14.9411 118.461 15.3326 118.738 15.8016C119.021 16.2777 119.166 16.8222 119.159 17.3756H117.597C117.601 17.1696 117.563 16.9649 117.486 16.7738C117.409 16.5828 117.294 16.4092 117.148 16.2635C117.002 16.1178 116.829 16.0029 116.638 15.9258C116.447 15.8487 116.242 15.8109 116.036 15.8146H106.649C106.443 15.812 106.239 15.8506 106.048 15.9281C105.858 16.0056 105.685 16.1205 105.539 16.266C105.394 16.4115 105.279 16.5846 105.201 16.7752C105.124 16.9657 105.085 17.1699 105.088 17.3756V22.8472C105.086 23.0526 105.126 23.2562 105.204 23.4463C105.282 23.6364 105.397 23.8091 105.542 23.9543C105.687 24.0996 105.86 24.2145 106.05 24.2924C106.24 24.3703 106.444 24.4096 106.649 24.4081H116.029C116.235 24.4108 116.439 24.3722 116.63 24.2946C116.82 24.2171 116.994 24.1022 117.139 23.9568C117.284 23.8113 117.399 23.6382 117.477 23.4476C117.554 23.257 117.593 23.0529 117.59 22.8472H119.153C119.159 23.3979 119.013 23.9396 118.732 24.413C118.455 24.8825 118.063 25.2741 117.594 25.5512C117.121 25.832 116.579 25.9771 116.029 25.9707Z" fill="var(--fill-0, white)"/>
<path id="Vector_15" d="M134.429 25.9707H124.263C123.712 25.9767 123.17 25.8292 122.698 25.5447C122.229 25.2667 121.837 24.8753 121.559 24.4065C121.275 23.9342 121.127 23.392 121.133 22.8406V17.3756C121.127 16.8216 121.274 16.2767 121.559 15.8016C121.838 15.3333 122.229 14.942 122.698 14.6634C123.17 14.3801 123.712 14.2332 124.263 14.239H134.429C134.981 14.2335 135.524 14.3803 135.998 14.6634C136.468 14.9408 136.859 15.3323 137.137 15.8016C137.419 16.2777 137.564 16.8222 137.558 17.3756V22.8472C137.564 23.3979 137.418 23.9396 137.137 24.413C136.86 24.8828 136.468 25.2745 135.998 25.5512C135.524 25.8333 134.981 25.9785 134.429 25.9707ZM134.429 24.4081C134.635 24.4108 134.839 24.3722 135.03 24.2946C135.22 24.2171 135.393 24.1022 135.539 23.9568C135.684 23.8113 135.799 23.6382 135.877 23.4476C135.954 23.257 135.993 23.0529 135.99 22.8472V17.3756C135.994 17.1696 135.956 16.9649 135.879 16.7738C135.802 16.5828 135.687 16.4092 135.541 16.2635C135.396 16.1178 135.222 16.0029 135.031 15.9258C134.84 15.8487 134.635 15.8109 134.429 15.8146H124.263C124.058 15.812 123.854 15.8506 123.663 15.9281C123.472 16.0056 123.299 16.1205 123.154 16.266C123.008 16.4115 122.893 16.5846 122.816 16.7752C122.738 16.9657 122.7 17.1699 122.702 17.3756V22.8472C122.701 23.0526 122.74 23.2562 122.818 23.4463C122.896 23.6364 123.011 23.8091 123.156 23.9543C123.302 24.0996 123.474 24.2145 123.664 24.2924C123.854 24.3703 124.058 24.4096 124.263 24.4081H134.429Z" fill="var(--fill-0, white)"/>
<path id="Vector_16" d="M152.501 25.9707H140V14.2439H152.503C153.055 14.2381 153.599 14.385 154.073 14.6683C154.543 14.9456 154.934 15.3372 155.212 15.8065C155.493 16.2829 155.639 16.8272 155.633 17.3805V22.852C155.638 23.4027 155.492 23.9442 155.212 24.4179C154.935 24.8877 154.543 25.2794 154.073 25.5561C153.598 25.837 153.053 25.9805 152.501 25.9707ZM152.501 24.4081C152.707 24.4107 152.911 24.3722 153.102 24.2947C153.292 24.2172 153.466 24.1023 153.611 23.9569C153.757 23.8114 153.872 23.6383 153.95 23.4477C154.027 23.2571 154.066 23.0529 154.064 22.8472V17.3756C154.067 17.1696 154.029 16.965 153.951 16.774C153.874 16.583 153.759 16.4095 153.613 16.2639C153.467 16.1183 153.294 16.0034 153.103 15.9263C152.912 15.8491 152.707 15.8111 152.501 15.8146H141.56V24.4081H152.501Z" fill="var(--fill-0, white)"/>
<path id="Vector_17" d="M172.439 25.9707H157.98V14.2439H172.439V15.8146H159.543V19.3301H170.876V20.8927H159.543V24.4081H172.439V25.9707Z" fill="var(--fill-0, white)"/>
</g>
</svg>
