<svg preserveAspectRatio="none" width="100%" height="100%" overflow="visible" style="display: block;" viewBox="0 0 175 40.1212" fill="none" xmlns="http://www.w3.org/2000/svg">
<g id="logicode_logotype (4) 2">
<path id="Vector" d="M22.1156 28.3914L22.0129 28.3441L2.24748 19.1081V11.6482L22.4157 2.32246L29.3113 5.5452L15.7452 11.8504L22.052 14.8106L35.3915 8.68476L42.0376 11.7835V19.1766L22.1156 28.3914ZM2.73676 18.7966L22.1172 27.8516L41.5466 18.87V12.1016L35.3915 9.2246L22.0504 15.3504L14.5888 11.8472L28.1534 5.5452L22.4141 2.8623L2.73676 11.9613V18.7966Z" fill="var(--fill-0, #20A64C)"/>
<path id="Vector_2" d="M21.9525 38.014L21.8498 37.9667L2.08439 28.7307V21.274L8.64403 18.1426L8.74841 18.1931L21.8938 24.4331L35.2284 18.3073L41.8745 21.4061V28.7992L21.9525 38.014ZM2.57367 28.4192L21.9541 37.4741L41.3835 28.4925V21.7241L35.2284 18.8472L21.8873 24.973L21.7829 24.924L8.64403 18.6841L2.57693 21.5822L2.57367 28.4192Z" fill="var(--fill-0, #20A64C)"/>
<path id="Vector_3" d="M22.3601 28.1223H21.8709V21.199L2.38764 12.0266L2.59477 11.5846L22.3601 20.8891V28.1223Z" fill="var(--fill-0, #20A64C)"/>
<path id="Vector_4" d="M41.688 11.7213L22.015 20.824L22.2205 21.2681L41.8934 12.1654L41.688 11.7213Z" fill="var(--fill-0, #20A64C)"/>
<path id="Vector_5" d="M8.90657 8.73076L8.69894 9.1738L28.2947 18.3573L28.5023 17.9143L8.90657 8.73076Z" fill="var(--fill-0, #20A64C)"/>
<path id="Vector_6" d="M29.3031 5.54194H28.8138V11.945H29.3031V5.54194Z" fill="var(--fill-0, #20A64C)"/>
<path id="Vector_7" d="M21.9672 30.7351L2.2263 21.6507L2.43017 21.2055L21.9672 30.1952L41.2319 21.2936L41.4374 21.7372L21.9672 30.7351Z" fill="var(--fill-0, #20A64C)"/>
<path id="Vector_8" d="M22.2119 30.466H21.7226V37.7449H22.2119V30.466Z" fill="var(--fill-0, #20A64C)"/>
<path id="Vector_9" d="M28.1681 27.77L22.1107 24.8523L15.556 27.695L15.3619 27.2465L22.1222 24.3141L28.3817 27.3297L28.1681 27.77Z" fill="var(--fill-0, #20A64C)"/>
<path id="Vector_10" d="M60.9972 26.0494H47.6593V14.287H49.2267V24.4821H60.9972V26.0494Z" fill="var(--fill-0, #222931)"/>
<path id="Vector_11" d="M76.3525 26.0494H66.1575C65.6039 26.0556 65.0595 25.9077 64.5853 25.6221C64.1151 25.3432 63.7225 24.9506 63.4436 24.4804C63.159 24.0064 63.0111 23.4628 63.0163 22.9098V17.4282C63.0104 16.8727 63.1583 16.3263 63.4436 15.8495C63.7231 15.3797 64.1155 14.9873 64.5853 14.7078C65.06 14.4235 65.6042 14.2761 66.1575 14.2822H76.3525C76.9068 14.2768 77.4518 14.4241 77.928 14.7078C78.3985 14.9864 78.7911 15.379 79.0697 15.8495C79.3527 16.327 79.4988 16.8732 79.4921 17.4282V22.9164C79.4982 23.4687 79.352 24.0122 79.0697 24.487C78.7917 24.9579 78.3989 25.3507 77.928 25.6286C77.4516 25.9114 76.9064 26.057 76.3525 26.0494ZM76.3525 24.4821C76.5588 24.4847 76.7636 24.446 76.9548 24.3682C77.1459 24.2905 77.3196 24.1752 77.4655 24.0293C77.6114 23.8834 77.7266 23.7098 77.8044 23.5186C77.8821 23.3275 77.9208 23.1227 77.9182 22.9164V17.4282C77.922 17.2216 77.884 17.0163 77.8067 16.8246C77.7293 16.633 77.6141 16.4589 77.468 16.3127C77.3219 16.1666 77.1478 16.0514 76.9561 15.9741C76.7644 15.8967 76.5592 15.8588 76.3525 15.8625H66.1575C65.951 15.8597 65.7461 15.8982 65.5547 15.9759C65.3634 16.0535 65.1895 16.1687 65.0435 16.3147C64.8974 16.4606 64.782 16.6343 64.7041 16.8256C64.6263 17.0168 64.5875 17.2218 64.5902 17.4282V22.9164C64.5886 23.1225 64.6282 23.3269 64.7064 23.5177C64.7846 23.7085 64.9001 23.8817 65.0459 24.0274C65.1918 24.1732 65.3652 24.2884 65.556 24.3664C65.7469 24.4445 65.9513 24.4838 66.1575 24.4821H76.3525Z" fill="var(--fill-0, #222931)"/>
<path id="Vector_12" d="M94.389 26.0494H84.9818C84.4287 26.0554 83.8849 25.9074 83.4112 25.6221C82.941 25.3432 82.5484 24.9506 82.2695 24.4804C81.9854 24.0062 81.838 23.4626 81.8438 22.9098V17.4282C81.8374 16.8728 81.9847 16.3264 82.2695 15.8495C82.5491 15.3798 82.9415 14.9874 83.4112 14.7078C83.8854 14.4237 84.429 14.2763 84.9818 14.2822H94.389C94.9433 14.2768 95.4884 14.4241 95.9645 14.7078C96.4353 14.986 96.828 15.3788 97.1062 15.8495C97.3885 16.3273 97.5346 16.8733 97.5286 17.4282H95.9613C95.9646 17.2216 95.9263 17.0164 95.8487 16.8248C95.771 16.6332 95.6557 16.4592 95.5095 16.3132C95.3632 16.1671 95.1891 16.0519 94.9975 15.9745C94.8058 15.8971 94.6006 15.859 94.3939 15.8625H84.9818C84.7751 15.859 84.5698 15.8971 84.3782 15.9745C84.1866 16.0519 84.0124 16.1671 83.8662 16.3132C83.72 16.4592 83.6046 16.6332 83.527 16.8248C83.4494 17.0164 83.4111 17.2216 83.4144 17.4282V22.9164C83.412 23.1228 83.4509 23.3276 83.5289 23.5187C83.6068 23.7099 83.7222 23.8835 83.8682 24.0294C84.0143 24.1753 84.188 24.2905 84.3793 24.3683C84.5705 24.446 84.7753 24.4847 84.9818 24.4821H94.389C94.5954 24.4847 94.8003 24.446 94.9915 24.3683C95.1828 24.2905 95.3565 24.1753 95.5026 24.0294C95.6486 23.8835 95.764 23.7099 95.8419 23.5187C95.9199 23.3276 95.9588 23.1228 95.9564 22.9164V20.9592H89.6903V19.3919H97.5188V22.9196C97.5242 23.4719 97.3781 24.0151 97.0964 24.4902C96.8188 24.9614 96.426 25.3543 95.9547 25.6319C95.4809 25.9118 94.9393 26.0562 94.389 26.0494Z" fill="var(--fill-0, #222931)"/>
<path id="Vector_13" d="M101.402 26.0494H99.8364V14.287H101.402V26.0494Z" fill="var(--fill-0, #222931)"/>
<path id="Vector_14" d="M116.381 26.0494H106.972C106.419 26.0554 105.875 25.9074 105.401 25.6221C104.931 25.3432 104.538 24.9506 104.26 24.4804C103.974 24.0067 103.826 23.4629 103.832 22.9098V17.4282C103.826 16.8726 103.974 16.326 104.26 15.8495C104.539 15.3797 104.931 14.9873 105.401 14.7078C105.875 14.4237 106.419 14.2763 106.972 14.2822H116.381C116.935 14.2768 117.48 14.4241 117.956 14.7078C118.427 14.9864 118.819 15.379 119.098 15.8495C119.381 16.327 119.527 16.8732 119.52 17.4282H117.953C117.957 17.2216 117.919 17.0163 117.841 16.8247C117.764 16.633 117.649 16.4589 117.503 16.3127C117.357 16.1666 117.182 16.0514 116.991 15.9741C116.799 15.8967 116.594 15.8588 116.387 15.8625H106.972C106.765 15.8599 106.561 15.8986 106.37 15.9764C106.178 16.0541 106.005 16.1693 105.859 16.3153C105.713 16.4612 105.598 16.6348 105.52 16.826C105.442 17.0171 105.403 17.2219 105.406 17.4282V22.9164C105.405 23.1224 105.444 23.3267 105.522 23.5173C105.6 23.708 105.716 23.8812 105.861 24.0269C106.007 24.1726 106.18 24.2878 106.371 24.366C106.561 24.4441 106.766 24.4836 106.972 24.4821H116.381C116.587 24.4847 116.792 24.446 116.983 24.3682C117.174 24.2905 117.348 24.1752 117.494 24.0293C117.64 23.8834 117.755 23.7098 117.833 23.5186C117.91 23.3275 117.949 23.1227 117.946 22.9164H119.514C119.52 23.4687 119.374 24.0122 119.091 24.487C118.813 24.9579 118.421 25.3507 117.95 25.6286C117.475 25.9102 116.932 26.0558 116.381 26.0494Z" fill="var(--fill-0, #222931)"/>
<path id="Vector_15" d="M134.836 26.0494H124.64C124.087 26.0554 123.543 25.9074 123.069 25.6221C122.599 25.3432 122.206 24.9506 121.928 24.4804C121.642 24.0067 121.494 23.4629 121.5 22.9098V17.4282C121.494 16.8726 121.642 16.326 121.928 15.8495C122.207 15.3797 122.599 14.9873 123.069 14.7078C123.543 14.4237 124.087 14.2763 124.64 14.2822H134.836C135.39 14.2766 135.935 14.4239 136.41 14.7078C136.881 14.986 137.274 15.3788 137.552 15.8495C137.835 16.327 137.981 16.8732 137.974 17.4282V22.9164C137.981 23.4687 137.834 24.0122 137.552 24.487C137.274 24.9582 136.882 25.351 136.41 25.6286C135.935 25.9116 135.39 26.0572 134.836 26.0494ZM134.836 24.4821C135.043 24.4847 135.248 24.446 135.439 24.3682C135.63 24.2905 135.804 24.1752 135.949 24.0293C136.095 23.8834 136.211 23.7098 136.288 23.5186C136.366 23.3275 136.405 23.1227 136.402 22.9164V17.4282C136.406 17.2216 136.368 17.0163 136.291 16.8247C136.213 16.633 136.098 16.4589 135.952 16.3127C135.806 16.1666 135.632 16.0514 135.44 15.9741C135.248 15.8967 135.043 15.8588 134.836 15.8625H124.64C124.433 15.8599 124.229 15.8986 124.038 15.9764C123.846 16.0541 123.673 16.1693 123.527 16.3153C123.381 16.4612 123.266 16.6348 123.188 16.826C123.11 17.0171 123.071 17.2219 123.074 17.4282V22.9164C123.073 23.1224 123.112 23.3267 123.19 23.5173C123.268 23.708 123.384 23.8812 123.529 24.0269C123.675 24.1726 123.848 24.2878 124.039 24.366C124.23 24.4441 124.434 24.4836 124.64 24.4821H134.836Z" fill="var(--fill-0, #222931)"/>
<path id="Vector_16" d="M152.963 26.0494H140.424V14.287H152.964C153.519 14.2813 154.064 14.4286 154.54 14.7127C155.011 14.9909 155.403 15.3836 155.681 15.8544C155.964 16.3322 156.11 16.8782 156.104 17.4331V22.9212C156.109 23.4735 155.963 24.0167 155.681 24.4918C155.404 24.9631 155.011 25.3559 154.54 25.6335C154.063 25.9152 153.517 26.0592 152.963 26.0494ZM152.963 24.4821C153.169 24.4847 153.374 24.446 153.565 24.3683C153.756 24.2905 153.93 24.1753 154.076 24.0294C154.222 23.8835 154.338 23.7099 154.416 23.5187C154.494 23.3276 154.532 23.1228 154.53 22.9164V17.4282C154.533 17.2216 154.495 17.0164 154.417 16.8248C154.34 16.6332 154.224 16.4592 154.078 16.3132C153.932 16.1671 153.758 16.0519 153.566 15.9745C153.375 15.8971 153.169 15.859 152.963 15.8625H141.988V24.4821H152.963Z" fill="var(--fill-0, #222931)"/>
<path id="Vector_17" d="M172.961 26.0494H158.459V14.287H172.961V15.8625H160.026V19.3886H171.394V20.956H160.026V24.4821H172.961V26.0494Z" fill="var(--fill-0, #222931)"/>
</g>
</svg>
