<svg preserveAspectRatio="none" width="100%" height="100%" overflow="visible" style="display: block;" viewBox="0 0 82.0664 47" fill="none" xmlns="http://www.w3.org/2000/svg">
<g id="image 4 [Vectorized]">
<path id="Vector" d="M20.6136 18.1389C20.8191 18.3298 20.3212 20.4587 20.2376 20.85C19.3197 25.1487 17.2501 28.5123 14.3033 31.7053C13.9295 31.228 13.4374 30.7594 13.038 30.2831C12.3686 29.4847 11.8036 28.664 11.2361 27.7924C9.43461 24.8548 8.24295 21.5793 7.9772 18.132C12.1109 19.2793 16.4787 19.2817 20.6136 18.1389Z" fill="var(--fill-0, #101010)"/>
<path id="Vector_2" d="M10.9507 20.9455C12.1728 20.9233 13.7993 20.8923 15.0004 20.9523L15.0115 21.1327C15.0411 21.6542 14.9833 21.9005 14.3743 21.8607C14.1048 21.8431 13.8124 21.827 13.5411 21.8128C13.519 22.8968 13.5358 24.0408 13.5352 25.1294C13.5368 25.5845 13.5345 25.9894 13.5102 26.4459C13.079 26.5031 12.7931 26.4863 12.3682 26.4294C12.3013 25.018 12.3596 23.2655 12.3474 21.8128C11.9327 21.847 10.7305 22.0609 10.8536 21.3532C10.8806 21.1976 10.8372 21.0812 10.9507 20.9455Z" fill="var(--fill-0, #101010)"/>
<path id="Vector_3" d="M15.812 20.9484C16.213 20.9156 16.4356 20.9195 16.8365 20.9438C16.8601 21.5295 16.8901 26.2258 16.7842 26.476C16.3853 26.4838 16.1384 26.4876 15.7449 26.4426C15.7039 25.2827 15.7275 22.3197 15.7514 21.018C15.7716 20.9948 15.7918 20.9716 15.812 20.9484Z" fill="var(--fill-0, #101010)"/>
<path id="Vector_4" d="M5.93348 18.6552C6.07081 18.7442 6.06998 19.1308 6.08852 19.2875C6.70921 24.5265 9.21912 29.1909 12.7668 33.0026C12.3846 32.9341 12.1072 32.8588 11.7322 32.7526C10.9013 32.487 10.3129 32.2668 9.54555 31.8263C7.30419 30.5353 5.66768 28.4066 4.99628 25.9087C4.36682 23.5566 4.71451 20.7777 5.93348 18.6552Z" fill="var(--fill-0, #101010)"/>
<path id="Vector_5" d="M22.6815 18.6509C22.8534 18.7654 23.3305 20.0156 23.4094 20.2749C25.1195 25.8935 22.3302 30.8694 16.955 32.7395C16.6134 32.8335 16.2208 32.9133 15.8717 32.9919C19.1078 29.3968 20.9487 26.3104 22.1404 21.538C22.3694 20.6207 22.4503 19.4864 22.6815 18.6509Z" fill="var(--fill-0, #101010)"/>
<path id="Vector_6" d="M13.8755 13.6966C14.3581 13.6413 15.0507 13.7074 15.5304 13.7772C17.6699 14.0885 18.9429 14.7897 20.6226 16.0446C18.5328 16.6431 16.942 16.8926 14.7678 16.9481C12.3497 17.042 10.2905 16.66 7.98514 16.0425C9.99714 14.5986 11.3082 13.9047 13.8755 13.6966Z" fill="var(--fill-0, #101010)"/>
<path id="Vector_7" d="M52.2545 17.5352C53.1848 17.5101 55.3503 17.325 55.801 18.3639C56.2182 19.3246 55.9254 20.1492 54.9872 20.6299C55.6161 21.2576 55.8364 21.9789 56.1682 22.7749C56.489 23.545 55.6721 23.3427 55.2149 23.2866C55.0868 23.2709 55.0364 23.1552 54.9863 23.0613C54.7082 22.3438 54.4929 21.4816 53.9174 20.9989C53.7159 20.9764 53.4171 20.9783 53.2068 20.9735C53.2101 21.2844 53.2789 22.9823 53.1284 23.2433C53.0389 23.3984 52.3077 23.3017 52.0497 23.2582C52.0309 21.9098 52.0488 20.5447 52.0406 19.194C52.0378 18.7188 51.9437 17.846 52.2545 17.5352Z" fill="var(--fill-0, #101010)"/>
<path id="Vector_8" d="M53.2096 18.451C54.0298 18.4456 54.5489 18.33 54.7885 19.2278C54.7169 19.5125 54.6591 19.6488 54.5466 19.9154C54.2249 20.1054 53.5929 20.0673 53.2082 20.0638L53.2096 18.451Z" fill="var(--fill-0, #EAF2EC)"/>
<path id="Vector_9" d="M46.7636 17.4608C47.3819 17.4639 47.7183 17.4945 48.1911 17.8967C48.2039 18.1139 48.2498 18.4513 48.1438 18.6347C47.9923 18.7245 47.9317 18.7148 47.767 18.6414C47.2598 18.4155 46.9968 18.3426 46.4446 18.419C46.4208 18.441 46.3978 18.4638 46.3758 18.4873C45.3277 19.5797 47.5618 19.8628 48.0988 20.4624C48.4357 20.8384 48.5261 21.0562 48.5371 21.5644C48.5656 22.8562 47.5269 23.3865 46.39 23.4186C45.7644 23.413 45.356 23.2705 44.871 22.8951C44.8454 22.4935 44.8576 22.3452 44.8985 21.9375C45.4608 22.246 45.7635 22.4104 46.446 22.4283C46.9009 22.4402 47.3943 22.2246 47.3286 21.6859C47.2451 21.0004 45.9856 20.8195 45.5117 20.3789C45.0482 19.9981 44.8372 19.519 44.9266 18.9093C45.0806 17.8587 45.8181 17.5249 46.7636 17.4608Z" fill="var(--fill-0, #101010)"/>
<path id="Vector_10" d="M42.1327 17.5001C42.184 17.4953 42.2353 17.491 42.2867 17.4869C43.1045 17.423 43.556 17.5107 44.1893 18.0508C44.2038 18.4306 44.1738 18.6657 44.13 19.0462C40.4111 16.2668 40.1014 24.2787 43.94 21.981C43.9943 21.9573 44.0446 21.9602 44.1043 21.9573C44.2679 22.1532 44.2041 22.596 44.1957 22.8736C42.4418 23.8824 40.4602 23.5025 40.0352 21.3077C39.7231 19.6957 40.3197 17.813 42.1327 17.5001Z" fill="var(--fill-0, #101010)"/>
<path id="Vector_11" d="M32.9814 17.5346C34.0092 17.5192 35.0372 17.5209 36.0649 17.54C36.1203 17.9318 36.1254 18.1056 36.0668 18.483C35.6196 18.5536 34.5635 18.5323 34.0649 18.5336C34.0613 19.0411 34.0611 19.5486 34.0642 20.056C34.6485 20.0549 35.3917 20.0367 35.9604 20.0813C35.9785 20.2943 36.0377 20.6947 35.9428 20.8805C35.8926 20.9787 35.8357 20.9662 35.7205 20.9931C35.167 20.9903 34.6135 20.9963 34.0603 21.0109L34.055 23.2692C33.6725 23.3443 33.3096 23.3222 32.9235 23.3045C32.8737 22.383 32.9193 21.203 32.9045 20.2654C32.8947 19.6417 32.87 18.0709 32.9814 17.5346Z" fill="var(--fill-0, #101010)"/>
<path id="Vector_12" d="M27.8579 17.5362C28.4075 17.5172 31.7263 17.4952 32.076 17.5756C32.2137 17.7279 32.2252 18.2328 32.1344 18.3985C31.8445 18.607 30.9624 18.5344 30.5596 18.5277C30.5312 19.5714 30.5542 20.7268 30.5544 21.7788C30.5568 22.2892 30.5605 22.7728 30.535 23.2833C30.1398 23.3458 29.8163 23.3238 29.4221 23.2906C29.3736 21.7515 29.4203 20.0715 29.4033 18.5144C28.9541 18.5439 28.2683 18.5359 27.8299 18.4874C27.7928 18.1481 27.806 17.8706 27.8579 17.5362Z" fill="var(--fill-0, #101010)"/>
<path id="Vector_13" d="M56.5684 17.5286L60.8324 17.533C61.1005 18.8874 60.3023 18.5206 59.2691 18.5339L59.2719 21.8825C59.254 23.1363 59.6184 23.4189 58.1524 23.2874C58.1088 22.7198 58.1276 22.0111 58.1281 21.4326L58.1308 18.5141C57.6787 18.5497 57.0293 18.5286 56.5625 18.527C56.5303 18.1381 56.5349 17.9143 56.5684 17.5286Z" fill="var(--fill-0, #101010)"/>
<path id="Vector_14" d="M64.7655 24.9312C64.9298 24.9301 65.1648 24.9174 65.2947 25.006C65.3406 25.4249 65.319 26.1522 65.3185 26.5914L65.3116 29.3718C65.1299 29.3874 65.0477 29.3949 64.8669 29.3788C64.7765 29.331 64.5667 29.1309 64.5892 29.1253C63.8654 29.3071 63.953 29.6784 63.1035 29.2937C62.0909 28.6483 62.3691 26.0294 63.8814 26.2592C64.1454 26.2993 64.3519 26.4545 64.5718 26.5958C64.5731 26.1461 64.5364 25.5079 64.5998 25.0581C64.6117 24.9727 64.6874 24.963 64.7655 24.9312Z" fill="var(--fill-0, #101010)"/>
<path id="Vector_15" d="M63.8319 26.8801C64.0568 26.8956 64.3928 27.2055 64.5722 27.3518L64.5759 28.3733C64.4116 28.5066 64.2697 28.616 64.0967 28.7382C63.4101 28.8429 63.2581 28.339 63.3224 27.7395C63.3734 27.2696 63.4766 27.1526 63.8319 26.8801Z" fill="var(--fill-0, #EAF2EC)"/>
<path id="Vector_16" d="M46.7333 24.9329C46.8839 24.9282 47.1487 24.9233 47.2589 25.0194C47.3015 25.4796 47.2827 26.1835 47.2827 26.6689C47.2859 27.545 47.2832 28.4211 47.2745 29.2972C47.0381 29.6459 46.7287 29.3235 46.558 29.1105C45.9356 29.2286 46.0265 29.6615 45.1675 29.3471C43.8665 28.4216 44.5429 25.2385 46.5396 26.5891C46.5396 26.1618 46.4717 25.4112 46.586 25.004C46.5947 24.972 46.6879 24.9499 46.7333 24.9329Z" fill="var(--fill-0, #101010)"/>
<path id="Vector_17" d="M45.7652 26.8912C46.1587 26.9875 46.25 27.0797 46.5314 27.3535C46.5479 27.6545 46.5355 28.0468 46.5341 28.3547C46.3804 28.5129 46.2844 28.6301 46.0807 28.7229C45.1754 28.8912 45.2729 28.0255 45.3116 27.4052C45.4693 27.1499 45.5337 27.0831 45.7652 26.8912Z" fill="var(--fill-0, #EAF2EC)"/>
<path id="Vector_18" d="M60.5442 26.2226C62.0593 26.2963 62.4549 27.6696 61.7348 28.9127C61.5452 29.2402 61.0229 29.403 60.6516 29.4448C60.1963 29.4336 59.9434 29.4338 59.5468 29.1399C58.8927 28.6551 58.9038 27.3864 59.3806 26.7876C59.6886 26.401 60.0687 26.2752 60.5442 26.2226Z" fill="var(--fill-0, #101010)"/>
<path id="Vector_19" d="M60.4524 26.8557C60.8788 26.8613 61.1151 27.0772 61.206 27.482C61.3212 27.9961 61.2625 28.6454 60.6837 28.7959C60.4014 28.7872 60.1751 28.775 60.0159 28.516C59.6505 27.921 59.8153 27.1582 60.4524 26.8557Z" fill="var(--fill-0, #EAF2EC)"/>
<path id="Vector_20" d="M50.1073 17.5053L50.7256 17.5427C50.8151 18.233 50.7398 19.8715 50.7614 20.642C50.7751 21.1241 50.7866 22.8476 50.737 23.2188C50.6397 23.3142 50.4975 23.3097 50.3529 23.3278C50.206 23.3277 49.6515 23.3567 49.6497 23.1795C49.6428 22.4789 49.5042 17.9189 49.6772 17.6142C49.8549 17.4911 49.8613 17.5279 50.1073 17.5053Z" fill="var(--fill-0, #101010)"/>
<path id="Vector_21" d="M73.5238 26.2224C74.187 26.2321 74.6267 26.5436 74.8443 27.1745C74.9425 27.4593 75.0003 27.7092 74.8236 27.9695C74.6635 28.1125 73.2374 28.0837 72.9166 28.0927C72.9377 28.1827 72.9895 28.4213 73.0272 28.4942C73.2994 29.0216 74.3132 28.7571 74.7429 28.6962C74.7741 29.1659 74.7328 29.277 74.2343 29.391C72.4727 29.794 71.5162 28.3002 72.4388 26.8031C72.6591 26.4455 73.0878 26.2847 73.5238 26.2224Z" fill="var(--fill-0, #101010)"/>
<path id="Vector_22" d="M73.3746 26.8043C73.522 26.8074 73.779 26.8502 73.9332 26.8711C74.0076 27.0728 74.109 27.2597 74.0402 27.4485C73.9337 27.5401 73.745 27.517 73.5959 27.5161C73.3801 27.5182 73.1135 27.4985 72.8941 27.4885C73.0359 27.1682 73.0832 27.0053 73.3746 26.8043Z" fill="var(--fill-0, #EAF2EC)"/>
<path id="Vector_23" d="M42.6362 26.2226C42.6971 26.2249 42.758 26.2287 42.8187 26.234C43.865 26.3283 44.0753 27.1481 43.9737 28.049C43.6516 28.0623 42.2623 28.0326 42.0896 28.135C42.083 28.1699 42.0773 28.2174 42.0821 28.2525C42.1963 29.0834 43.2737 28.7796 43.866 28.6959C44.033 29.2405 43.6346 29.3215 43.2143 29.4121C41.4877 29.7845 40.7485 28.1433 41.5616 26.7993C41.7827 26.4338 42.2137 26.2844 42.6362 26.2226Z" fill="var(--fill-0, #101010)"/>
<path id="Vector_24" d="M42.4708 26.8055C42.8421 26.7944 43.3004 27.0073 43.2271 27.4287C43.08 27.5384 43.072 27.503 42.8534 27.5147C42.5943 27.524 42.2845 27.5084 42.021 27.5017C42.1422 27.2243 42.2259 26.9892 42.4708 26.8055Z" fill="var(--fill-0, #EAF2EC)"/>
<path id="Vector_25" d="M35.2031 26.3165C35.463 26.2967 35.7324 26.2292 35.9289 26.427C36.0394 26.6472 35.9907 27.106 35.986 27.3784C35.9913 27.9269 35.9971 28.4779 35.9966 29.026C35.9859 29.1748 35.996 29.3022 35.8585 29.3951C35.5876 29.5779 35.3803 29.2695 35.2439 29.0831C35.0863 29.0732 34.9532 29.234 34.8204 29.2974C33.5098 29.9233 33.1685 28.583 33.2661 27.5576C33.304 27.1589 33.2286 26.7183 33.3151 26.3168C33.5748 26.2933 33.812 26.3051 34.0718 26.3125C34.1692 27.1078 33.6905 29.7294 35.1954 28.3421C35.1891 27.6669 35.1917 26.9916 35.2031 26.3165Z" fill="var(--fill-0, #101010)"/>
<path id="Vector_26" d="M53.0044 26.2177C53.4556 26.2314 53.7104 26.4511 53.9577 26.801C54.0652 27.4796 54.0238 28.638 54.0165 29.3694C53.7709 29.3959 53.5392 29.3891 53.2931 29.387C53.2596 28.7673 53.3331 27.8534 53.2298 27.2718C53.1224 27.1403 52.9728 26.9918 52.8539 26.8667L52.3371 27.1836C52.0883 27.5237 52.187 28.8513 52.1925 29.3545C51.8675 29.3907 51.7078 29.384 51.3815 29.3693C51.3369 28.8732 51.3484 26.8259 51.3888 26.3217C51.5752 26.3035 51.751 26.2769 51.9359 26.3094C52.0433 26.4106 52.0309 26.4886 52.0709 26.6555C52.0897 26.6652 52.1085 26.6748 52.1273 26.6845C52.4963 26.4123 52.5611 26.309 53.0044 26.2177Z" fill="var(--fill-0, #101010)"/>
<path id="Vector_27" d="M66.1878 26.3088C66.4059 26.2903 66.6794 26.3049 66.902 26.3104C66.9557 26.9075 66.8382 27.5936 66.9374 28.1828C67.0764 29.0058 67.5492 28.8945 67.9985 28.3493C68.0293 27.7096 68.0068 26.9767 68.0256 26.3141C68.2946 26.2929 68.5333 26.3061 68.8022 26.3158L68.8045 27.4049L68.7976 29.3699C68.3703 29.3892 68.3299 29.4746 68.0573 29.0931C67.9067 29.0968 67.6566 29.3112 67.5097 29.4103C66.0056 29.5747 66.1259 28.5531 66.1245 27.4184C66.1245 27.1387 66.0708 26.5492 66.1878 26.3088Z" fill="var(--fill-0, #101010)"/>
<path id="Vector_28" d="M27.8244 25.2475C28.8433 25.2464 29.8935 25.2323 30.9097 25.2622C30.9317 25.475 30.9249 25.7135 30.9244 25.9293C30.5953 25.97 30.0871 25.9655 29.7424 25.9721L29.7475 28.2547L29.7421 29.3687C29.457 29.395 29.2443 29.3828 28.9604 29.371C28.8789 28.8229 28.926 26.6163 28.9273 25.9695C28.6038 25.9659 28.0539 26.0562 27.8446 25.8274C27.7575 25.6637 27.8051 25.4386 27.8244 25.2475Z" fill="var(--fill-0, #101010)"/>
<path id="Vector_29" d="M54.9074 25.572C55.1543 25.5577 55.4435 25.5672 55.6936 25.5692C55.7083 25.7921 55.701 26.0698 55.7014 26.2972C56.0365 26.2959 56.4711 26.2603 56.5212 26.6977C56.3743 27.0472 56.0163 26.9917 55.7143 26.9682C55.7028 27.4182 55.6688 28.0405 55.7161 28.4751C55.7671 28.941 56.1902 28.6396 56.4188 28.7974C56.4945 28.9371 56.462 29.112 56.45 29.276C56.0599 29.4722 55.8423 29.4352 55.4182 29.4113C55.2851 29.3201 55.0887 29.1265 54.9643 29.0108C54.8711 28.3762 54.9693 27.4528 54.8532 26.9858C54.6352 26.9581 54.5636 26.9488 54.4296 26.7694C54.4025 26.5959 54.431 26.5518 54.4966 26.3896C54.6104 26.2966 54.7656 26.3083 54.9216 26.2971C54.9005 26.058 54.9065 25.8125 54.9074 25.572Z" fill="var(--fill-0, #101010)"/>
<path id="Vector_30" d="M39.4184 25.5655C39.6966 25.5551 39.9245 25.568 40.2017 25.583C40.2068 25.887 40.1976 25.9963 40.1533 26.2942C40.4687 26.2939 40.9244 26.2487 41.0067 26.6619C40.9347 27.0404 40.4755 26.9931 40.199 26.9786C40.1974 27.4334 40.1539 28.0266 40.2146 28.4696C40.2796 28.9445 40.6818 28.6338 40.8836 28.7725C40.9754 28.9408 40.9412 28.9604 40.9382 29.1803C40.7634 29.523 40.263 29.4304 39.9362 29.4154C38.9254 28.8251 39.6283 27.3224 39.3632 27.0272C39.2513 26.9026 39.0739 26.9516 38.9406 26.7511C38.9155 26.582 38.9273 26.5562 38.9813 26.3979C39.0959 26.3036 39.2531 26.3054 39.4088 26.2859C39.3986 26.0671 39.4131 25.7887 39.4184 25.5655Z" fill="var(--fill-0, #101010)"/>
<path id="Vector_31" d="M37.3577 26.2666C37.9551 26.1843 38.6435 26.1656 38.5429 26.9667C38.2565 27.0436 37.608 26.526 37.33 27.0726C37.3673 27.5224 38.5438 27.603 38.7428 28.2628C38.9197 28.8492 38.4161 29.2205 37.9649 29.4067C37.3775 29.4544 36.5068 29.5681 36.6413 28.7146C36.8705 28.6381 37.5391 28.9755 37.8742 28.7659C38.0812 28.3819 37.5806 28.1302 37.2942 28.0317C36.4919 27.7558 36.4477 27.2335 36.8663 26.5313C37.0406 26.4161 37.1683 26.3569 37.3577 26.2666Z" fill="var(--fill-0, #101010)"/>
<path id="Vector_32" d="M70.5147 26.2614C71.0971 26.2055 71.2445 26.245 71.7149 26.5739C71.7273 26.7883 71.6984 27.0508 71.6814 27.2687C71.4721 27.1352 71.2353 26.952 70.987 26.9233C70.1296 26.8241 70.0029 28.088 70.45 28.5743C70.802 28.9571 71.2922 28.7463 71.6117 28.4421L71.6796 28.5102C71.7457 28.6913 71.7273 28.9019 71.7246 29.097C69.4916 30.6453 68.4878 26.8994 70.5147 26.2614Z" fill="var(--fill-0, #101010)"/>
<path id="Vector_33" d="M49.747 25.2496C49.9884 25.2435 50.2427 25.2486 50.4851 25.2494C50.5365 26.3343 50.5287 28.2805 50.4878 29.3649C50.2097 29.4003 50.0008 29.3851 49.7227 29.374C49.6855 28.7797 49.7126 27.9296 49.7085 27.3193C49.7043 26.7398 49.6796 25.7918 49.747 25.2496Z" fill="var(--fill-0, #101010)"/>
<path id="Vector_34" d="M58.3869 26.2091C58.4664 26.2193 58.6862 26.248 58.7202 26.3231C59.1948 27.4491 58.297 26.8699 57.9679 27.2145C57.6907 27.5046 57.7935 28.9207 57.7926 29.3674C57.5309 29.3918 57.2794 29.3797 57.0178 29.3732C56.9591 28.444 56.9783 27.2846 57.0642 26.3614C57.072 26.2759 57.541 26.0821 57.7191 26.6717C57.9913 26.435 58.0579 26.3444 58.3869 26.2091Z" fill="var(--fill-0, #101010)"/>
<path id="Vector_35" d="M32.4335 26.2151C32.5331 26.2212 32.5982 26.2485 32.6915 26.2794C32.8675 26.4582 32.9365 26.7732 32.7875 26.9914C32.403 27.2413 32.3109 26.7936 31.7773 27.5134C31.7852 28.1312 31.7822 28.749 31.7683 29.3667C31.471 29.3895 31.3266 29.4081 31.0279 29.3594C30.9712 28.8581 30.9976 26.8369 31.03 26.3052C31.2417 26.2954 31.3751 26.2908 31.5855 26.3067C31.6859 26.3977 31.6635 26.4779 31.6868 26.6446L31.7342 26.6786C32.0071 26.4197 32.0694 26.3126 32.4335 26.2151Z" fill="var(--fill-0, #101010)"/>
<path id="Vector_36" d="M76.9533 26.2159C77.2466 26.2524 77.2939 26.3172 77.3613 26.6186C77.471 27.1078 77.1314 27.0814 76.7853 27.0826C76.6059 27.0833 76.4319 27.3939 76.3452 27.534C76.3507 28.1384 76.3406 28.7581 76.3374 29.3638C76.0757 29.3916 75.8389 29.3805 75.5768 29.3744C75.5204 28.8838 75.5465 26.8239 75.5777 26.3049L75.6521 26.3017C76.5003 26.2685 76.0243 26.4125 76.3116 26.6783C76.6306 26.5212 76.3883 26.3468 76.9533 26.2159Z" fill="var(--fill-0, #101010)"/>
<path id="Vector_37" d="M36.8541 20.6438C37.5879 20.6315 38.322 20.6354 39.0557 20.6555C39.0622 21.0233 39.0643 21.1875 39.0079 21.5486C38.3393 21.5759 37.5502 21.5572 36.8726 21.5578C36.8077 21.1642 36.8099 21.0259 36.8541 20.6438Z" fill="var(--fill-0, #101010)"/>
</g>
</svg>
