<svg preserveAspectRatio="none" width="100%" height="100%" overflow="visible" style="display: block;" viewBox="0 0 82.0664 47" fill="none" xmlns="http://www.w3.org/2000/svg">
<g id="image 5 [Vectorized]">
<path id="Vector" d="M13.151 12.859C13.7516 12.8383 14.4622 12.8777 15.0776 12.8797L18.0926 12.8608L28.5124 12.859L31.7071 12.8745C32.6157 12.8839 33.4619 12.9174 34.3691 12.832C33.6614 13.5047 32.9425 14.2613 32.249 14.9562L27.3936 19.8453C26.4686 20.776 24.5201 22.5366 23.8077 23.4752C25.4213 23.392 27.4253 23.5435 28.976 23.3806L29.0103 23.4522C27.9468 24.5158 18.6567 33.8655 18.4705 33.933L18.4131 33.875C18.4035 33.7137 18.4127 33.5529 18.418 33.3916C18.4697 31.8154 18.4166 30.2378 18.4433 28.6613C18.1352 29.137 16.8165 30.4057 16.3292 30.8818C15.2676 31.919 14.1859 33.0713 13.1114 34.0819C13.1825 33.5043 13.1525 32.3285 13.1523 31.6986L13.1498 27.4131L13.151 12.859ZM14.3068 31.184C14.5922 30.9944 16.0296 29.5251 16.3503 29.1864C16.7726 28.7403 18.1075 27.5302 18.4558 27.0842C18.4356 24.7607 18.4295 22.4371 18.4376 20.1135C18.4383 19.8093 18.3954 18.3476 18.4397 18.1673C18.4813 18.1288 18.4946 18.105 18.5446 18.0925L27.4493 18.0996C28.8239 16.7612 30.1818 15.348 31.5483 13.9909C30.7917 14.0642 29.9631 14.022 29.1947 14.0191L25.658 14.0263L18.9344 14.0163C17.3753 14.0134 15.8573 14.0313 14.297 13.9878C14.238 14.808 14.2796 16.2026 14.2799 17.0593L14.2826 22.8912L14.2831 28.3289C14.2834 29.0975 14.2453 30.4531 14.3068 31.184ZM23.5749 24.6447C22.2896 25.914 21.0095 27.305 19.6909 28.5316C19.5703 29.206 19.5362 30.4805 19.6643 31.1476C19.9234 30.843 20.2436 30.5858 20.5098 30.2899C21.7177 28.9477 23.0943 27.763 24.3207 26.4402C24.9636 25.7466 25.5571 25.1535 26.3046 24.5726C25.6419 24.6195 24.0719 24.5511 23.5749 24.6447ZM19.6069 19.3215C19.5641 20.5991 19.568 22.1912 19.5961 23.4633C20.0449 23.4565 20.5125 23.4426 20.9597 23.454C21.1609 23.4504 21.9331 23.4689 22.0486 23.3617C23.4521 22.0584 24.7842 20.5275 26.2289 19.2671C25.7426 19.3153 25.229 19.3023 24.7386 19.3003L21.4627 19.3056C20.9207 19.3061 20.126 19.2837 19.6069 19.3215Z" fill="var(--fill-0, #101010)"/>
<path id="Vector_2" d="M20.9368 24.6128C21.2076 24.56 22.0296 24.5642 22.3029 24.6149C22.7043 24.5846 23.1782 24.5683 23.5749 24.6447C22.2896 25.914 21.0095 27.305 19.6909 28.5316C19.6146 28.2213 19.6073 27.572 19.6382 27.2526C19.5905 26.8931 19.5884 26.2535 19.6188 25.8938C19.5897 25.5765 19.6069 24.9285 19.6053 24.5866C20.0724 24.5837 20.4679 24.5862 20.9368 24.6128Z" fill="var(--fill-0, #101010)"/>
<path id="Vector_3" d="M20.9368 24.6128C21.2076 24.56 22.0296 24.5642 22.3029 24.6149C21.6544 25.1738 21.0778 25.82 20.478 26.4281C20.3101 26.5983 19.8128 27.1373 19.6382 27.2526C19.5905 26.8931 19.5884 26.2535 19.6188 25.8938C19.5897 25.5765 19.6069 24.9285 19.6053 24.5866C20.0724 24.5837 20.4679 24.5862 20.9368 24.6128Z" fill="var(--fill-0, #101010)"/>
<path id="Vector_4" d="M19.6053 24.5866C20.0724 24.5837 20.4679 24.5862 20.9368 24.6128C20.6559 24.8759 19.8351 25.7331 19.6188 25.8938C19.5897 25.5765 19.6069 24.9285 19.6053 24.5866Z" fill="var(--fill-0, #101010)"/>
<path id="Vector_5" d="M54.0674 24.2686L54.6641 24.2707C55.7992 24.2791 57.1412 24.3478 57.1243 25.9071C57.1201 26.2999 56.9274 26.5665 56.6437 26.823C55.8437 27.4047 55.0414 27.2757 54.0702 27.2687L54.0674 24.2686ZM56.0268 26.3882C56.3435 25.9833 56.4776 25.5459 55.9979 25.1696C55.6537 24.9 55.3586 24.9199 54.9423 24.9141C54.9326 25.4765 54.9179 26.0414 54.9317 26.6036C55.3719 26.6214 55.6569 26.66 56.0268 26.3882Z" fill="var(--fill-0, #101010)"/>
<path id="Vector_6" d="M39.757 20.4398C41.8685 20.3662 42.0169 23.3528 39.9151 23.5089C39.4638 23.4799 39.1783 23.4613 38.7894 23.178C38.4607 22.9402 38.241 22.5806 38.1794 22.1795C38.1201 21.7799 38.2259 21.3734 38.4725 21.0534C38.8108 20.6174 39.2443 20.5099 39.757 20.4398ZM39.2129 21.3251C38.8882 22.0385 38.9604 22.7016 39.8333 22.8714C40.0689 22.7851 40.1222 22.757 40.3273 22.6123C40.4351 22.3914 40.5522 22.1664 40.6324 21.9347L40.3137 21.2591C40.1285 21.1842 39.9429 21.095 39.7449 21.0822C39.5059 21.1386 39.4186 21.2008 39.2129 21.3251Z" fill="var(--fill-0, #101010)"/>
<path id="Vector_7" d="M32.8621 20.4775C33.2922 20.4406 33.6197 20.4437 34.0216 20.6577C34.3818 20.8488 34.6496 21.1771 34.7643 21.5683C35.0376 22.481 34.4023 23.2139 33.5574 23.4638C31.3591 23.7882 30.7021 20.9986 32.8621 20.4775ZM33.3912 22.8355C33.8364 22.4783 34.2047 22.0249 33.7868 21.4052C33.5829 21.1031 33.2427 21.0897 32.9029 21.1201C32.4527 21.4735 32.1589 21.9523 32.5832 22.5487C32.749 22.7817 33.1064 22.8617 33.3912 22.8355Z" fill="var(--fill-0, #101010)"/>
<path id="Vector_8" d="M59.1631 28.0822C60.3537 28.2344 62.2351 27.7312 62.1369 29.7857C62.1157 30.2282 62.0083 30.386 61.682 30.6822C60.8558 31.248 60.093 30.9217 59.1649 31.1173C59.1498 30.7268 59.1204 28.3468 59.1631 28.0822ZM59.9521 30.4008C60.3353 30.3965 60.7204 30.4323 61.0582 30.2702C61.2515 30.017 61.3345 29.8922 61.436 29.5782C61.2845 29.1492 61.1822 29.0497 60.859 28.7373L60.0274 28.7335C59.9356 28.9568 59.9617 30.0693 59.9521 30.4008Z" fill="var(--fill-0, #101010)"/>
<path id="Vector_9" d="M65.9423 28.0884C66.7281 28.1866 67.8209 27.9326 68.4277 28.5315C69.1345 29.2294 68.9367 30.0577 68.3593 30.7068C67.6896 31.147 66.6418 31.0515 65.8441 31.0542C65.8298 30.6382 65.7968 28.3083 65.9423 28.0884ZM66.6459 30.4135C66.9823 30.3999 67.5363 30.4252 67.7993 30.2606C68.3336 29.0694 67.8558 28.7559 66.6849 28.7394C66.6119 28.9487 66.6514 30.1275 66.6459 30.4135Z" fill="var(--fill-0, #101010)"/>
<path id="Vector_10" d="M41.1061 24.2923C41.5497 24.2347 41.9838 24.2268 42.3926 24.4305C42.7659 24.6137 43.0497 24.9395 43.1801 25.3343C43.3038 25.7029 43.2752 26.1055 43.1008 26.4529C42.8865 26.8694 42.5134 27.1103 42.079 27.2506C41.3064 27.3795 40.5375 27.1834 40.16 26.4377C39.9764 26.0804 39.9478 25.6634 40.0808 25.2843C40.2687 24.7508 40.6309 24.5173 41.1061 24.2923ZM41.8907 26.6048C42.1589 26.4602 42.2844 26.3602 42.3769 26.0526C42.4491 25.8125 42.4214 25.5533 42.3001 25.3338C42.0653 24.8988 41.7212 24.8736 41.2848 24.9305C41.0551 25.098 40.9017 25.3499 40.8583 25.6308C40.7654 26.2564 41.2332 26.8157 41.8907 26.6048Z" fill="var(--fill-0, #101010)"/>
<path id="Vector_11" d="M33.6166 28.078C34.418 28.2008 35.398 27.8984 36.0659 28.4813C36.4239 28.7937 36.1048 29.2798 35.8501 29.5307C36.3059 29.8685 36.475 30.2255 36.1263 30.7366C35.6995 31.1551 34.2744 31.0436 33.5681 31.0865C33.5527 30.71 33.5489 28.329 33.6166 28.078ZM34.5623 29.8502C34.3185 29.9408 34.2237 30.085 34.3453 30.3472C34.5896 30.5261 34.8617 30.4319 35.1883 30.4282C35.3729 30.388 35.4098 30.3859 35.5461 30.2566C35.5923 30.1471 35.5874 30.1954 35.5359 30.0598C35.2409 29.7529 34.9395 29.8131 34.5623 29.8502ZM35.2802 29.1763C35.3763 28.9896 35.3767 29.0541 35.3463 28.8701C35.1751 28.6521 34.5889 28.7193 34.3158 28.7269C34.2903 28.8892 34.2436 29.0357 34.3266 29.1704C34.5623 29.4051 35.0071 29.3 35.2802 29.1763Z" fill="var(--fill-0, #101010)"/>
<path id="Vector_12" d="M35.3617 20.4907C36.4896 20.5934 36.9061 20.2407 37.8003 21.0861C37.8886 21.5017 37.8854 21.6467 37.8062 22.0496C37.5892 22.2845 37.5327 22.3287 37.2675 22.5002C37.4324 22.7704 37.9143 23.1877 37.8111 23.474C37.6926 23.5409 37.5758 23.5081 37.4411 23.4884C36.6967 23.399 36.7885 22.7258 36.2977 22.5861L36.2185 22.6484C36.0842 22.9227 36.1166 23.1696 36.1152 23.4785C35.8493 23.4506 35.4893 23.4676 35.2131 23.4726C35.1537 22.6889 35.2335 21.5533 35.2114 20.7415C35.2076 20.6014 35.2738 20.5642 35.3617 20.4907ZM36.1017 22.0182C36.3866 22.0019 36.6041 22.0128 36.869 21.9C36.9845 21.7687 37.0469 21.7178 37.0688 21.5449C36.9632 21.1205 36.4944 21.1238 36.1217 21.1094C36.0752 21.4043 36.0947 21.7182 36.1017 22.0182Z" fill="var(--fill-0, #101010)"/>
<path id="Vector_13" d="M54.7086 28.0832C55.7845 28.2504 56.0636 27.8541 57.0476 28.4891C57.4419 29.207 57.3212 29.6894 56.696 30.1856C56.8874 30.4001 57.2574 30.7121 57.1963 30.993C57.0233 31.0983 57.0054 31.0564 56.7617 31.0445C56.2233 31.0398 56.0677 30.1583 55.5894 30.2653C55.41 30.477 55.4641 30.7776 55.4802 31.0495L54.649 31.0997C54.677 30.6361 54.5957 28.2984 54.7086 28.0832ZM56.2357 29.5783C56.9205 28.9414 56.1154 28.7296 55.5467 28.7489C55.2525 29.1092 55.427 29.8437 56.2357 29.5783Z" fill="var(--fill-0, #101010)"/>
<path id="Vector_14" d="M39.9173 28.1137C41.0138 28.0208 41.8689 28.0106 42.2534 29.2C42.0835 29.7379 42.0202 29.7815 41.6306 30.1961C41.8128 30.4728 42.0436 30.7265 42.2508 31.0454C42.0173 31.0589 41.6413 31.0402 41.3982 31.0345C41.1537 30.8568 41.1497 30.532 40.6795 30.2616C40.324 30.2709 40.3912 30.8182 40.3881 31.0853C40.1115 31.067 39.8482 31.0652 39.5716 31.0621C39.6093 30.1076 39.5503 29.1567 39.588 28.2207C39.7237 28.1054 39.7098 28.1396 39.9173 28.1137ZM40.3962 29.6599C40.6488 29.6625 41.0283 29.7149 41.2114 29.5294C41.6879 28.7872 40.9497 28.7239 40.3959 28.73L40.3962 29.6599Z" fill="var(--fill-0, #101010)"/>
<path id="Vector_15" d="M43.7447 24.23C43.8474 24.2362 44.113 24.2506 44.1939 24.2978C44.825 24.6655 45.1732 25.4059 45.7301 25.9498C45.6222 25.3397 45.6583 24.8848 45.6677 24.2678C45.9668 24.2372 46.2156 24.2504 46.5153 24.2594C46.4166 25.032 46.4846 26.2511 46.4726 27.0944C46.4552 27.2164 46.468 27.1723 46.3882 27.2762C45.7953 27.5419 44.8399 26.0667 44.4801 25.6297C44.5314 26.1014 44.5208 26.7736 44.527 27.2614C44.2566 27.281 43.9721 27.2753 43.7001 27.2753C43.6911 26.7611 43.6286 24.6039 43.7447 24.23Z" fill="var(--fill-0, #101010)"/>
<path id="Vector_16" d="M29.0534 24.2158C29.2424 24.2602 29.4422 24.2712 29.6361 24.2878C30.0175 24.6043 30.6988 25.5301 31.0343 25.9621C31.0104 25.4263 31.0318 24.7904 31.0383 24.2453C31.3043 24.2518 31.5703 24.2556 31.8364 24.257C31.726 25.0314 31.8058 26.3991 31.7662 27.2946C31.5992 27.2932 31.3428 27.2647 31.1694 27.2511C30.7162 26.6904 30.2486 26.1797 29.8083 25.5982C29.8226 26.1621 29.8196 26.7263 29.7994 27.2901C29.5635 27.2913 29.3276 27.2947 29.0917 27.3001C29.0368 26.3469 29.0576 25.1847 29.0534 24.2158Z" fill="var(--fill-0, #101010)"/>
<path id="Vector_17" d="M33.8314 24.2464L34.0338 24.2474C34.3141 24.4014 35.1717 26.7343 35.513 27.3066C35.2136 27.2591 34.9306 27.2486 34.6285 27.2324L34.3273 26.6574L33.7239 26.6573L33.1307 26.647C33.0098 26.8882 32.9755 27.0179 32.903 27.2718C32.6119 27.2609 32.3357 27.2684 32.0449 27.2749C32.4479 26.5821 32.8855 25.1004 33.3543 24.3827C33.4352 24.2587 33.6753 24.2596 33.8314 24.2464ZM33.9261 26.1309L34.0488 26.086C34.1217 25.9002 33.9127 25.4354 33.832 25.2462C33.8084 25.2281 33.7532 25.1826 33.7297 25.1727C33.6307 25.3976 33.4194 25.775 33.4732 25.9933C33.6152 26.1382 33.7092 26.1193 33.9261 26.1309Z" fill="var(--fill-0, #101010)"/>
<path id="Vector_18" d="M48.0304 24.2732L48.7639 24.2623C49.1499 25.0586 49.7466 26.6279 50.1606 27.3041C49.8269 27.2687 49.5689 27.2643 49.2325 27.2607C49.1577 27.0376 49.1104 26.7372 48.8887 26.6549C48.567 26.6341 48.1488 26.6481 47.8193 26.6506C47.6986 26.8437 47.571 27.0766 47.4558 27.2767C47.2052 27.2653 46.9458 27.2769 46.6943 27.2835C46.8701 26.8118 47.1785 26.1852 47.3759 25.705C47.5168 25.3631 47.8528 24.5619 48.0304 24.2732ZM48.5454 26.0908L48.6771 26.0691C48.79 25.879 48.5105 25.4492 48.4068 25.2604L48.3136 25.2105C48.236 25.4008 48.0662 25.7563 48.0722 25.944C48.1915 26.169 48.2957 26.1095 48.5454 26.0908Z" fill="var(--fill-0, #101010)"/>
<path id="Vector_19" d="M63.635 28.0981C63.8268 28.0934 64.0834 28.1101 64.2798 28.1171C64.7072 28.6922 65.1726 30.3442 65.6439 31.03C65.2905 31.0569 65.0794 31.0485 64.7237 31.03C64.6213 30.6978 64.6351 30.4542 64.2693 30.4228C63.971 30.4325 63.6524 30.4286 63.3527 30.4299C63.2067 30.6564 63.1094 30.9956 62.8134 31.0454C62.6477 31.0733 62.421 31.061 62.2787 30.965C62.2511 30.8213 63.3376 28.6027 63.4358 28.2866C63.4564 28.2201 63.5703 28.1348 63.635 28.0981ZM64.0173 29.8611L64.172 29.8784L64.2248 29.826C64.2239 29.5514 64.0719 29.3119 63.9443 29.0694L63.8645 29.0228C63.7653 29.2175 63.5473 29.5589 63.5849 29.7515C63.7075 29.8988 63.825 29.8588 64.0173 29.8611Z" fill="var(--fill-0, #101010)"/>
<path id="Vector_20" d="M45.4479 28.1111C46.094 28.1413 47.017 28.1345 47.6692 28.1299C47.671 28.3152 47.6458 28.5907 47.6343 28.7824C47.3612 28.7433 45.9485 28.5934 46.1477 29.1358C46.5043 29.4105 47.268 28.9954 47.5081 29.4207C47.4966 29.5686 47.504 29.6535 47.4062 29.7678C47.2511 29.8464 46.4286 29.8647 46.1867 29.8828C46.1683 29.9662 46.1725 30.1253 46.1715 30.2165C46.4102 30.6355 47.1997 30.229 47.6931 30.4605C47.8427 30.6411 47.8179 30.8427 47.6765 31.0283C47.2492 31.0763 45.9118 31.0444 45.3459 31.0656C45.3475 30.158 45.3345 29.1627 45.3427 28.2498C45.3434 28.167 45.3716 28.1698 45.4479 28.1111Z" fill="var(--fill-0, #101010)"/>
<path id="Vector_21" d="M57.5286 24.2702C58.269 24.2804 59.1273 24.3108 59.8561 24.2633C59.8502 24.4809 59.8543 24.7086 59.8552 24.9271C59.3995 24.9318 58.934 24.8759 58.4865 24.9279C58.3383 24.9451 58.3695 25.2904 58.431 25.3937C58.6706 25.5512 59.4316 25.4737 59.7529 25.4595C59.7419 25.6376 59.7487 25.8321 59.6533 25.9787C59.4169 26.1838 58.9203 26.0681 58.5132 26.0689L58.4393 26.0888C58.3397 26.2249 58.3617 26.4273 58.4214 26.5761C58.7789 26.8269 59.5899 26.3677 59.8653 26.7782C59.8727 26.9608 59.8796 26.9992 59.8116 27.168C59.5826 27.334 57.944 27.2628 57.5534 27.2641C57.5525 26.2798 57.5663 25.2502 57.5286 24.2702Z" fill="var(--fill-0, #101010)"/>
<path id="Vector_22" d="M36.8074 28.0845C37.2866 28.1823 38.3996 28.0456 39.0099 28.1464C39.1018 28.2871 39.1758 28.4551 39.1142 28.622C38.7747 28.9347 37.8682 28.5988 37.5768 28.8976C37.634 29.5266 38.5378 29.0112 38.8237 29.3537C38.8411 29.5193 38.8547 29.5614 38.7729 29.7075C38.5004 29.9584 38.0432 29.8327 37.6222 29.9023L37.5838 29.9089C37.5771 30.1241 37.5481 30.1601 37.6586 30.3122C37.9343 30.4733 38.7326 30.3898 39.1092 30.3881L39.117 31.0587C38.5571 31.0066 37.3406 31.0282 36.7954 31.0905C36.7593 30.708 36.7422 28.3919 36.8074 28.0845Z" fill="var(--fill-0, #101010)"/>
<path id="Vector_23" d="M53.3877 28.064C53.5841 28.0893 53.871 28.0579 54.0752 28.0431C54.0615 28.7578 54.2111 30.1218 53.7622 30.7021C53.5685 30.9528 53.1109 31.1011 52.7905 31.1035C51.6027 31.1121 51.3626 30.3608 51.3484 29.3481C51.381 28.3765 50.9941 28.0305 52.1966 28.1087C52.1934 28.1305 52.1907 28.1524 52.1879 28.1742C52.1181 28.7425 51.912 30.3685 52.7263 30.4324C52.8695 30.4439 53.0109 30.3945 53.116 30.2965C53.563 29.8767 53.0412 28.3809 53.3877 28.064Z" fill="var(--fill-0, #101010)"/>
<path id="Vector_24" d="M49.1471 28.0995C50.0724 28.0302 50.1771 28.0592 50.9551 28.5715L50.3841 29.05L50.022 28.7423C49.2229 28.6878 48.9553 28.853 48.7891 29.657C49.1301 30.4375 49.2738 30.4901 50.1119 30.3676C50.1138 30.1068 50.0816 29.6462 50.2643 29.4612L50.5879 29.4679C51.0822 29.6804 50.9569 30.7714 50.5287 30.939C50.0954 31.1088 49.3863 31.1362 48.9539 30.9658C48.5697 30.8107 48.264 30.5071 48.1066 30.1239C47.9584 29.7747 47.9593 29.3802 48.1084 29.0316C48.3177 28.5363 48.6758 28.2975 49.1471 28.0995Z" fill="var(--fill-0, #101010)"/>
<path id="Vector_25" d="M43.209 28.1074C43.6021 28.0762 44.6017 27.9773 44.8255 28.3216C44.8244 29.0877 44.2769 28.7017 43.8016 28.7105C43.6545 28.7133 43.4365 28.7865 43.2941 28.8332L43.2604 28.9418C43.6094 29.3209 45.4105 29.3366 44.8721 30.564C44.7455 30.8527 44.3781 30.9754 44.099 31.0582C43.9952 31.0663 43.8912 31.0711 43.7871 31.0725C43.4276 31.0755 42.8127 31.0843 42.5524 30.8306C42.2355 29.9391 43.6448 30.5744 44.0799 30.3998C44.1895 30.2867 44.1831 30.3278 44.1996 30.2C44.0374 29.9559 43.4535 29.8411 43.1642 29.7635C42.0899 29.4754 42.4246 28.5106 43.209 28.1074Z" fill="var(--fill-0, #101010)"/>
<path id="Vector_26" d="M30.013 28.1019C30.4635 28.0674 31.6574 28.0206 31.6157 28.6944C31.5404 28.8614 31.3713 28.9635 31.2219 29.074C30.9729 28.8326 30.6597 28.6215 30.3098 28.7369C29.6228 28.9633 29.716 29.6452 29.848 30.1471C30.3928 30.5372 30.7496 30.5262 31.2482 30.0768C31.4101 30.2964 31.6783 30.3678 31.6795 30.6283C31.6276 30.749 31.5672 30.8156 31.4452 30.8739C30.1506 31.4925 28.3964 30.6308 29.0203 29.0396C29.2226 28.5234 29.5114 28.3197 30.013 28.1019Z" fill="var(--fill-0, #101010)"/>
<path id="Vector_27" d="M36.6241 24.2898C37.0163 24.2667 37.2777 24.2703 37.6713 24.2875C37.9076 24.458 38.2832 24.5466 38.2529 24.8806C38.1689 25.0414 38.0194 25.0948 37.856 25.1791C37.5199 24.9947 37.2761 24.8529 36.8869 24.9693C36.6837 25.0319 36.5142 25.1735 36.4166 25.3624C36.3072 25.5725 36.2885 25.8183 36.365 26.0426C36.5045 26.4408 36.7517 26.5446 37.0978 26.7175C37.3466 26.5951 37.5945 26.4709 37.8416 26.345C38.0726 26.4504 38.2854 26.5414 38.2694 26.8267C37.9905 27.3017 36.9653 27.3846 36.471 27.1833C36.0803 27.026 35.7704 26.7166 35.6125 26.3262C35.2602 25.4382 35.7744 24.6023 36.6241 24.2898Z" fill="var(--fill-0, #101010)"/>
<path id="Vector_28" d="M29.0169 20.487C29.432 20.499 31.0515 20.4842 31.3281 20.5434C31.405 20.6508 31.4112 20.9586 31.3478 21.0737C30.9946 21.1584 30.2799 21.0916 29.8469 21.1371L29.8396 21.7635C30.3104 21.7523 31.1298 21.5456 31.1563 22.1665C30.9753 22.561 30.2625 22.3848 29.8413 22.4153C29.8407 22.7746 29.8346 23.1477 29.852 23.5054C29.6701 23.498 29.1662 23.4873 29.0103 23.4522L28.976 23.3806C29.0585 23.3038 29.0596 23.2803 29.0571 23.1397C29.0422 22.2722 29.0618 21.3493 29.0169 20.487Z" fill="var(--fill-0, #101010)"/>
<path id="Vector_29" d="M50.3552 24.272C50.6182 24.2866 50.8853 24.2665 51.1488 24.253C51.1033 24.9567 51.23 25.8593 51.1341 26.5609C51.6091 26.5862 52.1058 26.5927 52.5826 26.606C52.5886 26.8066 52.5826 27.0349 52.5822 27.238C52.1874 27.3024 50.9041 27.2438 50.3556 27.2843C50.3336 26.3134 50.3446 25.2454 50.3552 24.272Z" fill="var(--fill-0, #101010)"/>
<path id="Vector_30" d="M58.3185 28.0724L58.4035 28.0686L58.4856 28.1478C58.6036 28.4907 58.6155 30.7038 58.4888 31.0363C58.3599 31.1235 58.1666 31.0881 58.0046 31.0774C57.9252 31.0938 57.9004 31.0756 57.8256 31.0458C57.7095 30.8745 57.7145 28.2874 57.8072 28.1254C57.9454 28.0477 58.1533 28.07 58.3185 28.0724Z" fill="var(--fill-0, #101010)"/>
<path id="Vector_31" d="M39.2052 24.2604C39.3346 24.2252 39.4616 24.2777 39.5462 24.3734C39.5352 24.9814 39.6011 26.6118 39.4772 27.2365C39.4688 27.2791 39.3638 27.2865 39.3082 27.297L38.7375 27.2698C38.7425 26.8136 38.7115 24.6427 38.7686 24.3521C38.9326 24.2453 38.9897 24.2751 39.2052 24.2604Z" fill="var(--fill-0, #101010)"/>
<path id="Vector_32" d="M32.7966 28.0676L32.8985 28.0943C32.9812 28.256 32.9506 30.704 32.9482 31.081C32.6955 31.0922 32.5671 31.0933 32.3136 31.0731C32.1865 31.0274 32.1342 30.8686 32.1528 30.7559C32.2236 30.3248 32.0608 28.3939 32.2306 28.1276C32.385 28.0456 32.6152 28.067 32.7966 28.0676Z" fill="var(--fill-0, #101010)"/>
</g>
</svg>
