<svg preserveAspectRatio="none" width="100%" height="100%" overflow="visible" style="display: block;" viewBox="0 0 82.0664 47" fill="none" xmlns="http://www.w3.org/2000/svg">
<g id="image 6 [Vectorized]">
<path id="Vector" d="M21.2144 18.1196C21.6167 18.3848 22.2849 19.1061 22.6508 19.4778L24.5377 21.3785C24.7011 21.5423 25.272 22.1378 25.4305 22.1907C26.2471 22.4631 26.4706 22.0133 27.1309 22.8218C27.2273 23.2454 27.2408 23.6835 27.1706 24.1123C26.4835 24.9823 26.2169 24.6487 25.3243 24.8883C24.9918 25.2655 24.0252 26.3089 23.6089 26.5421C23.5291 26.7102 23.0511 27.1372 22.8897 27.2912C22.73 27.4521 22.2185 27.9839 22.0702 28.0917C21.7913 28.3639 21.6523 28.6081 21.3236 28.81C20.9029 28.5119 20.0802 27.5917 19.6338 27.1841C18.7142 26.3446 17.8847 25.5599 17.0199 24.6613C16.6015 24.6436 16.2783 24.6228 15.8637 24.5712C15.8011 24.5211 15.7397 24.4693 15.6797 24.416C15.1596 23.947 15.0701 23.0584 15.556 22.5275C15.9298 22.1191 16.4748 22.1805 16.9857 22.1716C17.3867 21.72 17.8088 21.4276 18.2401 21.0034L20.1766 19.0803C20.4465 18.8146 20.9229 18.3172 21.2144 18.1196ZM21.3229 27.4109C21.549 27.1689 21.7536 27.0006 22.0109 26.7948C22.2883 26.4694 22.4354 26.2432 22.7989 26.0153C23.0801 25.6626 23.1922 25.5646 23.5324 25.2816C24.0564 24.1952 24.8269 24.6987 24.7682 23.0921C23.9703 22.2523 23.1354 21.4442 22.3086 20.6333C22.0231 20.3533 21.3697 19.8676 21.1623 19.6113C20.712 20.0604 17.8427 22.8481 17.7532 23.0956C17.7803 23.2626 17.8636 23.5769 17.7795 23.7304C17.756 23.8165 17.7267 23.8288 17.7752 23.9055C18.0414 24.3264 18.6054 24.5768 18.9355 24.9296C19.453 25.4829 19.9835 26.0338 20.5272 26.5627C20.7004 26.7312 21.165 27.3206 21.3229 27.4109Z" fill="var(--fill-0, #101010)"/>
<path id="Vector_2" d="M23.5324 25.2816C23.6416 25.6536 23.5509 26.1622 23.6089 26.5422C23.5291 26.7102 23.0511 27.1372 22.8897 27.2912C22.73 27.4521 22.2185 27.9839 22.0702 28.0917C22.0155 27.8285 22.0241 27.1197 22.0109 26.7948C22.2883 26.4694 22.4354 26.2432 22.7989 26.0153C23.0801 25.6626 23.1922 25.5646 23.5324 25.2816Z" fill="var(--fill-0, #101010)"/>
<path id="Vector_3" d="M23.5324 25.2816C23.6416 25.6536 23.5509 26.1622 23.6089 26.5422C23.5291 26.7102 23.0511 27.1372 22.8897 27.2912C22.8077 27.0202 22.9296 26.3928 22.7989 26.0153C23.0801 25.6626 23.1922 25.5646 23.5324 25.2816Z" fill="var(--fill-0, #101010)"/>
<path id="Vector_4" d="M21.3229 27.4109C21.549 27.1689 21.7536 27.0006 22.0109 26.7948C22.024 27.1197 22.0155 27.8285 22.0702 28.0917C21.7913 28.3639 21.6523 28.6081 21.3236 28.81C21.2873 28.3634 21.3117 27.8628 21.3229 27.4109Z" fill="var(--fill-0, #101010)"/>
<path id="Vector_5" d="M41.4237 26.5078C43.3902 26.1835 45.2485 27.5112 45.5792 29.4767C45.9099 31.4421 44.5883 33.3047 42.6239 33.6418C40.6505 33.9804 38.7774 32.6514 38.4452 30.6769C38.113 28.7024 39.4481 26.8336 41.4237 26.5078ZM42.3984 31.8542C42.92 31.635 43.3028 31.3177 43.5254 30.779C43.7153 30.3062 43.7074 29.7769 43.5036 29.31C43.2984 28.8453 42.9129 28.4843 42.4358 28.3102C42.142 28.2001 41.9793 28.2136 41.6683 28.2341C41.0692 28.5113 40.8216 28.7002 40.5417 29.3744C40.3567 29.8199 40.374 30.5659 40.5814 31.0096C40.7525 31.3799 41.0646 31.6665 41.4482 31.8054C41.7954 31.9297 42.0514 31.9402 42.3984 31.8542Z" fill="var(--fill-0, #101010)"/>
<path id="Vector_6" d="M19.1936 15.6173C19.9396 15.5835 20.1349 15.7416 20.6088 16.295C20.6827 16.6798 20.6848 16.8189 20.693 17.2171C20.1624 18.1125 19.8697 18.1118 18.8768 18.1062C18.0742 19.091 16.7782 20.2575 15.8654 21.1934C15.4266 21.6433 13.9843 23.1051 13.542 23.4133C13.9871 23.7485 14.2315 24.0461 14.621 24.3799C15.5542 25.1999 16.4876 26.1067 17.3477 27.0032C18.0166 27.7003 19.7724 28.9739 20.0956 29.7938C20.135 30.3052 17.8211 32.1593 17.4946 32.6033C17.0123 33.2592 17.6285 34.1821 16.4197 34.5561C15.6503 34.6627 14.8513 34.3067 14.7098 33.4745C14.5974 32.8132 15.2096 31.9924 15.9135 32.0539C15.9879 32.0604 16.3275 32.1237 16.3592 32.0897C16.9604 31.4452 18.2041 30.4396 18.6707 29.7506L18.6836 29.7313C17.8274 29.0157 17.1235 28.1686 16.3139 27.4561C14.8503 26.1679 13.5469 24.7428 12.1349 23.4185C12.5975 22.7667 13.5149 21.9403 14.096 21.3629C15.0177 20.43 15.9445 19.5021 16.8762 18.5791C17.2087 18.2508 17.8678 17.675 18.1213 17.3504C18.2099 16.464 18.1222 15.8829 19.1936 15.6173Z" fill="var(--fill-0, #101010)"/>
<path id="Vector_7" d="M26.0326 12.3971C26.7184 12.3451 26.9431 12.336 27.4999 12.7339C27.7849 13.2343 27.7398 13.493 27.7214 14.0585C27.2393 14.8589 27.086 14.8143 26.1815 14.8538C25.8402 14.8687 24.8232 16.1606 24.4809 16.4146C24.3292 16.5272 23.9276 16.9671 23.8254 17.1049C23.9141 17.3433 24.6673 18.0326 24.8809 18.2268C26.7658 19.9416 28.5755 21.7525 30.4235 23.508C29.9891 24.0061 29.3698 24.6084 28.8977 25.0856L25.8255 28.1666C25.3603 28.6276 24.8463 29.0888 24.4006 29.5597C24.4279 30.5054 24.3504 30.8969 23.4637 31.3075C22.2226 31.3608 21.3976 30.4638 22.0955 29.2116C22.3351 28.7815 23.2106 28.8156 23.6951 28.7826C24.0677 28.4466 24.4567 27.934 24.8423 27.5713C26.2065 26.2881 27.54 24.7468 28.9618 23.5515C28.4024 23.1818 27.5138 22.2064 27.0194 21.71C26.3454 21.0334 25.66 20.4367 24.9494 19.7999C24.201 19.129 23.0193 17.7193 22.231 17.2083C22.7742 16.3867 24.5443 14.8387 25.2906 14.064C25.2884 14.0663 25.2213 13.7982 25.221 13.7423C25.2186 13.3416 25.3761 12.9938 25.5326 12.6465C25.6874 12.5629 25.8728 12.4766 26.0326 12.3971Z" fill="var(--fill-0, #101010)"/>
<path id="Vector_8" d="M34.9901 26.5395C35.4653 26.5063 37.3353 26.4942 37.4392 27.2846C37.4574 27.4237 37.0827 28.3999 36.9666 28.528C36.737 28.6093 36.1956 28.0496 35.7837 28.1083C35.6916 28.1214 34.7822 28.0763 34.8939 28.4339C35.1756 29.3354 36.8033 29.0685 37.3713 29.8365C37.7303 30.2411 37.9009 30.8337 37.844 31.3973C37.6636 33.185 36.434 33.6745 34.911 33.6241C34.2383 33.5792 33.7973 33.3679 33.2185 33.0382C32.3618 32.5502 33.315 31.5711 33.6709 31.0688C34.0858 31.5246 34.5637 31.9432 35.1947 32.0478C35.5692 32.1099 35.9808 31.767 36.0111 31.4027C35.5197 30.2053 32.9065 30.847 33.0586 28.7159C33.1584 27.3176 33.6159 26.8823 34.9901 26.5395Z" fill="var(--fill-0, #101010)"/>
<path id="Vector_9" d="M49.1687 26.539C49.2206 26.5353 49.2724 26.532 49.3248 26.5292C49.8384 26.5002 51.3209 26.5094 51.5123 27.0175C51.6871 27.482 51.5848 28.658 51.6132 29.215C50.9844 28.6384 50.8132 28.5805 50.0366 28.2324C49.7727 28.2796 49.4166 28.353 49.1765 28.4832C48.3347 28.94 48.1502 30.0686 48.4844 30.9087C48.7919 31.6819 49.288 31.639 49.943 31.9112C50.9656 31.4807 50.6852 31.7481 51.5999 30.8975L51.5889 31.5047C51.6151 32.097 51.6468 32.6488 51.5848 33.2397C49.4514 34.1679 47.1469 33.5373 46.4607 31.161C46.1559 30.1398 46.278 29.0387 46.799 28.1089C47.4163 26.9978 48.0965 26.8467 49.1687 26.539Z" fill="var(--fill-0, #101010)"/>
<path id="Vector_10" d="M36.1534 22.9297C36.1846 22.4793 36.0927 20.637 36.2801 20.4097C36.5419 20.348 37.1495 20.3754 37.4454 20.3792C37.4892 21.4278 37.4004 22.5436 37.437 23.5981C37.4501 23.9768 37.4628 24.4561 37.4437 24.8315L37.3636 24.8841L36.2426 24.864C35.7755 24.3082 34.7129 22.8495 34.3508 22.2381C34.3055 23.0312 34.3361 24.0858 34.3419 24.8963C33.9204 24.869 33.4977 24.8652 33.0759 24.8851C33.0633 24.0287 33.0574 23.1721 33.0582 22.3156C33.0556 21.857 33.0406 20.8168 33.1098 20.3781C33.4752 20.3741 33.8406 20.3818 34.2054 20.4012C34.8224 20.7399 35.7773 22.2786 36.1534 22.9297Z" fill="var(--fill-0, #101010)"/>
<path id="Vector_11" d="M33.1825 14.3246C34.0288 14.3952 35.5013 14.1488 36.1075 14.7428C36.4901 15.1178 36.4185 15.8093 36.3965 16.3155C36.0521 16.8842 35.9604 16.691 35.6677 17.045C35.6847 17.3468 36.4947 18.4139 36.7227 18.8303C36.4053 18.8434 36.1166 18.8388 35.7988 18.8327L35.2362 18.8374C35.0764 18.6093 34.5433 17.6626 34.4414 17.5789L34.3865 17.6293C34.319 17.9748 34.3326 18.4859 34.3277 18.8504C33.8737 18.86 33.5523 18.8175 33.0626 18.8569C33.0605 17.7359 33.0365 15.6538 33.0807 14.4486C33.1202 14.4005 33.1541 14.3591 33.1825 14.3246ZM34.8702 16.3018C35.4177 15.807 35.0507 15.4614 34.4572 15.3924C34.2631 15.5704 34.254 16.1633 34.4502 16.3838C34.626 16.4388 34.7093 16.3989 34.8702 16.3018Z" fill="var(--fill-0, #101010)"/>
<path id="Vector_12" d="M64.9697 20.1115C65.3245 20.135 65.6247 20.1184 65.9804 20.1029C66.074 21.3508 66.0084 23.5941 66.0111 24.8858C65.6251 24.8788 65.1156 24.908 64.7797 24.7423C64.2036 24.9293 63.9507 25.0517 63.3573 24.8924L63.3389 24.8842C63.0952 24.7718 62.9373 24.7136 62.7904 24.4817C62.1318 23.4397 62.3627 22.3589 63.3224 21.6758C63.5978 21.6594 64.0751 21.6274 64.3335 21.6851L64.3657 21.6926C64.6089 21.7475 64.7012 21.8262 64.8981 21.9733C64.865 21.4958 64.781 20.5183 64.9697 20.1115ZM64.2243 24.0447C65.1937 23.7316 64.9646 22.6724 64.2766 22.532C63.4018 22.8762 63.4169 23.6474 64.2243 24.0447Z" fill="var(--fill-0, #101010)"/>
<path id="Vector_13" d="M42.897 14.1489C43.2402 14.1039 43.6484 14.1298 43.9994 14.1416C44.0319 14.766 43.9966 15.6145 43.9956 16.2655C43.9944 17.0431 44.0376 18.1076 43.9692 18.861C43.751 18.8382 43.0413 18.8755 43.0184 18.8137C42.7848 18.1808 42.753 18.9115 41.9135 18.9835L41.8777 18.9863C41.4313 18.8334 41.0276 18.7548 40.7925 18.3683C39.9751 17.0243 40.7698 15.1136 42.5342 15.6652C42.6485 15.7009 42.6995 15.7421 42.814 15.7654C42.9098 15.6261 42.8015 14.4965 42.897 14.1489ZM42.4582 18.0094L42.8298 17.6768C43.0364 17.0801 42.9284 16.48 42.1678 16.5177C41.3863 17.0931 41.7303 18.0764 42.4582 18.0094Z" fill="var(--fill-0, #101010)"/>
<path id="Vector_14" d="M38.9683 21.6728C39.2523 21.6626 39.9054 21.6112 40.1678 21.7315C40.2269 21.7585 40.3424 21.9006 40.4667 21.9672C40.4764 21.8999 40.4849 21.8325 40.4924 21.765C40.6792 21.6106 41.3316 21.6502 41.6006 21.6507C41.5347 22.5244 41.5771 23.9609 41.5862 24.8661C41.256 24.882 40.961 24.863 40.6313 24.846L40.5206 24.7714C40.5083 24.6855 40.5113 24.6696 40.4553 24.6006C39.5523 25.0743 38.6511 25.2431 38.1865 24.1011C37.8775 23.3416 38.0913 21.9584 38.9683 21.6728ZM39.9584 24.0196C40.7588 23.5449 40.6549 22.6854 39.803 22.521C38.9986 23.0273 39.131 23.9672 39.9584 24.0196Z" fill="var(--fill-0, #101010)"/>
<path id="Vector_15" d="M56.6102 21.6811L56.9737 22.0038L57.0375 21.9991C57.2234 21.3517 58.0464 21.7588 58.0422 21.7364C58.2098 22.7211 58.0239 23.8388 58.1138 24.8693C57.7944 24.8665 57.4745 24.8693 57.155 24.8776C57.1119 24.72 57.0908 24.651 57.0247 24.5012C56.8695 24.6191 56.7061 24.7258 56.5359 24.8203C56.4083 24.8906 56.1939 24.9737 56.047 24.9762C54.498 25.0031 54.2813 23.1212 54.9386 22.0903C55.0942 21.8462 55.225 21.7997 55.4765 21.6753C55.8813 21.6604 56.2049 21.6655 56.6102 21.6811ZM56.5322 23.9974C56.7819 23.82 56.9958 23.6981 57.0605 23.3699C57.1468 22.9328 56.7277 22.5888 56.322 22.5269C55.3806 23.0831 55.9461 24.182 56.5322 23.9974Z" fill="var(--fill-0, #101010)"/>
<path id="Vector_16" d="M47.9643 21.6708C48.3714 21.6572 48.919 21.6052 49.2821 21.7655C49.7052 21.9484 50.0385 22.2926 50.2078 22.7219C50.3588 23.1206 50.3432 23.5633 50.1642 23.9503C49.9526 24.4184 49.6176 24.6949 49.148 24.8748C46.6966 25.5537 45.8863 22.4109 47.9643 21.6708ZM48.6051 24.0513C48.8671 23.8045 49.1021 23.6174 49.1099 23.2301C49.1182 22.8174 48.7928 22.7017 48.4632 22.6782C48.287 22.704 48.108 22.8062 48.018 22.9545C47.7486 23.3989 48.1823 23.79 48.4761 23.9728C48.5188 23.9994 48.5619 24.0255 48.6051 24.0513Z" fill="var(--fill-0, #101010)"/>
<path id="Vector_17" d="M67.6194 21.6714C69.2369 21.6179 69.8524 21.845 69.8804 23.5867L67.5914 23.5853C68.1248 24.783 68.5264 23.6439 69.2796 23.9448C69.4292 24.0367 69.6633 24.1387 69.8276 24.2163C69.213 24.9847 68.228 25.2082 67.3303 24.7779C66.0359 24.157 66.2177 22.0959 67.6194 21.6714ZM68.4001 22.8517C68.559 22.8408 68.5236 22.8683 68.6053 22.7786C68.5397 22.4227 68.3102 22.3829 67.9939 22.4C67.8691 22.4988 67.7874 22.5467 67.7268 22.6937C67.7929 22.9162 68.2046 22.856 68.4001 22.8517Z" fill="var(--fill-0, #101010)"/>
<path id="Vector_18" d="M38.1773 15.6257C38.9532 15.4395 39.8941 15.8961 40.0728 16.6954C40.1479 17.0317 40.1378 17.2194 40.1251 17.5569C39.3632 17.5131 38.5445 17.545 37.7823 17.5687C38.2965 18.174 38.5146 18.3026 39.2029 17.787C39.3987 17.8705 39.5957 17.9512 39.7939 18.0289C39.8928 18.0768 39.9043 18.0895 39.98 18.1698C40.0088 18.8886 37.9835 19.255 37.2949 18.5294C36.398 17.5843 36.615 15.7183 38.1773 15.6257ZM38.7296 16.8025C38.8849 16.8185 38.8766 16.8456 38.9757 16.768C38.8974 16.5093 38.5431 16.3905 38.2943 16.3879C38.1445 16.4576 38.0049 16.5022 37.9189 16.6408L37.9351 16.718C38.1695 16.8427 38.4638 16.8103 38.7296 16.8025Z" fill="var(--fill-0, #101010)"/>
<path id="Vector_19" d="M50.7646 21.6704C51.0854 21.6529 51.4508 21.6649 51.7757 21.6687C51.7923 21.8392 51.7702 21.9794 51.8574 22.0969C52.3132 21.6892 53.3216 21.3694 53.7778 21.8946C54.2616 22.4519 54.078 24.0894 54.0835 24.881C53.7099 24.8699 53.3546 24.8763 52.981 24.8832L52.9732 24.2459C52.9673 23.8598 53.0595 22.8527 52.814 22.6919C51.667 21.9405 51.9575 24.6609 51.9635 24.8824L50.7701 24.8704C50.7719 23.9116 50.7242 22.5845 50.7646 21.6704Z" fill="var(--fill-0, #101010)"/>
<path id="Vector_20" d="M43.052 21.6763C43.4705 21.6439 44.0145 21.6535 44.4295 21.6828C44.4922 21.9417 44.5739 22.5821 44.454 22.8141L44.3813 22.8306C44.2289 22.7236 43.9422 22.4803 43.7479 22.5614C43.2437 22.772 42.9948 23.5946 43.5515 23.8934C43.8075 24.0308 44.1758 23.9028 44.4441 23.7946C44.5308 23.874 44.5037 23.8436 44.5208 23.9934L44.5262 24.8258C41.7396 25.5159 41.3462 22.5806 43.052 21.6763Z" fill="var(--fill-0, #101010)"/>
<path id="Vector_21" d="M59.5298 20.1304C59.6772 20.1076 59.7795 20.0798 59.9223 20.1236C60.0306 20.2624 60.0521 20.3885 60.0324 20.5631C59.9755 21.0657 60.1357 24.5555 59.947 24.8337C59.7524 24.9031 59.4155 24.8765 59.1975 24.8722C59.0695 24.8796 59.0254 24.8903 58.9129 24.8256C58.8253 24.7045 58.8602 20.6263 58.8501 20.1414C59.0589 20.1273 59.3169 20.1322 59.5298 20.1304Z" fill="var(--fill-0, #101010)"/>
<path id="Vector_22" d="M45.2943 21.6506C45.6076 21.6533 45.9218 21.6594 46.2349 21.6483C46.3221 21.8922 46.2707 24.4325 46.2693 24.9011C45.914 24.8637 45.518 24.878 45.1575 24.8825C45.2014 23.9356 45.1249 22.9086 45.167 21.9537C45.1758 21.755 45.1734 21.7612 45.2943 21.6506Z" fill="var(--fill-0, #101010)"/>
<path id="Vector_23" d="M45.4443 21.4449C45.2375 21.3083 45.0404 21.1642 44.988 20.8903C44.8316 20.0728 46.6544 19.9992 46.3074 20.9459C46.2684 21.0519 46.2606 21.2053 46.1922 21.304C46.1564 21.3647 46.0205 21.4147 45.9861 21.4523C45.7397 21.5432 45.6913 21.5177 45.4443 21.4449Z" fill="var(--fill-0, #101010)"/>
<path id="Vector_24" d="M45.4443 21.4449C45.6913 21.5177 45.7397 21.5432 45.9861 21.4523L46.1064 21.4949C46.0807 21.5664 46.0963 21.5329 46.0279 21.5899C46.0967 21.6098 46.166 21.6292 46.2349 21.6483C45.9218 21.6594 45.6076 21.6533 45.2943 21.6506L45.4125 21.5932L45.3312 21.5162L45.4443 21.4449Z" fill="var(--fill-0, #101010)"/>
</g>
</svg>
