<svg preserveAspectRatio="none" width="100%" height="100%" overflow="visible" style="display: block;" viewBox="0 0 82.0664 47" fill="none" xmlns="http://www.w3.org/2000/svg">
<g id="image 1 [Vectorized]">
<path id="Vector" d="M15.0355 14.277C20.1164 13.7993 24.6232 17.5293 25.1039 22.6099C25.5846 27.6905 21.8573 32.1996 16.777 32.6834C11.6924 33.1675 7.17865 29.4364 6.69755 24.3515C6.21639 19.2665 9.95023 14.7551 15.0355 14.277ZM16.5067 32.4633C21.4773 32.1229 25.2239 27.8061 24.8612 22.837C24.4986 17.8678 20.1649 14.1407 15.1975 14.5256C10.2615 14.9081 6.56297 19.2084 6.92332 24.1462C7.28371 29.0839 11.5674 32.8016 16.5067 32.4633Z" fill="var(--fill-0, #101010)"/>
<path id="Vector_2" d="M15.1492 17.3356C18.5524 16.9235 21.6445 19.3503 22.0531 22.7538C22.4618 26.1574 20.0319 29.2471 16.6279 29.6523C13.2288 30.0569 10.1445 27.6312 9.73648 24.2325C9.32849 20.8338 11.751 17.7471 15.1492 17.3356ZM15.8809 29.4632C19.1725 29.4697 21.8455 26.8053 21.8498 23.5137C21.854 20.2221 19.1878 17.5509 15.8962 17.5489C12.6077 17.5469 9.93963 20.2099 9.9354 23.4984C9.93118 26.7869 12.5924 29.4568 15.8809 29.4632Z" fill="var(--fill-0, #101010)"/>
<path id="Vector_3" d="M13.9966 19.4715C14.3097 19.2585 15.2589 19.0775 15.6499 19.0491C17.0311 18.9491 18.4017 19.465 19.3497 20.4837C19.9889 21.1704 20.217 21.7254 20.56 22.5806C20.0879 22.5885 18.841 22.5687 18.4205 22.6115C17.79 21.2734 17.1811 20.2312 15.612 19.9024C14.9385 19.7613 14.4743 19.8648 13.8209 20.031C13.9221 19.8911 13.9618 19.9418 14.0941 19.6947C14.0713 19.5251 14.1011 19.5797 13.9966 19.4715Z" fill="var(--fill-0, #101010)"/>
<path id="Vector_4" d="M16.3568 23.1744C16.8869 23.2164 18.2433 22.9543 18.3638 23.7303C18.4195 24.0893 18.2363 24.1761 18.0415 24.4241C18.1391 24.7326 18.4921 25.3695 18.3351 25.7044C18.1165 25.8 17.9197 25.7642 17.7914 25.5548C17.7469 25.2699 17.7361 25.0971 17.7245 24.8099C17.4808 24.7554 17.1773 24.7142 16.9262 24.6735C16.9284 25.0195 17.0012 25.5611 16.7227 25.7916C16.5397 25.7867 16.5933 25.7887 16.4234 25.689C16.2905 25.4737 16.342 23.5431 16.3568 23.1744ZM16.8854 24.3036C17.1639 24.2834 17.4376 24.2739 17.7077 24.2035C17.7597 24.0302 17.778 23.9875 17.7715 23.8076C17.6095 23.5538 17.1957 23.603 16.8872 23.5663C16.8893 23.8016 16.8984 24.0714 16.8854 24.3036Z" fill="var(--fill-0, #101010)"/>
<path id="Vector_5" d="M14.2771 23.1703C14.718 23.1871 15.9822 23.0395 16.0953 23.5087C15.891 23.66 15.1067 23.627 14.8316 23.5873C14.856 23.8495 14.854 23.9514 14.8319 24.2143C15.1938 24.1892 15.8047 24.0815 16.0145 24.4387L15.9705 24.5224C15.5621 24.7393 15.1648 24.5466 14.8513 24.6553L14.8543 25.3235C15.1646 25.3109 16.0438 25.1965 16.1367 25.5637C15.8979 25.8381 14.6293 25.8 14.308 25.6712C14.2087 25.4547 14.229 23.4342 14.2771 23.1703Z" fill="var(--fill-0, #101010)"/>
<path id="Vector_6" d="M12.78 23.1881C13.0602 23.1637 13.3458 23.1841 13.5818 23.3573C13.7902 23.5102 14.0521 23.7795 13.8374 24.0362C13.391 24.1199 13.2206 23.6007 12.7014 23.6181C12.194 23.81 12.1503 25.5814 13.0157 25.4002C13.1562 25.3209 13.2404 25.1154 13.3194 24.9655C13.4562 24.9128 13.6243 24.8863 13.7691 24.9189C14.1846 25.2384 13.4818 25.7818 13.1207 25.8157C12.564 25.868 12.361 25.7134 11.944 25.4097C11.7258 24.6735 11.7476 24.2956 11.9886 23.5779C12.2994 23.3029 12.3722 23.2624 12.78 23.1881Z" fill="var(--fill-0, #101010)"/>
<path id="Vector_7" d="M19.4695 23.1529C19.841 23.154 20.4091 23.1011 20.6817 23.3963L20.6318 23.516C20.3169 23.6854 20.1302 23.6411 19.7738 23.6225C19.7783 23.6743 19.7819 23.7262 19.7844 23.7781C19.8043 24.2291 19.8228 25.1945 19.7533 25.6686C19.7125 25.713 19.6777 25.7508 19.6489 25.7819C19.5313 25.7746 19.4586 25.7842 19.3687 25.712C19.1838 25.4089 19.2819 24.0308 19.2941 23.619C19.0401 23.6268 18.5961 23.6435 18.4162 23.4291L18.4491 23.3475C18.7857 23.123 19.0599 23.1632 19.4695 23.1529Z" fill="var(--fill-0, #101010)"/>
<path id="Vector_8" d="M13.8209 20.031C12.1056 20.8222 11.4181 22.5244 11.3656 24.3347C11.3587 24.5742 11.7112 25.2535 11.5459 25.4912C11.5068 25.4594 11.4875 25.4576 11.4711 25.4099C10.7378 23.2814 11.8214 20.3421 13.9966 19.4715C14.1011 19.5797 14.0713 19.5251 14.0941 19.6947C13.9618 19.9418 13.9221 19.8911 13.8209 20.031Z" fill="var(--fill-0, #101010)"/>
<path id="Vector_9" d="M7.38625 25.4793C5.62954 17.7536 13.9148 11.9758 20.5609 16.0233C24.6533 18.5155 25.9007 24.0818 23.3717 28.1249C22.3156 29.8132 19.6159 32.0421 17.5472 32.0976L17.5212 32.0215C17.7939 31.9942 18.1741 31.8548 18.4441 31.7731C23.6507 30.1988 26.1361 24.0636 23.4797 19.3279C19.6309 12.4663 9.74511 13.7526 7.52996 21.1867C7.32314 21.8807 7.13198 24.6097 7.46754 25.2137L7.38625 25.4793Z" fill="var(--fill-0, #101010)"/>
<path id="Vector_10" d="M15.1971 17.1076C15.2639 17.0208 15.3544 16.9854 15.4633 16.9792C20.577 16.6901 23.993 21.9794 21.6802 26.502C20.8629 28.1002 19.48 29.2294 17.74 29.7132L17.5319 29.7275L17.5047 29.6898C17.8607 29.5129 18.3 29.4598 18.67 29.2751C23.8594 26.6851 23.3505 19.2236 17.8142 17.3995C16.7496 17.0487 16.2304 17.1354 15.1971 17.1076Z" fill="var(--fill-0, #101010)"/>
<path id="Vector_11" d="M14.726 29.8986C9.57111 28.9296 7.56677 22.5925 11.2859 18.8908C12.3369 17.8449 13.6981 17.112 15.1971 17.1076C14.9595 17.3111 14.1521 17.331 13.7891 17.4495C12.2553 17.9501 10.9294 19.2027 10.206 20.6214C9.47509 22.0547 9.31151 23.9112 9.81006 25.4447C10.3568 27.1264 11.6487 28.6068 13.2781 29.3143C13.7434 29.5163 14.3024 29.5908 14.7433 29.8147L14.726 29.8986Z" fill="var(--fill-0, #101010)"/>
<path id="Vector_12" d="M9.88281 18.116L10.0504 18.1425C10.2258 18.3481 10.5964 18.4855 10.6365 18.7226C10.5517 18.8476 10.5775 18.8107 10.4157 18.8727C10.2185 18.7978 10.2968 18.7271 10.0849 18.7262L10.0169 18.8015C10.027 19.0531 10.2113 19.0113 10.2155 19.1155C10.2329 19.5517 9.75089 19.4598 9.60847 19.4747C9.63124 19.6513 9.85508 19.6178 9.82713 19.8479C9.67736 20.0111 9.72547 20.0617 9.6194 20.1913C9.49382 20.1992 9.45517 20.191 9.35552 20.2636C9.20571 20.5308 9.54867 21.4294 8.75715 21.2955C8.58705 21.2666 8.507 21.2228 8.41029 21.0767C8.35714 20.8777 8.3867 20.6141 8.6156 20.5552L8.66856 20.6202C8.63322 20.7276 8.60467 20.7843 8.55382 20.8855C8.67375 20.9773 8.82058 21.1031 8.96777 21.088C9.36392 20.7207 8.68311 20.3143 8.72401 19.917C8.98728 19.723 9.31266 20.053 9.57267 19.9964L9.60306 19.9465C9.44374 19.6755 9.06008 19.5811 9.00532 19.3761C9.09693 19.1535 9.33501 19.021 9.57212 19.0846C9.71252 19.1984 9.81937 19.3038 9.9869 19.2941L10.0303 19.201C9.93619 19.011 9.62821 18.9141 9.47463 18.6998C9.65598 18.4363 9.87051 18.6604 10.1184 18.5211L10.1156 18.4385L9.93279 18.3292L9.88281 18.116Z" fill="var(--fill-0, #101010)"/>
<path id="Vector_13" d="M23.7915 23.5352L23.8623 23.6166C23.9145 23.8088 23.8746 24.0244 23.8526 24.225C23.6628 24.2061 23.3065 24.1447 23.1631 24.2531C23.1285 24.402 23.1272 24.3391 23.1888 24.4993C23.2731 24.5535 23.9087 24.6456 24.111 24.6973C23.6087 24.8407 23.6185 24.8025 23.1185 24.841C22.9998 24.9217 22.9806 24.9029 22.9591 25.0142C23.0868 25.1493 23.3868 25.1721 23.6146 25.2981C23.6506 25.4406 23.6054 25.6174 23.5798 25.768C23.3069 26.0678 22.9468 25.6999 22.7436 25.9422C22.8054 26.3751 23.1479 26.1556 23.347 26.4623L23.3248 26.543C23.033 26.641 22.7253 26.2698 22.4549 26.5317C22.4836 26.6823 22.5041 26.6564 22.6503 26.7819C22.7978 26.8006 22.9768 26.8376 23.067 26.9639L23.0346 27.0392C22.7693 27.1085 22.4957 27.0469 22.3256 26.8235C22.2298 26.5447 22.5567 25.9741 22.6904 25.5881C22.8457 25.5298 23.1083 25.6408 23.3632 25.6178L23.4146 25.5425L23.3859 25.4726C23.2404 25.3884 23.0819 25.3526 22.9198 25.3066C22.7438 25.0761 22.9846 24.5663 22.9926 24.2732C22.9992 24.0327 22.858 23.7677 23.0467 23.6106C23.111 23.6632 23.1679 23.8636 23.2033 23.9583C23.2676 23.8264 23.3215 23.725 23.3953 23.5983C23.5629 23.6333 23.4846 23.8849 23.6301 23.9546C23.6868 23.8159 23.7406 23.6761 23.7915 23.5352Z" fill="var(--fill-0, #101010)"/>
<path id="Vector_14" d="M11.1856 17.0068C11.2584 17.0253 11.2573 17.0329 11.3203 17.0746C11.2871 17.2841 11.141 17.2824 11.0169 17.5312C11.0327 17.5674 11.2828 17.7612 11.3351 17.7867L11.427 17.752C11.3455 17.6515 11.3106 17.6216 11.297 17.4917C11.3827 17.3453 11.3368 17.383 11.4669 17.3131C11.605 17.3871 11.6301 17.4314 11.7223 17.5518C11.7783 17.9493 11.2728 17.8611 11.0702 18.331C10.9245 18.4328 10.8607 18.5134 10.7047 18.5254C10.5751 18.2402 10.2469 18.1651 10.2281 17.8576C10.3143 17.7467 10.3809 17.6398 10.5109 17.5859C10.6133 17.7161 10.4939 17.811 10.5676 18.0181C10.9492 17.7235 10.7102 17.4683 11.1856 17.0068Z" fill="var(--fill-0, #101010)"/>
<path id="Vector_15" d="M21.2345 18.6474C21.3798 18.5164 21.6373 18.2491 21.8104 18.2103C22.056 18.2553 22.0887 18.3891 22.2208 18.5973C22.0441 18.7167 21.8612 18.8352 21.6957 18.9691C21.658 19.1922 21.7898 19.3618 21.9998 19.4237C22.1761 19.2702 21.9978 19.0096 22.2405 18.8356C22.3795 18.868 22.5251 19.0381 22.6346 19.1451L22.6669 19.2541C22.5796 19.3329 22.6212 19.3113 22.4816 19.315C22.3854 19.2291 22.3742 19.2111 22.3089 19.0994L22.2405 19.1346C22.2488 19.2901 22.2855 19.5395 22.2033 19.6563C21.8623 19.7662 21.4482 19.2305 21.4618 18.968L21.6443 18.8498L21.6205 18.7722C21.4313 18.7236 21.3443 18.8279 21.1845 18.7266L21.2345 18.6474Z" fill="var(--fill-0, #101010)"/>
<path id="Vector_16" d="M8.89149 28.6158C9.97529 29.812 11.0367 30.7582 12.5055 31.4659C12.7754 31.5959 14.4892 32.0698 14.5199 32.1163C14.3175 32.2103 13.0675 31.8122 12.8217 31.7175C11.1974 31.0916 9.96579 30.0452 8.85395 28.7429L8.89149 28.6158Z" fill="var(--fill-0, #101010)"/>
<path id="Vector_17" d="M16.2352 15.4726C16.9418 15.4817 17.1252 15.936 16.6622 16.4269C15.8856 16.4428 15.8715 16.0364 16.2352 15.4726ZM16.5585 16.2419C16.6895 16.035 16.6737 16.1135 16.6861 15.8873C16.6263 15.7452 16.5695 15.6866 16.4251 15.6213C16.3417 15.7462 16.2027 15.9152 16.2156 16.0568C16.3124 16.1809 16.3921 16.1989 16.5585 16.2419Z" fill="var(--fill-0, #101010)"/>
<path id="Vector_18" d="M8.30537 24.2918C8.38252 24.297 8.6004 24.2907 8.65594 24.3169C9.03245 24.495 8.96782 25.0269 8.61752 25.1802C8.51508 25.1874 8.40377 25.1855 8.30037 25.186C7.90894 25.0271 7.89926 24.5323 8.30537 24.2918ZM8.53504 25.0151C8.64047 24.8898 8.68132 24.8579 8.69775 24.6945C8.64603 24.5849 8.6262 24.5465 8.48304 24.4906C8.37224 24.572 8.26172 24.6319 8.23253 24.7656C8.28614 24.9381 8.35755 24.961 8.53504 25.0151Z" fill="var(--fill-0, #101010)"/>
<path id="Vector_19" d="M13.4297 15.8055C13.6406 15.8261 13.6466 15.8786 13.7209 16.0573C13.8208 16.2976 14.0037 16.3707 13.9114 16.6438L13.8445 16.6606L13.6766 16.4556L13.6119 16.4494L13.6089 16.6939C13.5601 16.7559 13.2787 16.8036 13.1172 16.9328L13.0829 16.9608C12.9161 16.8142 12.7624 16.2697 12.8867 16.0702C13.13 16.0869 13.2565 16.4304 13.5436 16.3845L13.5608 16.3368C13.3662 16.0889 13.331 16.0955 13.4297 15.8055Z" fill="var(--fill-0, #101010)"/>
<path id="Vector_20" d="M22.1237 26.8233C22.1709 26.8596 22.1928 26.8934 22.2307 26.9396C22.3122 27.5487 22.6875 27.317 22.8279 27.6557L22.7905 27.7212C22.5793 27.7404 22.2727 27.4706 22.0989 27.3363L21.5459 27.9871C21.7761 27.9391 22.0741 27.8249 22.2725 27.876C22.3352 28.0663 22.354 28.2509 22.2465 28.4305C22.1128 28.4919 22.1734 28.4833 22.0078 28.4423C21.9861 28.3031 22.0899 28.341 22.178 28.139C22.0097 28.0225 21.7053 28.1876 21.4405 28.0097C21.6755 27.6255 21.9301 27.2281 22.1237 26.8233Z" fill="var(--fill-0, #101010)"/>
<path id="Vector_21" d="M9.41763 26.5249L9.49359 26.575C9.5181 26.8045 9.31546 26.8063 9.32128 27.0564C9.42584 27.1099 9.52778 27.0228 9.71087 26.9867L9.76301 27.0379C9.6524 27.2238 9.59254 27.3187 9.51888 27.5203C9.66818 27.6487 9.71716 27.4179 9.96345 27.4412L9.93063 27.5432C9.80657 27.6925 9.7089 27.7115 9.52356 27.7777C9.34029 27.7053 9.42134 27.8679 9.06425 27.7331L9.05517 27.6678C9.17547 27.5557 9.22426 27.5074 9.3261 27.3777C9.34478 27.2373 9.35621 27.2883 9.29682 27.1763C9.14357 27.2832 9.01138 27.4325 8.81906 27.3222C8.8276 27.0929 9.25115 26.7023 9.41763 26.5249Z" fill="var(--fill-0, #101010)"/>
<path id="Vector_22" d="M8.2771 21.8138C8.51898 21.9618 8.33305 22.0264 8.51737 22.1596C8.56327 22.1929 8.8242 22.1677 8.93505 22.2869C8.88002 22.454 8.83531 22.3182 8.63685 22.4494C8.65723 22.5882 8.68027 22.7083 8.70849 22.8455L8.65718 22.9074C8.49217 22.8754 8.52114 22.8577 8.38092 22.7103C8.26002 22.7855 8.1483 22.8783 8.01387 22.8637C8.09951 22.5631 8.10089 22.4509 7.81242 22.36C8.02823 22.0539 8.01832 22.3748 8.2771 21.8138Z" fill="var(--fill-0, #101010)"/>
<path id="Vector_23" d="M8.88699 25.2909C8.95102 25.288 8.97365 25.3087 9.03699 25.337C9.15793 25.4807 9.44594 26.2737 9.35387 26.4356C9.00647 26.348 8.87221 26.4372 8.53417 26.5615L8.49686 26.5225C8.62854 26.2563 8.74719 26.25 9.01845 26.1751C9.12153 25.998 9.12135 25.6237 8.88181 25.5169C8.74411 25.5444 8.76665 25.5189 8.67981 25.6016C8.72552 25.6891 8.76366 25.7542 8.81631 25.8378L8.74292 25.8535C8.37995 25.6096 8.27347 25.6902 7.84932 25.6934C8.11517 25.5506 8.59173 25.3963 8.88699 25.2909Z" fill="var(--fill-0, #101010)"/>
<path id="Vector_24" d="M19.4055 16.2201L19.4793 16.2565C19.6533 16.4575 19.6396 16.8419 19.7915 16.9179C19.8522 16.7792 19.8834 16.686 19.9873 16.5748L20.0272 16.603C20.1069 16.8677 19.8125 17.1115 19.7125 17.507C19.2013 17.3001 19.5568 16.9793 19.4132 16.7984C19.3248 16.9004 19.2393 17.005 19.157 17.1119L19.0722 17.1079C19.0006 16.8903 19.2771 16.5301 19.4055 16.2201Z" fill="var(--fill-0, #101010)"/>
<path id="Vector_25" d="M23.554 21.8214C23.6746 21.9191 23.6392 21.9813 23.6364 22.1242C23.7363 22.2303 23.8289 22.184 24.0253 22.2391L24.0438 22.3135L23.8645 22.4043C23.7478 22.578 23.7758 22.6331 23.8086 22.8578C23.6763 22.8629 23.6414 22.8022 23.5102 22.7115C23.3394 22.81 23.3056 22.8381 23.1099 22.8399L23.0821 22.7824C23.1532 22.6881 23.1862 22.6375 23.2441 22.5345C23.1766 22.375 23.0664 22.4751 22.9442 22.3052L22.9956 22.2269C23.1175 22.1958 23.2233 22.1727 23.3461 22.1483C23.4213 22.0372 23.4846 21.9357 23.554 21.8214Z" fill="var(--fill-0, #101010)"/>
<path id="Vector_26" d="M12.7243 29.7986C13.0968 29.9332 12.8079 30.1674 13.035 30.3961C13.1368 30.3785 13.2678 30.1986 13.3684 30.1006L13.4276 30.1371C13.4273 30.3078 13.0599 30.8633 12.944 31.0204C12.7127 30.8029 12.9996 30.6217 12.8151 30.3219C12.6866 30.3066 12.7393 30.2954 12.6161 30.381L12.6058 30.6024C12.4724 30.6815 12.512 30.686 12.3887 30.6698C12.333 30.4344 12.6017 30.0981 12.7092 29.8358L12.7243 29.7986Z" fill="var(--fill-0, #101010)"/>
<path id="Vector_27" d="M17.4755 30.3775C17.5956 30.3774 17.8245 30.3906 17.8894 30.5107C17.9952 30.7064 18.1121 30.9282 18.0572 31.1572C17.9021 31.1196 17.9295 31.1064 17.7998 30.9721C17.5213 31.1172 17.7429 31.2076 17.5708 31.3592C17.4689 31.1572 17.2941 30.715 17.3103 30.4945L17.4755 30.3775Z" fill="var(--fill-0, #101010)"/>
<path id="Vector_28" d="M19.0742 29.7598L19.209 29.7848C19.3688 29.9238 19.5694 30.4901 19.5251 30.6501C19.3405 30.5897 18.9271 30.3737 18.8063 30.3921C18.8414 30.5361 18.9896 30.6854 19.0903 30.8051L18.9367 30.9079C18.7201 30.8898 18.6208 30.2691 18.6329 30.0948C18.8162 29.9446 19.0263 30.3097 19.2459 30.3083C19.2612 30.0989 19.0876 30.0343 19.0742 29.7598Z" fill="var(--fill-0, #101010)"/>
<path id="Vector_29" d="M18.5586 15.8532C18.587 15.8688 18.6349 15.9102 18.6624 15.9321C18.6997 16.2325 18.4165 16.4709 18.5701 16.71C18.8487 16.7387 18.744 16.2812 18.9705 16.1148L19.0457 16.1314L19.1231 16.2539C19.0367 16.5788 18.9466 17.0155 18.4989 16.8648C18.1724 16.5753 18.3714 16.1604 18.5586 15.8532Z" fill="var(--fill-0, #101010)"/>
<path id="Vector_30" d="M20.6535 18.1868C20.9578 17.9904 21.2001 17.6083 21.5276 17.7349C21.6194 17.8419 21.6492 17.8666 21.6718 18.0111C21.5385 18.0859 21.5459 17.9638 21.3273 17.9924C21.3073 18.0933 21.3823 18.2214 21.4271 18.3352C21.2692 18.4003 21.3174 18.2139 21.0211 18.1811L20.9869 18.2388C21.0269 18.3963 21.1355 18.5163 21.2345 18.6474L21.1845 18.7266C20.9487 18.5854 20.8257 18.3977 20.6535 18.1868Z" fill="var(--fill-0, #101010)"/>
<path id="Vector_31" d="M19.9415 29.3162L20.01 29.4015C19.9577 29.6796 19.801 29.5744 19.761 29.8441C19.8404 29.9748 19.9359 30.1338 20.1023 30.117C20.158 29.866 19.9977 29.8987 20.0692 29.7152C20.1936 29.695 20.2311 29.7207 20.348 29.7684L20.3882 29.7851C20.39 30.0335 20.3839 30.1492 20.1602 30.2979C20.0186 30.3314 19.9626 30.3123 19.8373 30.2469L19.8147 30.2349C19.6458 30.1467 19.5912 29.9424 19.5183 29.7602C19.6404 29.5948 19.7598 29.4072 19.9415 29.3162Z" fill="var(--fill-0, #101010)"/>
<path id="Vector_32" d="M10.1173 27.7658C10.2953 27.8054 10.242 27.7686 10.3411 27.889C10.3446 28.1154 10.0645 28.5673 9.86146 28.6557C9.79844 28.5542 9.81341 28.5978 9.84613 28.4467C9.88772 28.3456 9.93931 28.2503 9.93573 28.1442C9.73607 28.2242 9.62711 28.2895 9.43502 28.2168L9.39986 28.1344C9.43713 28.0903 9.99324 27.8349 10.1173 27.7658Z" fill="var(--fill-0, #101010)"/>
<path id="Vector_33" d="M12.1458 16.3237L12.2207 16.3419C12.3357 16.506 12.1405 16.4205 12.1367 16.6896C12.2748 16.7176 12.3704 16.7312 12.4992 16.7943C12.4362 16.8549 12.3765 16.8745 12.297 16.9104L12.2698 16.9989L12.3264 17.0879C12.4454 17.0936 12.5056 17.0851 12.6216 17.0724L12.6987 17.1811C12.5975 17.2448 12.2553 17.4331 12.1516 17.4109C12.1322 17.1318 11.963 17.0288 11.8627 16.711C11.8924 16.5323 12.0019 16.4724 12.1458 16.3237Z" fill="var(--fill-0, #101010)"/>
<path id="Vector_34" d="M10.6043 28.3486C11.3296 28.5436 10.8683 29.0031 10.4465 29.2129L10.3764 29.1788C10.3814 29.0571 10.4679 28.9732 10.546 28.8704C10.6614 28.8342 10.6778 28.8296 10.7625 28.7443L10.7574 28.6706C10.5373 28.6812 10.3918 28.8815 10.1011 28.9807L10.0839 28.9272C10.1994 28.7082 10.4217 28.5221 10.6043 28.3486Z" fill="var(--fill-0, #101010)"/>
<path id="Vector_35" d="M13.7048 30.315C13.8961 30.2984 14.047 30.2657 14.214 30.3584L14.2127 30.407C14.0164 30.4547 13.827 30.4906 13.6489 30.5866C13.5678 30.7385 13.5841 30.6703 13.5925 30.847C13.7026 30.9905 13.6441 30.9473 13.8136 31.0107L13.8961 30.9694C13.8933 30.8927 13.8885 30.8162 13.8815 30.7397L14.0155 30.6386C14.1477 30.6998 14.1021 30.6597 14.1773 30.8189C14.1626 30.958 14.1581 30.974 14.0662 31.0789C13.3889 31.4279 13.1808 30.7597 13.7048 30.315Z" fill="var(--fill-0, #101010)"/>
<path id="Vector_36" d="M7.98353 23.5268L8.06339 23.6C8.06876 23.7122 8.07689 23.7423 8.10397 23.8523C8.29821 23.8922 8.42691 23.5646 8.71506 23.5976C8.84945 23.7705 8.84385 24.0355 8.70689 24.2038C8.66916 24.0048 8.69941 23.9917 8.58259 23.8643C8.39749 23.9267 8.3179 24.1589 8.0929 24.2632C7.90279 24.1752 7.88365 23.7235 7.98353 23.5268Z" fill="var(--fill-0, #101010)"/>
<path id="Vector_37" d="M20.6666 17.0043L20.7237 17.056C20.7634 17.1913 20.6501 17.4205 20.6109 17.6198C20.7247 17.7267 20.8064 17.4239 21.0931 17.4452L21.1403 17.555C21.0639 17.636 21.0327 17.6522 20.9385 17.7138C20.759 17.8466 20.5202 18.0972 20.3332 17.9034C20.296 17.5849 20.5101 17.284 20.6666 17.0043Z" fill="var(--fill-0, #101010)"/>
<path id="Vector_38" d="M14.2077 15.5938L14.4013 15.6255C14.4544 15.772 14.2427 15.7176 14.1448 15.9742L14.2013 16.022C14.2904 16.0005 14.356 15.9788 14.443 15.9495L14.5034 16.0151C14.4542 16.2626 14.3848 16.0608 14.2276 16.2659L14.3189 16.2889C14.4178 16.3282 14.4467 16.3482 14.5371 16.4059C14.5231 16.5414 14.5476 16.4975 14.4575 16.5787C14.2632 16.5823 14.0974 16.4297 14.018 16.266C13.8489 15.9177 13.8916 15.7555 14.2077 15.5938Z" fill="var(--fill-0, #101010)"/>
<path id="Vector_39" d="M23.0034 19.8067C23.1167 19.9174 23.2593 20.1211 23.2394 20.2786C23.0459 20.4075 22.7831 20.335 22.5015 20.4863C22.3442 20.5452 22.3982 20.5499 22.2731 20.5063C22.3324 20.1631 22.7995 20.1692 23.0034 19.8067Z" fill="var(--fill-0, #101010)"/>
<path id="Vector_40" d="M15.9593 30.5941C16.0835 30.5785 16.1711 30.5553 16.2893 30.5925C16.1515 30.8059 16.0164 30.9345 16.0994 31.1892C16.2577 31.3214 16.364 31.2757 16.567 31.3623C16.3041 31.5177 16.1381 31.4632 15.8418 31.4265C15.8502 31.1845 15.8028 30.867 15.8618 30.647L15.9593 30.5941Z" fill="var(--fill-0, #101010)"/>
<path id="Vector_41" d="M11.2568 28.9438C11.3926 28.9879 11.4342 28.9971 11.5542 29.0844L11.5517 29.1531C11.426 29.2076 11.3317 29.2424 11.2033 29.2863C11.2644 29.3495 11.315 29.3823 11.3864 29.4338L11.3811 29.5L11.2914 29.526C11.2354 29.4686 11.192 29.4276 11.132 29.3745C11.0024 29.4097 11.0496 29.3869 10.9459 29.524C11.0612 29.6273 11.1169 29.6431 11.1606 29.774C10.9578 29.8227 10.7411 29.6873 10.6817 29.4888C10.7429 29.3724 11.1327 29.0521 11.2568 28.9438Z" fill="var(--fill-0, #101010)"/>
<path id="Vector_42" d="M23.1475 20.5338C23.2481 20.5395 23.2906 20.5572 23.3877 20.587L23.3926 20.6538L23.2289 20.8349L23.2361 20.9134C23.395 20.9687 23.4452 20.983 23.5889 21.0749L23.5498 21.1238C23.4293 21.1558 23.3125 21.1317 23.1863 21.1182C22.9628 21.1093 22.9037 21.1814 22.6425 21.1078C22.6437 21.0598 23.0255 20.6982 23.1475 20.5338Z" fill="var(--fill-0, #101010)"/>
<path id="Vector_43" d="M16.7777 30.4771C16.9358 30.4781 17.0057 30.4518 17.1255 30.5231C17.1096 30.6868 16.9531 30.5767 16.8282 30.7733C16.9286 30.9081 17.0274 30.8026 17.2076 30.9372L17.1905 30.9997C17.0614 31.006 17.0111 31.0057 16.8828 31.0432C16.8456 31.1497 16.8528 31.109 16.9071 31.2418C17.0386 31.2771 17.1544 31.2828 17.235 31.368C17.0825 31.438 16.9038 31.4556 16.7459 31.3918C16.6538 31.2184 16.7072 31.0654 16.714 30.8342C16.6665 30.7498 16.6283 30.7037 16.6246 30.6105L16.7777 30.4771Z" fill="var(--fill-0, #101010)"/>
<path id="Vector_44" d="M12.0909 29.4745C12.364 29.5626 12.3022 29.6747 12.4464 29.7987C12.301 29.709 12.2697 29.7221 12.1241 29.7696L12.091 29.8423C12.18 29.9236 12.1987 29.9381 12.2654 30.0367L12.2284 30.0968C12.0052 30.045 11.9789 30.0165 11.8563 30.2193C11.9823 30.3068 12.0391 30.3147 12.0938 30.4377C11.929 30.4638 11.7551 30.3538 11.6485 30.2352C11.6449 30.2062 11.6413 30.1772 11.6377 30.1481C11.6475 30.1428 11.7619 30.0819 11.7619 30.0818C11.8756 29.9088 12.0004 29.6523 12.0909 29.4745Z" fill="var(--fill-0, #101010)"/>
<path id="Vector_45" d="M17.078 15.5386C17.2772 15.5584 17.3267 15.5695 17.4448 15.6999C17.5168 15.9453 17.2948 16.1899 17.1729 16.4489C17.1314 16.4698 17.0852 16.4622 17.0339 16.4622C16.9967 16.3868 17.0906 15.8178 17.078 15.5386Z" fill="var(--fill-0, #101010)"/>
<path id="Vector_46" d="M14.6919 15.5286L14.805 15.5782C14.8959 15.6997 14.8638 15.9764 14.8862 16.1759C14.9967 16.2834 14.9903 16.2007 15.2136 16.2339C15.2535 16.3588 15.2404 16.3214 15.2006 16.4696C15.0516 16.4743 14.886 16.4929 14.7501 16.4445C14.6461 16.2273 14.5455 15.7263 14.6919 15.5286Z" fill="var(--fill-0, #101010)"/>
<path id="Vector_47" d="M17.825 15.6387C17.9453 15.819 17.7868 16.2935 17.7329 16.4958C17.7091 16.5853 17.6181 16.5921 17.5371 16.6201C17.2732 16.3119 17.5969 15.9028 17.825 15.6387Z" fill="var(--fill-0, #101010)"/>
<path id="Vector_48" d="M15.4542 15.4303L15.5624 15.4843C15.641 15.6367 15.5959 15.9136 15.6128 16.1337C15.7642 16.298 15.7738 16.1249 15.9735 16.2465L15.9561 16.3598C15.8739 16.3761 15.6959 16.4151 15.621 16.4101C15.2721 16.3869 15.4248 15.6359 15.4542 15.4303Z" fill="var(--fill-0, #101010)"/>
<path id="Vector_49" d="M21.0263 28.9516C20.9265 28.8425 20.8347 28.775 20.8575 28.6301C20.9602 28.5895 21.3401 28.6491 21.545 28.6428L21.6455 28.6237C21.7726 28.6666 21.86 28.6832 21.9539 28.778C21.8374 28.9074 21.3757 28.7938 21.1252 28.8722L21.0263 28.9516Z" fill="var(--fill-0, #101010)"/>
<path id="Vector_50" d="M22.7098 19.4448C22.8308 19.4688 22.8503 19.4703 22.9304 19.5621C22.8961 19.6889 22.4499 19.919 22.2998 20.0086C22.1415 20.0137 22.1691 20.0389 22.0817 19.9609C22.1285 19.8045 22.5488 19.5534 22.7098 19.4448Z" fill="var(--fill-0, #101010)"/>
<path id="Vector_51" d="M14.9733 30.4513L15.1209 30.5506C15.2767 30.8651 15.0931 31.0004 15.0025 31.4277C14.9096 31.3884 14.9415 31.4076 14.876 31.3224C14.8668 31.0886 14.8578 30.6512 14.9733 30.4513Z" fill="var(--fill-0, #101010)"/>
<path id="Vector_52" d="M20.3479 16.728C20.4248 16.785 20.4002 16.7626 20.4384 16.8646C20.4006 17.2017 20.1367 17.4745 19.8818 17.6788L19.817 17.5628C19.8388 17.49 20.2817 16.8243 20.3479 16.728Z" fill="var(--fill-0, #101010)"/>
<path id="Vector_53" d="M11.4009 16.7396C11.7278 16.7682 11.8167 17.0288 11.955 17.3013C12.0272 17.4433 12.0766 17.4399 12.1268 17.5804C12.0544 17.6096 12.0416 17.6043 11.9649 17.6046C11.6817 17.3259 11.5781 17.086 11.4009 16.7396Z" fill="var(--fill-0, #101010)"/>
<path id="Vector_54" d="M15.5178 30.5935L15.5925 30.6849C15.5861 30.8573 15.6037 31.2968 15.5555 31.4255L15.4216 31.4668C15.0898 31.2087 15.3711 30.9174 15.5178 30.5935Z" fill="var(--fill-0, #101010)"/>
<path id="Vector_55" d="M18.2112 30.1806L18.3121 30.2494C18.4302 30.4872 18.6642 30.8612 18.502 31.086C18.3014 30.9708 18.0995 30.4411 18.2112 30.1806Z" fill="var(--fill-0, #101010)"/>
<path id="Vector_56" d="M14.5528 30.4473C14.598 30.4614 14.6215 30.4824 14.6616 30.5089C14.6739 30.6546 14.5549 31.1754 14.5253 31.3847C14.3775 31.3311 14.4179 31.3681 14.3474 31.2559C14.3199 30.9461 14.434 30.7308 14.5528 30.4473Z" fill="var(--fill-0, #101010)"/>
<path id="Vector_57" d="M8.85395 28.7429C8.65043 28.4448 8.21637 27.8217 8.12572 27.4743L8.16285 27.5297L8.19925 27.5352C8.40951 27.808 8.70395 28.308 8.89149 28.6158L8.85395 28.7429Z" fill="var(--fill-0, #101010)"/>
<path id="Vector_58" d="M20.5473 28.8462C20.7756 28.8781 21.0519 29.3669 21.1092 29.5821C20.7888 29.491 20.581 29.1658 20.5473 28.8462Z" fill="var(--fill-0, #101010)"/>
<path id="Vector_59" d="M7.55218 26.1756L7.64797 26.0808C7.82344 26.6047 8.01722 26.9465 8.15266 27.4968C7.86245 27.0714 7.73503 26.6566 7.55218 26.1756Z" fill="var(--fill-0, #101010)"/>
<path id="Vector_60" d="M21.545 28.6428C21.4139 28.3078 21.1814 28.5174 21.1682 28.1934L21.227 28.1384C21.4942 28.1825 21.6297 28.3662 21.6455 28.6237L21.545 28.6428Z" fill="var(--fill-0, #101010)"/>
<path id="Vector_61" d="M15.348 30.0382C15.5403 29.9966 16.294 29.9545 16.4299 30.0853C16.1442 30.1279 15.6007 30.1822 15.348 30.0382Z" fill="var(--fill-0, #101010)"/>
<path id="Vector_62" d="M21.0263 28.9516L21.1252 28.8722C21.2955 29.0315 21.5138 29.0532 21.6022 29.1771L21.5781 29.2181C21.3072 29.1824 21.1999 29.1618 21.0263 28.9516Z" fill="var(--fill-0, #101010)"/>
<path id="Vector_63" d="M7.46754 25.2137C7.48663 25.5596 7.48957 25.7607 7.64797 26.0808L7.55218 26.1756C7.45317 25.8811 7.42669 25.7893 7.38625 25.4793L7.46754 25.2137Z" fill="var(--fill-0, #101010)"/>
<path id="Vector_64" d="M17.5472 32.0976C17.4193 32.1437 17.0659 32.1864 16.9715 32.0875C17.1018 32.0058 17.3559 32.0238 17.5212 32.0215L17.5472 32.0976Z" fill="var(--fill-0, #101010)"/>
<path id="Vector_65" d="M49.1499 17.7046C49.1967 17.7056 49.2435 17.7073 49.2903 17.7097C49.4735 17.7194 49.5152 17.7298 49.6236 17.8507C49.6401 18.3618 49.6782 19.8716 49.6415 20.3174C49.3454 20.5313 49.261 20.2275 49.0709 20.261C48.706 20.3255 48.6432 20.3734 48.2544 20.3422C47.6678 20.0828 47.7858 19.2816 47.9478 18.7968C48.4862 18.3686 48.5853 18.3493 49.1155 18.788C49.1012 18.5446 49.0801 17.9098 49.1499 17.7046ZM48.975 20.0364C49.1783 19.8633 49.1182 19.2257 49.0907 18.9629C48.9305 18.8923 48.7102 18.7849 48.5449 18.7485C48.404 19.0592 48.1452 19.7424 48.5794 20.0068C48.6542 20.0523 48.8782 20.0385 48.975 20.0364Z" fill="var(--fill-0, #101010)"/>
<path id="Vector_66" d="M68.1367 17.8195C68.9138 17.8337 69.0772 17.8076 69.7675 18.1528C69.7923 18.7538 69.84 18.9184 69.2906 19.2273C69.3415 19.3005 70.0034 20.273 70.0176 20.3064C69.8065 20.4182 69.56 20.41 69.4081 20.2086C69.14 19.903 69.0597 19.3392 68.6434 19.351C68.3529 19.5911 68.6572 20.1212 68.435 20.3886C68.2721 20.4362 68.3171 20.4209 68.1316 20.361C67.9829 20.1935 68.0077 17.9728 68.1367 17.8195ZM69.1768 18.9147C69.3567 18.2168 69.1276 18.1675 68.4887 18.162C68.5163 18.4321 68.4997 18.7472 68.6039 18.9609C68.7806 19.0772 69.0051 19.0281 69.1768 18.9147Z" fill="var(--fill-0, #101010)"/>
<path id="Vector_67" d="M40.6447 27.235C40.7414 27.227 40.8381 27.2206 40.935 27.216C41.1637 27.2057 41.6172 27.1524 41.7689 27.2907C41.6724 27.4098 41.5758 27.3794 41.4207 27.4873L41.5727 27.8661C41.1969 28.63 41.2543 28.3219 40.5415 28.5011C40.4679 28.5196 40.4544 28.6129 40.4367 28.6786C40.5622 29.0397 41.2537 28.6769 41.6166 29.0421C41.7105 29.1908 41.6762 29.4119 41.6675 29.5949C41.5138 29.959 40.619 30.0864 40.3032 29.9534C39.6381 29.7097 40.4201 28.7203 40.3372 28.3941C40.2032 27.8677 39.7384 27.55 40.6447 27.235ZM41.2987 29.7073C41.3963 29.5507 41.4206 29.5192 41.4615 29.3397C41.3635 28.9983 40.7083 29.0808 40.3902 29.0767C40.3271 29.2353 40.2395 29.3986 40.2795 29.5593C40.4907 29.8927 40.9589 29.8041 41.2987 29.7073ZM40.9935 28.2124C41.5716 27.8436 41.2688 27.4036 40.6525 27.4553C40.039 27.7302 40.4194 28.2827 40.9935 28.2124Z" fill="var(--fill-0, #101010)"/>
<path id="Vector_68" d="M70.9287 17.8299C71.7012 17.7926 72.8573 17.8666 73.6413 17.9071C73.8042 17.9155 73.9396 18.5202 74.0002 18.595C74.0916 18.5011 74.1925 18.0787 74.445 17.858C74.5891 17.8254 74.5336 17.8159 74.6529 17.8885C74.7699 18.1468 74.7373 18.7834 74.6547 19.0563L74.5868 19.083C74.5023 18.9572 74.4693 18.4356 74.4427 18.2456C74.372 18.455 74.2178 18.8764 74.081 19.0618C73.7239 19.1203 73.8432 18.5152 73.544 18.3324C73.3755 18.569 73.6417 18.8325 73.4701 19.0976L73.3925 19.0933L73.3062 18.9951C73.2856 18.7062 73.3567 18.2349 73.2176 18.0711C73.09 18.0443 73.024 18.0697 72.9 18.1001C72.6246 18.3718 72.9611 18.7196 72.7412 19.0957L72.66 19.0964C72.5182 18.8796 72.581 18.3978 72.5884 18.095C72.2088 17.9653 71.9132 18.2 71.3106 18.1667C71.3634 18.4131 71.4152 20.1219 71.3606 20.3098C71.2325 20.4006 71.0154 20.3888 70.8511 20.3958C70.9085 19.7651 70.7928 18.7803 70.9337 18.194C70.6919 18.1903 70.2687 18.2423 70.1769 17.9837C70.3302 17.7766 70.6896 17.828 70.9287 17.8299Z" fill="var(--fill-0, #101010)"/>
<path id="Vector_69" d="M30.7639 17.8205C30.851 17.8215 31.142 17.8285 31.1965 17.8782C31.6387 18.2822 31.7032 19.1959 31.9448 19.7547C32.0462 19.9894 32.195 20.1389 32.225 20.2423C31.7479 20.7087 31.5994 20.1476 31.4876 19.8156C31.4615 19.7384 31.3381 19.7434 31.2682 19.7384C31.0445 19.7312 30.7402 19.7086 30.5273 19.7503C30.3318 19.9644 30.4425 20.5526 29.9008 20.4025C29.7941 20.2952 29.7718 20.263 29.8388 20.0999C29.9772 19.7635 30.107 19.4025 30.2421 19.0658C30.3994 18.6737 30.4629 18.1172 30.7639 17.8205ZM31.1305 19.3619L31.253 19.3726C31.3323 19.2354 31.0594 18.4142 30.9477 18.33C30.8766 18.5671 30.6771 19.0637 30.693 19.2485C30.8025 19.4365 30.9184 19.3808 31.1305 19.3619Z" fill="var(--fill-0, #101010)"/>
<path id="Vector_70" d="M67.5024 22.0394C67.8728 22.1656 67.7433 22.7155 67.7273 23.0586C68.2721 22.8068 68.3428 22.8202 68.8881 23.0112C69.1928 23.569 69.2598 24.0376 68.8555 24.5635C68.6301 24.6751 68.5199 24.7145 68.2785 24.7899C68.1358 24.7122 67.9425 24.5877 67.7883 24.5794C67.6878 24.6571 67.6575 24.6837 67.5414 24.7333L67.462 24.6901C67.4023 24.3309 67.4386 22.3893 67.5024 22.0394ZM68.424 24.5023C68.6856 24.3335 68.7944 24.2575 68.849 23.9401C68.9454 23.3848 68.6999 23.0455 68.1408 23.0828C67.9921 23.1333 67.8824 23.1555 67.8085 23.3065C67.563 23.8081 67.719 24.6038 68.424 24.5023Z" fill="var(--fill-0, #101010)"/>
<path id="Vector_71" d="M65.683 22.0485C65.7234 22.067 65.8106 22.0967 65.8202 22.1254C65.9501 22.5191 65.951 24.3384 65.8569 24.6492C65.5104 24.659 65.4516 24.5806 65.1336 24.7746L65.1134 24.7871L64.6603 24.6587C63.9154 24.138 64.1275 22.3781 65.6293 23.0484C65.6127 22.791 65.6205 22.2933 65.683 22.0485ZM65.2001 24.5208C65.7784 24.261 65.6361 23.8402 65.5958 23.286C65.3984 23.1613 65.2024 23.0501 64.9605 23.0438C64.3482 23.3594 64.2854 24.4626 65.2001 24.5208Z" fill="var(--fill-0, #101010)"/>
<path id="Vector_72" d="M39.6559 18.4631C40.146 18.4548 40.7035 18.805 40.7055 19.3479C40.7073 19.8274 40.5825 19.9538 40.2802 20.285L39.9044 20.3769C39.6109 20.3744 39.4916 20.3415 39.2103 20.2754C38.75 19.7316 38.7164 19.4122 39.0479 18.7722C39.2112 18.6576 39.4692 18.5493 39.6559 18.4631ZM39.9346 20.0482C40.3186 19.732 40.3132 18.9186 39.6999 18.7598C39.2065 19.1131 39.1322 19.9839 39.7995 20.0393C39.8444 20.0429 39.8895 20.0459 39.9346 20.0482Z" fill="var(--fill-0, #101010)"/>
<path id="Vector_73" d="M53.434 18.4625C53.8288 18.4889 53.9669 18.6037 54.313 18.7986C54.5944 19.4866 54.5595 20.213 53.6993 20.37C53.4428 20.3741 53.2835 20.3365 53.0352 20.289C52.3912 19.5753 52.5074 18.8122 53.434 18.4625ZM53.7659 20.0168C54.0927 19.7607 54.0606 19.2479 53.8233 18.9361C53.7494 18.8392 53.5391 18.7867 53.4239 18.7613C53.0182 19.176 52.892 20.0398 53.7044 20.0187L53.7659 20.0168Z" fill="var(--fill-0, #101010)"/>
<path id="Vector_74" d="M34.406 22.2313C35.1854 22.2137 36.1509 22.0676 35.8709 23.2407C35.815 23.4746 35.6436 23.5374 35.4453 23.6451C35.5856 23.9476 36.0421 24.5657 36.0519 24.7556L35.9695 24.7663C35.7969 24.6976 35.7805 24.6735 35.6645 24.5283C35.4976 24.2394 35.3607 23.9908 35.2124 23.6921C35.0075 23.6889 34.7992 23.6811 34.594 23.6755C34.6116 24.1461 34.6336 24.3144 34.5186 24.7762L34.4401 24.8103L34.4723 24.8344L34.5129 24.778L34.4098 24.7472C34.3165 24.4967 34.2819 22.4049 34.406 22.2313ZM34.5948 23.5205C34.9635 23.5115 35.2266 23.5449 35.5428 23.3623C35.9516 22.3892 35.269 22.3864 34.5665 22.4012C34.6114 22.7726 34.6209 23.1474 34.5948 23.5205Z" fill="var(--fill-0, #101010)"/>
<path id="Vector_75" d="M56.5542 19.9676C57.3758 20.1431 57.5543 19.9677 57.525 19.1339C57.5117 18.7619 57.4694 18.2673 57.5369 17.9056C57.6067 17.8375 57.5929 17.8305 57.7012 17.8249C57.7999 17.8199 57.8963 17.8566 57.9661 17.9261C58.028 17.9881 58.0074 18.0564 58.0092 18.1643L58.0216 18.9047C58.0257 19.3254 58.0468 19.8232 57.7379 20.1523C57.4029 20.5081 56.4675 20.4145 56.1577 20.0631C55.8396 19.7026 56.0374 18.6205 55.9814 18.1576C55.963 18.0051 56.0099 17.9161 56.1136 17.8244L56.3885 17.8635C56.4138 17.8835 56.4441 17.9075 56.4794 17.9353C56.5437 18.56 56.478 19.3531 56.5542 19.9676Z" fill="var(--fill-0, #101010)"/>
<path id="Vector_76" d="M55.8304 22.866C56.1007 22.8484 56.2646 22.9189 56.5184 23.0017C56.8741 23.4603 56.859 23.5606 56.8149 24.1372L56.5244 24.5658C56.3881 24.6317 56.2086 24.6981 56.0649 24.7558C55.8437 24.7799 55.5518 24.6268 55.3072 24.5463C55.0689 23.8624 55.0699 23.709 55.3122 23.0442L55.8304 22.866ZM56.1159 24.5128C56.9333 24.1004 56.6887 22.9707 55.7381 23.0899C55.0455 23.5107 55.2636 24.5498 56.1159 24.5128Z" fill="var(--fill-0, #101010)"/>
<path id="Vector_77" d="M53.8972 27.2231C54.3043 27.2096 54.3961 27.2758 54.721 27.5015C54.7545 27.5824 54.7858 27.6641 54.8151 27.7466C55.0084 28.2951 54.8523 28.8903 54.2639 29.0876C53.7663 29.1036 53.6401 29.0601 53.2752 28.737C53.1596 27.9559 53.077 27.4926 53.8972 27.2231ZM54.2262 28.8565C54.8574 28.5775 54.8707 27.3569 53.8719 27.4597C53.7163 27.5046 53.5837 27.5271 53.5121 27.6822C53.2023 28.352 53.4868 28.8489 54.2262 28.8565Z" fill="var(--fill-0, #101010)"/>
<path id="Vector_78" d="M48.3646 26.4541C48.7134 26.6393 48.6514 27.225 48.6533 27.5805C48.6546 27.9175 48.6992 28.8151 48.5289 29.0627C48.332 28.8456 48.4486 27.1462 48.4481 26.738C48.253 27.1592 47.644 28.862 47.4411 29.0627C47.0028 29.0678 46.6769 27.1354 46.3712 26.9326C46.2886 27.3864 46.5653 28.9454 46.2317 29.2213C46.0944 29.0828 46.0641 26.7797 46.2303 26.5488L46.368 26.5438C46.7691 26.7766 47.2166 28.2948 47.3704 28.7904C47.5554 28.3378 48.1222 26.7296 48.3646 26.4541Z" fill="var(--fill-0, #101010)"/>
<path id="Vector_79" d="M36.6341 17.6501C36.7738 17.6729 36.8331 17.6729 36.9452 17.7653C37.128 18.0528 37.0133 18.4301 36.9621 18.7864C38.5803 17.6098 38.4777 20.2008 38.0498 20.4372L37.9733 20.4046C37.7604 20.0937 37.8087 19.6924 37.8098 19.3118C37.8087 19.2237 37.7695 18.902 37.6962 18.863C36.788 18.3798 37.216 20.0695 36.8955 20.3718C36.7626 20.3954 36.7443 20.389 36.6145 20.3491C36.4649 20.1434 36.5037 17.8986 36.6341 17.6501Z" fill="var(--fill-0, #101010)"/>
<path id="Vector_80" d="M46.5227 18.4556C46.7696 18.4805 47.0427 18.6497 47.2511 18.7806C47.3373 19.0508 47.4039 19.336 47.4962 19.6221C47.1827 19.6407 46.3772 19.5776 46.1784 19.6844C46.1601 19.8258 46.1504 19.7676 46.2321 19.9063C46.4983 20.0952 46.9849 20.026 47.3268 20.0128C47.2758 20.5723 46.3368 20.3373 45.9788 20.2763C45.3874 19.3991 45.4647 18.7813 46.5227 18.4556ZM46.782 19.2815L46.9238 19.2529C46.9761 18.9949 46.7003 18.8 46.4694 18.7504C46.3482 18.8637 46.2454 18.941 46.1867 19.0956C46.2229 19.3587 46.5681 19.2892 46.782 19.2815Z" fill="var(--fill-0, #101010)"/>
<path id="Vector_81" d="M66.645 17.8319C66.947 17.8385 67.2146 17.8183 67.4813 17.9601L67.4849 18.0337C67.1884 18.2367 66.8153 18.1833 66.4527 18.1781C66.5013 18.4108 66.4848 18.5927 66.4761 18.8276C66.7726 18.8135 67.2366 18.7242 67.3247 19.0916C67.1531 19.3779 66.7538 19.2592 66.4752 19.2155C66.4839 19.4948 66.4843 19.7207 66.4738 20C66.7574 20.1044 67.2839 19.9043 67.5529 20.1948L67.5171 20.258C67.1476 20.4139 66.3696 20.382 65.9418 20.3849C65.9914 19.9174 65.9868 18.3321 65.9441 17.8523L66.645 17.8319Z" fill="var(--fill-0, #101010)"/>
<path id="Vector_82" d="M61.1289 18.4619C61.5663 18.4547 61.671 18.5646 62.0184 18.8047C62.0629 19.0943 62.1047 19.3465 62.1671 19.6329C61.8279 19.6521 61.1863 19.5632 60.9036 19.7113L60.8829 19.787C61.1583 20.1128 61.5434 20.0236 61.9285 19.9981C61.9877 20.0118 61.9895 20.0221 62.0432 20.0589C62.0703 20.1979 62.0813 20.1444 62.0051 20.2595C60.9155 20.7159 59.791 19.8205 60.6621 18.7396C60.6933 18.701 61.0582 18.5012 61.1289 18.4619ZM61.4695 19.2844L61.6402 19.2815L61.7072 19.2062C61.6567 18.878 61.4819 18.8118 61.1854 18.7826C61.0573 18.911 61.0091 18.9521 60.9256 19.1116C60.9701 19.3442 61.262 19.2837 61.4695 19.2844Z" fill="var(--fill-0, #101010)"/>
<path id="Vector_83" d="M33.9065 18.4074C34.0498 18.4238 34.0943 18.4368 34.2286 18.4776C34.3278 18.7205 34.3065 20.0031 34.2625 20.3112C34.043 20.5138 33.8523 20.1846 33.7482 20.215C32.8389 20.4811 32.5629 20.5405 32.5353 19.356C32.5379 19.1219 32.4964 18.6984 32.5809 18.5354C32.7236 18.4286 32.6702 18.4582 32.8615 18.4433C33.1859 18.6145 32.8519 19.5175 33.1037 19.9542C34.0576 20.5755 33.6873 18.7044 33.9065 18.4074Z" fill="var(--fill-0, #101010)"/>
<path id="Vector_84" d="M43.4071 22.8679C43.7212 22.8558 43.872 22.9179 44.1697 23.0063C44.1955 23.3304 44.2561 24.4926 44.1273 24.74L44.0487 24.7433L43.9316 24.6136C43.5106 24.5114 43.578 25.0199 42.7704 24.5524C42.2671 23.4784 43.7424 23.8045 43.9524 23.3795C43.9175 23.2017 43.9507 23.2585 43.8414 23.14C43.6904 23.0699 43.216 23.1188 43.0184 23.1235L42.978 23.0793C43.0803 22.9265 43.2255 22.9138 43.4071 22.8679ZM43.6035 24.4773C43.7932 24.3324 44.0637 24.1697 43.8798 23.9255C43.7011 23.8215 43.4666 23.8592 43.2574 23.8777C42.9947 23.9753 42.8865 24.0561 42.9888 24.3391C43.183 24.5332 43.3388 24.5436 43.6035 24.4773Z" fill="var(--fill-0, #101010)"/>
<path id="Vector_85" d="M57.799 24.5379C57.8564 24.1952 58.1194 22.9601 58.4971 22.9167C58.8565 23.1291 58.8996 23.9736 59.0676 24.2942C59.3513 24.1694 59.2921 22.8917 59.6996 22.836C59.7772 22.9627 59.7547 22.9226 59.7327 23.0982C59.6368 23.443 59.4132 24.7691 59.0029 24.7267C58.7417 24.4755 58.5563 23.4645 58.5164 23.0947C58.3112 23.5952 58.1969 24.139 57.9527 24.6169C57.8912 24.737 57.8307 24.7475 57.7168 24.7142C57.4524 24.4559 57.1895 23.1924 57.1761 22.8252C57.2248 22.8364 57.2891 22.8607 57.3382 22.8774C57.5378 23.1136 57.7265 24.187 57.799 24.5379Z" fill="var(--fill-0, #101010)"/>
<path id="Vector_86" d="M47.755 22.8268L48.3875 23.0146C48.4045 23.3881 48.5881 24.5969 48.2595 24.8175C47.9652 24.4729 48.5688 22.3287 47.2818 23.2612C47.1473 23.3586 47.1772 24.0302 47.1763 24.1976C47.1873 24.428 47.2368 24.5754 47.0707 24.7416C46.5961 24.4828 47.3016 23.1882 46.5764 23.0696C45.568 22.9046 46.1867 24.5289 45.8111 24.8208C45.6671 24.5681 45.7144 23.4177 45.7187 23.072C45.7198 22.9816 46.3189 22.9064 46.4538 22.8637C46.6856 22.8591 46.9403 22.9539 47.1657 23.0223L47.755 22.8268Z" fill="var(--fill-0, #101010)"/>
<path id="Vector_87" d="M49.6263 22.8656C49.9384 22.8571 50.0734 22.9077 50.3735 22.9875C50.4089 23.3688 50.4543 24.2867 50.4135 24.6478C50.335 24.7304 50.3823 24.7101 50.2854 24.6694C49.6639 24.4082 49.7548 25.0367 49.0471 24.6069C48.6657 23.3291 49.8742 23.7966 50.161 23.4735C50.1831 23.3313 50.156 23.2847 50.1064 23.154C49.8985 23.0871 49.434 23.1374 49.1439 23.0915L49.1545 23.0395C49.2935 22.9465 49.4638 22.9104 49.6263 22.8656ZM49.8976 24.4222C50.1206 24.2975 50.1514 24.2507 50.1739 23.9809C50.0197 23.7545 49.6534 23.8645 49.384 23.8837C49.2408 23.997 49.2334 24.0233 49.1733 24.1958C49.2348 24.6032 49.6107 24.5225 49.8976 24.4222Z" fill="var(--fill-0, #101010)"/>
<path id="Vector_88" d="M64.6195 17.865C64.664 17.86 64.7081 17.856 64.7526 17.8531C64.9972 17.8379 65.3809 17.8777 65.3979 18.1858L65.3029 18.2547C65.1308 18.292 64.9578 18.2093 64.7889 18.1488C64.6273 18.1979 64.4327 18.2746 64.2711 18.3332C64.0875 18.7737 63.858 19.4596 64.2913 19.8469C64.5745 20.1002 64.9665 20.0264 65.3167 19.9952C65.4218 20.0731 65.3943 20.1634 65.3529 20.2553C65.0798 20.4433 64.4795 20.3556 64.1577 20.3062C64.0995 20.2564 63.9237 20.1161 63.8856 20.0617C63.2572 19.1604 63.5046 18.075 64.6195 17.865Z" fill="var(--fill-0, #101010)"/>
<path id="Vector_89" d="M62.9098 22.8606C63.2352 22.8378 63.3779 22.9289 63.663 23.0714C63.6859 23.2104 63.8172 23.6775 63.8016 23.7498C63.5138 24.0336 62.6078 23.6586 62.4558 23.9732C62.5963 24.4704 62.9235 24.5063 63.3587 24.5169C63.4266 24.4897 63.5156 24.4621 63.5863 24.4377L63.663 24.475L63.6446 24.5704C63.3004 24.9059 62.851 24.7332 62.4903 24.5461C61.9881 23.8828 62.079 23.156 62.9098 22.8606ZM62.359 23.595L63.1457 23.5874C63.3522 23.5884 63.3458 23.622 63.4872 23.5243C63.5478 23.2069 63.2214 23.0417 62.9428 23.0352C62.6624 23.199 62.56 23.3414 62.359 23.595Z" fill="var(--fill-0, #101010)"/>
<path id="Vector_90" d="M49.9338 27.2246C50.452 27.178 50.9922 27.5721 50.8408 28.0966C50.5048 28.4093 49.6557 27.9306 49.5249 28.3412C49.5662 28.518 49.7085 28.6662 49.8251 28.8096C49.9692 28.8259 50.1321 28.8346 50.2785 28.8457C50.4383 28.823 50.6338 28.7641 50.7407 28.8999C50.5415 29.1557 50.0954 29.1356 49.8149 29.0227C49.4533 28.8769 49.3495 28.6505 49.2054 28.3136C49.3078 27.6202 49.3119 27.5081 49.9338 27.2246ZM50.3621 27.9958C50.5388 27.9864 50.5085 28.016 50.6127 27.9169C50.6076 27.6478 50.2987 27.4316 50.0426 27.4348C49.9898 27.4357 49.9375 27.438 49.8852 27.4416C49.7654 27.5549 49.6281 27.6611 49.5781 27.8145C49.6497 28.0596 50.1284 27.996 50.3621 27.9958Z" fill="var(--fill-0, #101010)"/>
<path id="Vector_91" d="M32.9963 27.2267C34.2015 27.2318 33.5004 28.2067 33.7638 28.9268C33.7848 28.9842 33.7576 29.0053 33.7325 29.06L33.6702 29.0734L33.5451 28.9324C33.4309 28.8936 33.0427 29.0654 32.8488 29.1238C32.6606 29.0753 32.5118 29.0286 32.3276 28.9661C32.1725 27.6987 32.8629 28.2213 33.4646 27.9528C33.554 27.8007 33.5206 27.8864 33.5075 27.6959C33.4804 27.3048 32.7288 27.5962 32.4714 27.4399C32.609 27.3272 32.822 27.2795 32.9963 27.2267ZM32.9515 28.8588C33.2227 28.7934 33.4811 28.6938 33.5232 28.3782C33.4578 28.2289 33.5009 28.2788 33.3566 28.1928L33.0197 28.214C32.7444 28.2772 32.4943 28.3311 32.5307 28.6714C32.6323 28.8085 32.6743 28.8213 32.844 28.8458C32.8797 28.8509 32.9156 28.8552 32.9515 28.8588Z" fill="var(--fill-0, #101010)"/>
<path id="Vector_92" d="M43.6627 27.2212C43.899 27.2206 44.4406 27.3483 44.5053 27.5989C44.8077 28.771 43.4419 27.8036 43.2481 28.3511C43.3157 28.8472 43.753 28.8445 44.1665 28.8323C44.3639 28.8016 44.3427 28.7741 44.5001 28.8424L44.4936 28.9186C44.0351 29.2888 43.4306 29.0026 43.0249 28.7086C42.954 28.2811 43 28.0215 43.049 27.5949C43.3027 27.3974 43.369 27.354 43.6627 27.2212ZM44.0739 27.9932C44.2463 27.9904 44.1927 28.0144 44.3048 27.9258C44.3344 27.5321 43.9508 27.4063 43.6169 27.4445C43.39 27.5984 43.2907 27.7361 43.1183 27.9438C43.4157 27.9647 43.782 27.9996 44.0739 27.9932Z" fill="var(--fill-0, #101010)"/>
<path id="Vector_93" d="M38.7442 27.2194C39.0309 27.2111 39.1833 27.3059 39.4344 27.4282C39.6032 27.7501 39.621 27.8413 39.7145 28.1938C39.3827 28.1948 38.6785 28.1479 38.4183 28.1815C38.282 28.2709 38.3005 28.2295 38.2557 28.3555C38.2941 28.7018 38.7733 28.844 39.0713 28.8506C39.2804 28.8227 39.3948 28.7816 39.5607 28.8929L39.4998 28.9667C38.5186 29.3601 37.7535 28.7443 38.1384 27.6921C38.2406 27.4131 38.4792 27.3213 38.7442 27.2194ZM39.0808 27.9986C39.2675 27.9733 39.2481 28.0043 39.3727 27.8979C39.3759 27.5755 38.9581 27.4379 38.681 27.4474C38.5043 27.5467 38.4794 27.561 38.3571 27.7214C38.3287 28.0661 38.8373 27.9994 39.0808 27.9986Z" fill="var(--fill-0, #101010)"/>
<path id="Vector_94" d="M66.8942 27.2178C67.2674 27.2181 67.4142 27.3356 67.7287 27.5252C67.7672 27.7166 67.7957 27.989 67.8223 28.1884C67.5988 28.185 66.6363 28.1341 66.5082 28.215C66.2677 28.8719 67.0691 28.8448 67.4468 28.828C67.613 28.7923 67.579 28.7726 67.7062 28.8345L67.6997 28.9211C67.271 29.2771 66.6891 29.0872 66.3187 28.7419C66.1497 28.2517 66.1865 28.1693 66.2851 27.6576C66.4977 27.4109 66.5982 27.3561 66.8942 27.2178ZM67.3381 27.9871C67.4895 27.9556 67.4886 27.9828 67.5717 27.8805C67.5166 27.5453 67.1191 27.4245 66.8171 27.4421C66.6491 27.5562 66.6161 27.5743 66.5041 27.7411C66.4931 27.9611 66.6629 27.9866 66.8589 27.9909C67.0186 27.9928 67.1783 27.9915 67.3381 27.9871Z" fill="var(--fill-0, #101010)"/>
<path id="Vector_95" d="M43.8851 18.4323C44.2502 18.4652 45.0613 18.3651 45.2778 18.638C45.2898 18.903 44.5557 19.7412 44.3545 19.9914C44.665 20.0153 45.1232 19.9636 45.3362 20.1549C45.3219 20.2931 45.3225 20.2541 45.1924 20.3721C44.8105 20.3726 44.2182 20.4338 43.8852 20.2964C43.7334 20.1303 43.7929 20.0306 43.9239 19.8576C44.1911 19.5049 44.4835 19.1593 44.7729 18.8258C44.5017 18.8028 44.066 18.8921 43.8745 18.7301C43.8156 18.5695 43.8305 18.6215 43.8851 18.4323Z" fill="var(--fill-0, #101010)"/>
<path id="Vector_96" d="M59.2374 18.4553C59.4981 18.4601 59.8805 18.502 59.9434 18.798C59.7616 19.1214 59.4862 18.6803 59.1759 18.8069C59.0832 18.9329 59.1007 18.8755 59.1016 19.0221C59.3614 19.3868 60.5644 19.2804 59.7924 20.2898L59.3701 20.3721C59.1277 20.3657 58.9088 20.3685 58.6715 20.3147C58.5673 20.1901 58.599 20.2465 58.5705 20.0609C58.7266 19.7074 59.4321 20.2705 59.5555 19.8754C59.3146 19.5127 58.5081 19.4927 58.5715 18.9031C58.7404 18.6144 58.9299 18.5726 59.2374 18.4553Z" fill="var(--fill-0, #101010)"/>
<path id="Vector_97" d="M51.5146 18.0131C51.8469 18.1199 51.5788 18.3301 51.756 18.4355C51.8258 18.4772 52.1691 18.4201 52.304 18.5671C52.3348 18.7082 52.3444 18.6559 52.2774 18.7668C52.1076 18.8338 51.8698 18.7918 51.6812 18.7748C51.7229 19.1595 51.706 19.6369 51.6972 20.025C51.9717 20.0231 52.0989 20.0175 52.3729 20.0785C52.2659 20.5894 51.0469 20.6116 51.1602 19.414C51.2539 18.4275 50.7017 19.0141 51.5146 18.0131Z" fill="var(--fill-0, #101010)"/>
<path id="Vector_98" d="M35.3401 18.0172L35.4749 18.0561C35.5734 18.1989 35.5421 18.1833 35.5506 18.3848C35.681 18.5137 35.8109 18.429 36.091 18.5007C36.1874 18.6123 36.1672 18.5551 36.1561 18.72C35.983 18.8548 35.7678 18.794 35.539 18.7682C35.5583 19.1487 35.5583 19.6661 35.527 20.0426C35.7773 20.024 35.9031 20.027 36.1542 20.0444L36.1721 20.1948C36.0453 20.3869 35.6521 20.4567 35.4457 20.367C34.766 20.0717 35.1635 19.1973 34.9299 18.7007L34.9109 18.661C34.9263 18.5139 35.2259 18.1699 35.3401 18.0172Z" fill="var(--fill-0, #101010)"/>
<path id="Vector_99" d="M60.5088 26.4689C60.8535 26.7565 60.7195 28.3723 60.4046 28.7702C60.2541 28.9645 60.0301 29.0886 59.7855 29.1137C59.416 29.1509 59.0768 28.9656 58.8014 28.7432C58.6756 28.1875 58.7032 27.5185 58.7188 26.9465C58.7307 26.824 58.7509 26.7128 58.772 26.592L58.8638 26.528C59.2788 26.7662 58.7312 28.5725 59.2108 28.7528C60.9394 29.4025 60.1963 27.2688 60.5088 26.4689Z" fill="var(--fill-0, #101010)"/>
<path id="Vector_100" d="M27.476 21.8855L27.5665 22.0811L27.6881 22.0206C27.6776 23.1611 27.6748 24.3018 27.6797 25.4424C27.6804 25.8369 27.7063 26.8069 27.6723 27.1527C27.7124 28.1016 27.749 29.1616 27.5376 30.0813C27.4575 29.5723 27.4715 27.8275 27.4958 27.2846C27.4615 26.7467 27.4861 25.9215 27.4864 25.3576L27.476 21.8855Z" fill="var(--fill-0, #101010)"/>
<path id="Vector_101" d="M27.4958 27.2846L27.5038 27.2489C27.5723 26.9302 27.5073 26.7659 27.5991 26.3906C27.6246 26.5716 27.6159 27.0794 27.6723 27.1527C27.7124 28.1016 27.749 29.1616 27.5376 30.0813C27.4575 29.5723 27.4715 27.8275 27.4958 27.2846Z" fill="var(--fill-0, #101010)"/>
<path id="Vector_102" d="M32.3931 22.2261C33.0593 22.2234 33.4345 22.1956 34.0885 22.3508C33.6178 22.4175 33.0576 22.4004 32.5762 22.3969C32.6308 22.7911 32.6164 23.0225 32.6001 23.4176C32.8384 23.3713 33.4843 23.2975 33.6936 23.4004L33.7117 23.467C33.3834 23.7644 32.8948 23.4604 32.6021 23.6086C32.6321 23.9267 32.6109 24.2423 32.5987 24.5617C32.8271 24.5286 33.699 24.4021 33.7705 24.6647C33.5577 24.8147 32.651 24.7814 32.3302 24.7934C32.3807 24.2591 32.2905 22.5338 32.3931 22.2261Z" fill="var(--fill-0, #101010)"/>
<path id="Vector_103" d="M52.483 22.0504C52.5248 22.0706 52.5863 22.113 52.6271 22.1392C52.7575 22.43 52.6909 23.5409 52.6804 23.9069C52.9002 23.5934 53.3615 22.8782 53.7599 22.8516L53.7705 22.9107C53.5832 23.1548 53.306 23.4412 53.0926 23.6732C53.317 23.941 53.5029 24.1898 53.7099 24.4713C53.815 24.5799 53.9082 24.6327 53.9215 24.7555C53.4698 24.9176 53.1963 23.7892 52.7768 23.9085C52.6267 24.1757 52.797 24.5748 52.5767 24.7592L52.4807 24.7316C52.3651 24.4942 52.3802 22.3537 52.483 22.0504Z" fill="var(--fill-0, #101010)"/>
<path id="Vector_104" d="M41.2048 18.4257C41.6827 18.4215 41.4751 18.6179 41.7845 18.7045C42.0399 18.6767 42.0646 18.4019 42.3295 18.4676C42.4483 18.6058 42.45 18.7585 42.383 18.9225C42.0765 19.1374 41.8598 18.8379 41.6795 19.32C41.6769 19.5822 41.7534 20.1778 41.579 20.3555C41.5149 20.3659 41.2175 20.4053 41.2073 20.3354C41.1279 19.7959 41.1457 18.9578 41.2048 18.4257Z" fill="var(--fill-0, #101010)"/>
<path id="Vector_105" d="M74.4312 28.8982C74.5368 28.5628 74.7993 27.3868 75.1082 27.2552C75.2078 27.438 74.3495 30.5269 73.5449 29.9473L73.5252 29.8617C73.6266 29.7903 73.9667 29.7292 73.9607 29.7377C74.0824 29.5575 74.1668 29.3029 74.2458 29.0996C73.9309 28.5156 73.8001 27.9161 73.589 27.327L73.6633 27.2567C73.8483 27.292 73.8474 27.3219 73.9057 27.5068C74.0544 27.9815 74.2449 28.4369 74.4312 28.8982Z" fill="var(--fill-0, #101010)"/>
<path id="Vector_106" d="M70.8938 22.7928C70.9305 22.8252 70.9466 22.8576 70.9741 22.8989C70.9526 23.4488 70.293 24.8909 70.0736 25.4754C69.8937 25.5431 69.593 25.6576 69.4122 25.5895C69.4971 25.2788 70.3513 25.2783 70.0025 24.5378L69.969 24.4473C69.8322 24.2077 69.4365 23.1751 69.47 22.9039L69.5256 22.8902C69.79 23.1221 70.119 24.1418 70.2402 24.5016C70.3742 24.0894 70.6703 23.0996 70.8938 22.7928Z" fill="var(--fill-0, #101010)"/>
<path id="Vector_107" d="M56.394 27.1877C56.4252 27.1968 56.4565 27.2062 56.4877 27.2158C56.7153 27.286 56.7906 27.302 56.9265 27.5181C57.0958 27.7888 57.1688 28.9134 56.8475 29.0681C56.7548 28.9284 56.7649 27.9951 56.7603 27.7591C56.5795 27.2846 56.1531 27.4577 55.7873 27.5863C55.712 27.9748 55.7638 28.9256 55.5775 29.1581V29.1567C55.4017 28.9898 55.3939 27.3647 55.4719 27.2085C55.9383 27.4007 55.9084 27.3337 56.394 27.1877Z" fill="var(--fill-0, #101010)"/>
<path id="Vector_108" d="M31.07 26.5422C31.3451 26.5221 31.5212 26.5787 31.7729 26.6882L31.793 26.7561C31.5964 26.9213 30.1985 26.5313 30.2628 27.712C30.3161 28.6936 30.5176 28.8928 31.5208 28.8434C31.6367 28.8234 31.644 28.8178 31.7451 28.8673L31.7347 28.9526C31.438 29.1752 30.8876 29.13 30.5657 28.9697C30.321 28.8496 30.1353 28.6357 30.0509 28.3764C29.9347 28.0267 29.9583 27.5263 30.1393 27.204C30.3893 26.7588 30.6281 26.6791 31.07 26.5422Z" fill="var(--fill-0, #101010)"/>
<path id="Vector_109" d="M31.1142 22.2315C31.4188 22.2264 31.5696 22.2337 31.8471 22.3586C31.7182 22.6548 30.1618 21.9061 30.2871 23.5493C30.358 24.4781 30.7191 24.5203 31.5698 24.5137C31.6724 24.4573 31.6202 24.4627 31.7308 24.4948L31.7428 24.5849C31.4379 24.9558 30.7704 24.6867 30.4052 24.5571C29.6831 23.6617 29.8138 22.388 31.1142 22.2315Z" fill="var(--fill-0, #101010)"/>
<path id="Vector_110" d="M60.1632 22.8286C60.221 22.8486 60.3808 22.9438 60.4395 22.9787C60.6378 23.0166 60.8494 22.9078 61.0431 22.8328L61.6609 22.9992C61.6861 23.3417 61.7394 24.4825 61.6297 24.766L61.5585 24.7757C61.363 24.562 61.4332 23.7702 61.4351 23.4367L61.3933 23.2259C61.1262 22.8981 60.7489 23.1264 60.4124 23.2521C60.395 23.5162 60.4675 24.7004 60.2472 24.7577C60.0632 24.5274 60.1049 23.1542 60.1632 22.8286Z" fill="var(--fill-0, #101010)"/>
<path id="Vector_111" d="M62.107 27.2191C63.2347 27.1068 62.8721 28.9991 62.7014 29.1281C62.5036 28.8806 62.7661 28.1079 62.5518 27.5987C62.3957 27.4558 62.3957 27.4916 62.1635 27.4342L61.6338 27.5494C61.5962 27.846 61.6655 28.9978 61.4424 29.1356L61.3814 29.0679C61.3226 28.7831 61.2808 27.576 61.3529 27.2932L61.4387 27.2554C61.4608 27.2675 61.4828 27.2791 61.5053 27.2902C61.7109 27.3901 61.878 27.2939 62.107 27.2191Z" fill="var(--fill-0, #101010)"/>
<path id="Vector_112" d="M27.476 21.8855C27.4944 20.6038 27.4777 19.2968 27.4674 18.0133C27.4659 17.8205 27.4346 17.6144 27.5515 17.4538L27.6244 17.4711C27.7403 17.7117 27.6903 21.381 27.6881 22.0206L27.5665 22.0811L27.476 21.8855Z" fill="var(--fill-0, #101010)"/>
<path id="Vector_113" d="M40.5931 22.863C40.8632 22.8313 41.1873 22.8659 41.3927 23.0598C41.1957 23.1751 40.5743 22.9531 40.3704 23.2326C40.4609 23.6111 41.3569 23.7401 41.4744 24.1755C41.5631 24.5041 41.1393 24.6825 40.9091 24.7596C40.6604 24.7862 40.2968 24.7768 40.1683 24.516C40.4778 24.3571 41.0588 24.6746 41.2207 24.2654C41.133 23.9223 40.4127 23.815 40.1321 23.4004C40.0787 23.0681 40.3185 22.9682 40.5931 22.863Z" fill="var(--fill-0, #101010)"/>
<path id="Vector_114" d="M65.0886 29.0393C65.1684 28.6802 65.487 27.3178 65.8184 27.2083L65.8808 27.2561L65.8702 27.4136C65.8023 27.6672 65.3984 28.8838 65.1648 29.0314C65.0854 29.0817 65.039 29.0468 64.955 29.0201C64.7466 28.8181 64.2775 27.5426 64.2128 27.2079C64.3193 27.2091 64.3326 27.2121 64.4364 27.2388C64.6218 27.4178 65.0004 28.7315 65.0886 29.0393Z" fill="var(--fill-0, #101010)"/>
<path id="Vector_115" d="M70.2847 27.2238C70.4995 27.2287 70.7882 27.253 70.9319 27.43C70.6955 27.5776 70.1195 27.3832 69.9139 27.6306C70.0341 28.0358 70.9783 28.0407 71.0269 28.6265C70.9333 28.8522 70.9145 28.9334 70.7047 29.0242C70.455 29.0717 69.9111 29.1686 69.7578 28.9289L69.7964 28.8798C70.1576 28.748 70.5666 28.9524 70.7841 28.6611C70.6492 28.2224 69.952 28.2333 69.7032 27.7255C69.7 27.3612 69.9924 27.3134 70.2847 27.2238Z" fill="var(--fill-0, #101010)"/>
<path id="Vector_116" d="M42.917 18.4386C43.0665 18.4318 43.1169 18.4236 43.2648 18.4693C43.3812 18.6141 43.363 20.0467 43.3763 20.3838C43.2117 20.3848 43.0527 20.4051 42.915 20.3219C42.818 20.1742 42.9026 18.7102 42.917 18.4386Z" fill="var(--fill-0, #101010)"/>
<path id="Vector_117" d="M72.7711 28.7828C72.9198 28.8071 73.2553 28.845 73.3558 28.9377L73.3104 29.0077C72.1505 29.5718 72.716 27.7567 72.5099 27.4648L72.3066 27.4311L72.2579 27.3558C72.3492 27.2015 72.4837 27.2878 72.5673 27.179C72.6513 27.0691 72.5356 26.996 72.6848 26.859L72.7811 26.8658C72.7958 26.9663 72.8004 27.0385 72.805 27.1401C72.9386 27.2194 73.4586 27.2589 73.6266 27.2573L73.6633 27.2567L73.589 27.327C72.4158 27.7249 72.8303 27.2023 72.7711 28.7828Z" fill="var(--fill-0, #101010)"/>
<path id="Vector_118" d="M36.2598 22.236C37.063 22.207 37.6709 22.165 38.4493 22.3565C38.0135 22.4065 37.684 22.402 37.2489 22.3992C37.284 22.932 37.2681 23.5673 37.2676 24.1082C37.2728 24.4168 37.2883 24.52 37.1657 24.7966L37.1252 24.7767C37.0004 24.2388 37.0657 23.0122 37.0969 22.4228C36.8795 22.4179 36.3265 22.4421 36.1914 22.311L36.2598 22.236Z" fill="var(--fill-0, #101010)"/>
<path id="Vector_119" d="M52.4151 26.4024C52.4959 26.4316 52.5744 26.4383 52.5918 26.5078C52.6909 26.9032 52.6786 28.8624 52.5826 29.1493C52.5487 29.1467 52.4894 29.129 52.4541 29.1199C52.2958 28.883 52.3609 26.7312 52.4151 26.4024Z" fill="var(--fill-0, #101010)"/>
<path id="Vector_120" d="M51.487 26.4035L51.6105 26.4597C51.7386 26.6458 51.7321 28.9498 51.6009 29.1738L51.4935 29.1036C51.3567 28.7836 51.398 26.7626 51.487 26.4035Z" fill="var(--fill-0, #101010)"/>
<path id="Vector_121" d="M51.8551 22.8571C51.9763 22.8627 52.0213 22.8522 52.1094 22.9287C52.0282 23.088 51.5233 23.0603 51.3649 23.4272C51.1864 23.8405 51.4723 24.5101 51.1983 24.8405C51.0074 24.6244 50.9642 23.0827 51.1547 22.8924C51.32 22.9337 51.18 22.9903 51.375 23.0763L51.8551 22.8571Z" fill="var(--fill-0, #101010)"/>
<path id="Vector_122" d="M36.7523 27.197C36.8959 27.2319 37.2839 27.3049 37.3505 27.4452C37.4715 27.7005 37.5649 28.966 37.3411 29.1065C37.0084 28.8397 37.3759 27.9575 37.0917 27.5381C36.9073 27.424 36.7528 27.419 36.5426 27.4907C36.4304 27.4883 36.3557 27.4834 36.2444 27.4698L36.2301 27.4048L36.7523 27.197Z" fill="var(--fill-0, #101010)"/>
<path id="Vector_123" d="M69.2373 27.2157C69.3911 27.268 69.3502 27.2323 69.4356 27.3398C69.3989 27.3718 69.3764 27.4038 69.3346 27.4074C68.1583 27.5076 68.7834 28.6588 68.4974 29.08L68.3708 29.0838C68.3308 28.8534 68.3515 27.5362 68.4029 27.2868L68.4961 27.2765L68.559 27.3414C68.5392 27.3912 68.547 27.3664 68.558 27.43C68.8174 27.4217 68.9899 27.3174 69.2373 27.2157Z" fill="var(--fill-0, #101010)"/>
<path id="Vector_124" d="M71.6667 27.1499C71.7278 27.1616 71.8407 27.2048 71.849 27.2717C71.8967 27.6511 71.9472 28.8682 71.7985 29.1749C71.753 29.1568 71.6626 29.09 71.6525 29.0458C71.5754 28.711 71.541 27.4008 71.6667 27.1499Z" fill="var(--fill-0, #101010)"/>
<path id="Vector_125" d="M36.5426 27.4907C35.6697 27.6633 36.4897 28.804 36.0145 29.0952L35.9338 29.0423C35.8909 28.814 35.8458 27.4327 35.9378 27.2443C36.0982 27.2496 36.0763 27.276 36.2301 27.4048L36.2444 27.4698C36.3557 27.4834 36.4304 27.4883 36.5426 27.4907Z" fill="var(--fill-0, #101010)"/>
<path id="Vector_126" d="M63.6074 27.1402C63.7364 27.198 63.6951 27.1625 63.775 27.2698C63.8158 27.5861 63.8507 28.8963 63.7208 29.1754C63.6285 29.145 63.5487 29.0594 63.5455 28.9618C63.5335 28.6137 63.4413 27.3986 63.6074 27.1402Z" fill="var(--fill-0, #101010)"/>
<path id="Vector_127" d="M39.411 22.8204C39.543 22.8611 39.4967 22.8309 39.5872 22.9337C39.6891 23.2571 39.677 24.5032 39.5785 24.8165C39.5127 24.7934 39.4739 24.7584 39.4183 24.7168C39.2989 24.4098 39.3575 23.1824 39.411 22.8204Z" fill="var(--fill-0, #101010)"/>
<path id="Vector_128" d="M34.6636 27.6903C34.5197 28.0703 34.7556 29.0026 34.4582 29.1282L34.3839 29.0571C34.3011 28.8097 34.3411 27.5107 34.3961 27.245L34.4588 27.2223C34.59 27.3285 34.5631 27.3493 34.627 27.5378L34.6636 27.6903Z" fill="var(--fill-0, #101010)"/>
<path id="Vector_129" d="M42.3111 27.1469C42.5132 27.2636 42.4564 28.9675 42.3414 29.1949C42.17 28.9875 42.1718 27.3501 42.3111 27.1469Z" fill="var(--fill-0, #101010)"/>
<path id="Vector_130" d="M43.0444 17.7382C43.1223 17.7049 43.2121 17.7165 43.2791 17.7684C43.3459 17.8204 43.3793 17.9047 43.3663 17.9884C43.3532 18.072 43.2957 18.1421 43.2161 18.1712C43.0976 18.2145 42.9661 18.1556 42.9195 18.0383C42.873 17.921 42.9284 17.7879 43.0444 17.7382Z" fill="var(--fill-0, #101010)"/>
<path id="Vector_131" d="M34.627 27.5378C34.9574 27.3124 35.0071 27.2444 35.4068 27.2409L35.4511 27.2783C35.2899 27.4493 34.9389 27.5241 34.6636 27.6903L34.627 27.5378Z" fill="var(--fill-0, #101010)"/>
</g>
</svg>
