<svg preserveAspectRatio="none" width="100%" height="100%" overflow="visible" style="display: block;" viewBox="0 0 169.273 47" fill="none" xmlns="http://www.w3.org/2000/svg">
<g id="image 7 [Vectorized]">
<path id="Vector" d="M48.426 15.5556C49.9235 15.4631 51.9907 15.5225 53.5224 15.5164L54.3913 15.5002L54.6931 15.5612C54.7837 15.81 54.7983 16.8438 54.7858 17.1429C54.7155 18.8168 55.275 24.6985 53.2664 25.5437L53.0479 25.5129C51.6935 26.4574 49.341 26.1408 47.6498 26.1066C47.3822 26.0947 47.3016 26.1334 47.094 25.9998C46.9668 25.4096 46.8622 24.5117 47.168 23.9666C47.335 23.838 47.5441 23.8866 47.7591 23.9053C48.6151 23.9735 49.4806 24.5567 50.3911 24.3548C51.2213 24.1706 51.795 23.3877 52.2265 22.7061C49.532 24.4209 46.4521 23.1434 46.44 19.7825C46.4316 17.4576 46.9825 17.0643 48.426 15.5556Z" fill="var(--fill-0, #101010)"/>
<path id="Vector_2" d="M54.3914 15.5002L54.6932 15.5612C54.7838 15.81 54.7984 16.8438 54.7859 17.1429C54.7156 18.8168 55.2751 24.6985 53.2665 25.5437L53.0479 25.5129C53.6739 24.8301 54.3744 23.5084 54.3133 22.5843C54.3998 22.1319 54.3713 20.6519 54.3701 20.1235C54.3534 18.5824 54.3605 17.0412 54.3914 15.5002Z" fill="var(--fill-0, #101010)"/>
<path id="Vector_3" d="M47.6498 26.1066C47.3823 26.0947 47.3017 26.1334 47.094 25.9998C46.9668 25.4096 46.8622 24.5117 47.168 23.9666C47.335 23.838 47.5441 23.8866 47.7592 23.9053C47.4461 24.2087 47.6119 25.6281 47.6498 26.1066Z" fill="var(--fill-0, #101010)"/>
<path id="Vector_4" d="M53.5224 15.5164L54.3914 15.5002C54.3605 17.0412 54.3534 18.5824 54.3701 20.1235C54.3713 20.6519 54.3998 22.1319 54.3133 22.5843C54.1682 21.7032 54.3242 19.6485 54.2634 18.6535C54.2564 17.93 54.1543 17.2156 54.0531 16.4992C53.9499 15.7689 54.2423 15.7761 53.5224 15.5164Z" fill="var(--fill-0, #101010)"/>
<path id="Vector_5" d="M48.763 20.5662C48.708 19.3487 48.6099 17.3252 50.2883 17.2566L51.3054 17.2697C51.5735 17.2844 51.8149 17.2439 51.9807 17.3882C52.0801 17.9918 52.0661 20.4454 52.0311 21.15C51.5827 21.4234 51.3782 21.5324 50.8718 21.6788C50.4534 21.7689 50.0339 21.58 49.6409 21.4351C49.3123 21.2735 48.9921 20.8525 48.763 20.5662Z" fill="var(--fill-0, #EAF2EC)"/>
<path id="Vector_6" d="M51.3055 17.2697C51.5735 17.2844 51.8149 17.2439 51.9807 17.3882C52.0802 17.9918 52.0661 20.4454 52.0312 21.15C51.5828 21.4234 51.3782 21.5324 50.8719 21.6788L51.4085 20.9692C51.4407 19.735 51.4063 18.5001 51.3055 17.2697Z" fill="var(--fill-0, #101010)"/>
<path id="Vector_7" d="M48.763 20.5662C48.708 19.3487 48.6099 17.3252 50.2883 17.2566C50.209 17.7486 50.2092 17.7481 49.7465 18.0825C49.5828 18.2002 49.418 18.3163 49.2521 18.4309C49.236 19.0899 49.1857 19.9359 49.2856 20.5772C49.3514 20.9992 49.6219 20.893 49.6409 21.4351C49.3123 21.2735 48.9921 20.8525 48.763 20.5662Z" fill="var(--fill-0, #101010)"/>
<path id="Vector_8" d="M83.8391 15.5156C84.2143 15.524 84.278 15.4588 84.5235 15.653L84.6582 16.0099C84.6921 15.819 84.6962 15.7889 84.8086 15.6327C85.4161 15.3775 87.0403 15.5607 87.8478 15.5015C88.5016 15.5909 88.8272 16.2526 89.4074 16.771C89.5174 17.5501 89.4413 17.6304 90.0282 18.1228C90.043 18.3649 90.0447 18.6178 90.0695 18.8575C90.2017 20.1063 89.319 22.7203 87.9428 23.0358C86.9163 23.4841 85.5781 23.4561 84.4854 23.2633C84.4673 24.2335 84.4573 25.2039 84.4557 26.1742L83.3614 26.1359L81.9187 26.1095C81.7961 26.072 81.8391 26.094 81.7495 25.9827C81.747 23.7771 81.669 18.0034 81.8096 15.5672C81.8114 15.536 82.0882 15.5095 82.1592 15.4997C82.7192 15.5143 83.2787 15.5196 83.8391 15.5156Z" fill="var(--fill-0, #101010)"/>
<path id="Vector_9" d="M81.9187 26.1095C81.7961 26.072 81.8391 26.094 81.7495 25.9826C81.747 23.7771 81.669 18.0034 81.8096 15.5672C81.8114 15.536 82.0882 15.5095 82.1592 15.4997C82.1761 16.9615 82.3694 25.1474 82.0189 25.9048C81.9868 25.9741 81.9551 26.0422 81.9187 26.1095Z" fill="var(--fill-0, #101010)"/>
<path id="Vector_10" d="M87.8477 15.5015C88.5015 15.591 88.8272 16.2526 89.4074 16.771C89.5173 17.5501 89.4413 17.6305 90.0281 18.1228C90.043 18.3649 90.0446 18.6178 90.0694 18.8575C90.2017 20.1063 89.319 22.7203 87.9428 23.0358C89.7314 21.0876 89.6115 19.9301 89.4016 17.4511C89.2537 17.3115 89.1892 17.2046 89.0685 17.0442C88.7379 16.6049 88.3098 16.2235 87.9064 15.8509C87.9064 15.8509 87.8519 15.526 87.8477 15.5015Z" fill="var(--fill-0, #101010)"/>
<path id="Vector_11" d="M83.3613 26.1359L83.8515 26.0664C84.025 25.8061 83.7994 23.4934 84.1424 22.9056L84.2804 22.8695C84.4185 22.9731 84.4358 23.0969 84.4854 23.2633C84.4672 24.2335 84.4573 25.2039 84.4557 26.1742L83.3613 26.1359Z" fill="var(--fill-0, #101010)"/>
<path id="Vector_12" d="M83.8391 15.5156C84.2144 15.524 84.278 15.4588 84.5235 15.653L84.6582 16.0099C84.6756 16.1279 84.6657 16.0973 84.6012 16.2259C84.0011 16.2512 83.9515 16.0171 83.8391 15.5156Z" fill="var(--fill-0, #101010)"/>
<path id="Vector_13" d="M84.4913 21.718C84.2061 21.6893 84.1995 21.7306 83.9855 21.5742C83.9598 21.4424 83.9417 21.3093 83.9309 21.1755C83.8697 20.3778 83.8078 18.4358 84.1094 17.6685C84.2764 17.245 84.9211 17.2327 85.3294 17.2646C85.7013 17.2621 86.0063 17.1911 86.2692 17.4703C87.0155 18.2633 86.9039 19.937 86.7477 20.9423C85.9146 21.6655 85.6071 21.6859 84.4913 21.718Z" fill="var(--fill-0, #EAF2EC)"/>
<path id="Vector_14" d="M84.4913 21.718C84.2061 21.6893 84.1995 21.7306 83.9855 21.5742C83.9598 21.4424 83.9417 21.3093 83.9309 21.1755C83.8697 20.3778 83.8078 18.4358 84.1094 17.6685C84.2764 17.245 84.9211 17.2327 85.3294 17.2646C84.8459 17.3956 84.8434 17.4555 84.4715 17.8155C84.4657 19.1085 84.4442 20.4285 84.4913 21.718Z" fill="var(--fill-0, #101010)"/>
<path id="Vector_15" d="M21.416 16.9943C22.136 15.951 22.0197 14.6134 23.8661 13.8608C25.8143 13.0667 28.14 13.1458 30.0719 13.8603L30.6769 13.9147C30.8857 14.1654 30.8287 16.1114 30.7905 16.5208L30.7843 16.5845C30.6047 16.7251 30.4439 16.661 30.161 16.6486C30.0054 16.5712 29.6554 16.2384 29.509 16.1111C28.2656 15.0293 26.4676 14.5386 25.1741 15.8275C24.329 17.2966 24.2887 19.6803 25.3523 21.0467C25.7441 21.372 26.6962 21.6175 27.2132 21.6959L27.333 21.5884C27.4639 21.1453 27.4759 20.0835 27.3967 19.6214C27.2179 19.4615 26.8487 19.4696 26.5703 19.4372L26.3485 19.4332L25.951 19.4158C25.5169 19.0904 25.6958 18.3099 25.8458 17.887C26.0481 17.7221 26.0863 17.7759 26.393 17.7755C27.824 17.7709 29.3699 17.7367 30.7918 17.7733C30.7998 18.4782 30.931 22.4406 30.7025 22.7819C30.5751 22.8165 30.376 22.8767 30.2516 22.8932C28.2632 23.4565 24.4841 23.8589 22.8738 22.2938C21.8052 21.4816 21.4611 21.0145 21.319 19.6364C21.2446 18.9142 21.0581 19.1005 20.7924 18.6003C20.7272 17.9405 21.1448 17.6704 21.416 16.9943Z" fill="var(--fill-0, #101010)"/>
<path id="Vector_16" d="M28.0001 19.4143C28.1446 19.4207 28.4208 19.3965 28.4921 19.5101C28.8688 20.1101 28.7762 20.9461 28.5742 21.5472C28.3259 21.7531 28.3721 21.693 27.9966 21.7083C27.7415 21.7157 27.4694 21.703 27.2131 21.6959L27.333 21.5884C27.4639 21.1453 27.4758 20.0835 27.3966 19.6214C27.2179 19.4615 26.8486 19.4696 26.5703 19.4372C26.9903 19.4319 27.5952 19.441 28.0001 19.4143Z" fill="var(--fill-0, #101010)"/>
<path id="Vector_17" d="M28.0001 19.4143L27.9966 21.7083C27.7415 21.7157 27.4694 21.703 27.2131 21.6959L27.333 21.5884C27.4639 21.1453 27.4758 20.0835 27.3966 19.6214C27.2179 19.4615 26.8486 19.4696 26.5703 19.4372C26.9903 19.4319 27.5952 19.441 28.0001 19.4143Z" fill="var(--fill-0, #101010)"/>
<path id="Vector_18" d="M26.393 17.7755C27.824 17.7709 29.3699 17.7367 30.7918 17.7733C30.7998 18.4782 30.931 22.4406 30.7025 22.7819C30.5751 22.8165 30.376 22.8767 30.2516 22.8932C30.3138 21.2029 30.2824 19.508 30.2987 17.8147C29.098 17.7752 27.5907 17.8335 26.3673 17.847L26.393 17.7755Z" fill="var(--fill-0, #101010)"/>
<path id="Vector_19" d="M24.154 16.7476C24.6464 16.324 24.7685 15.7567 25.0609 15.6622L25.1741 15.8275C24.329 17.2966 24.2886 19.6803 25.3523 21.0468C23.7811 20.3636 23.9725 18.1332 24.154 16.7476Z" fill="var(--fill-0, #101010)"/>
<path id="Vector_20" d="M22.8738 22.2938C21.8052 21.4816 21.4611 21.0145 21.319 19.6364C21.2446 18.9142 21.0581 19.1005 20.7924 18.6004C20.7272 17.9405 21.1448 17.6704 21.416 16.9943C21.307 18.5296 21.296 19.8868 22.1887 21.2419C22.3624 21.5057 22.8165 22.0451 22.8738 22.2938Z" fill="var(--fill-0, #101010)"/>
<path id="Vector_21" d="M30.0719 13.8603L30.6769 13.9147C30.8857 14.1654 30.8287 16.1114 30.7905 16.5208L30.7843 16.5846C30.6047 16.7251 30.4439 16.6611 30.161 16.6487C30.2923 16.0344 30.4063 14.4049 30.0719 13.8603Z" fill="var(--fill-0, #101010)"/>
<path id="Vector_22" d="M26.3485 19.4332L25.951 19.4158C25.5169 19.0904 25.6959 18.3099 25.8458 17.887C26.0482 17.7221 26.0863 17.7759 26.3931 17.7755L26.3674 17.847C26.3136 18.4248 26.3311 18.8558 26.3485 19.4332Z" fill="var(--fill-0, #101010)"/>
<path id="Vector_23" d="M64.9021 15.5404C66.0602 15.5213 67.1295 15.5019 68.2871 15.5537C71.3817 16.1709 71.923 21.2092 69.6415 22.6733C69.4844 22.7728 69.3075 22.837 69.1231 22.8617C67.0616 23.8631 64.4016 23.6476 63.0331 21.6103C62.2657 20.9319 62.0616 20.0427 62.1411 19.0566C62.2238 18.0292 62.7549 17.4012 63.216 16.5406C63.8598 16.1994 64.1721 15.6641 64.9021 15.5404Z" fill="var(--fill-0, #101010)"/>
<path id="Vector_24" d="M68.2871 15.5537C71.3817 16.1709 71.923 21.2092 69.6415 22.6733C69.4844 22.7728 69.3075 22.837 69.1231 22.8617C70.725 21.2585 70.8226 19.6971 70.277 17.5443C69.9885 16.4059 69.1426 16.4189 68.3219 15.8818L68.2871 15.5537Z" fill="var(--fill-0, #101010)"/>
<path id="Vector_25" d="M63.216 16.5406C63.8598 16.1994 64.1721 15.6641 64.9021 15.5404C64.3982 16.4232 64.2666 16.022 63.5917 16.6418C62.6473 17.5089 62.5153 19.8774 62.8389 21.0718C62.8875 21.2567 62.9525 21.4369 63.0331 21.6103C62.2657 20.9319 62.0616 20.0427 62.1411 19.0565C62.2238 18.0292 62.7549 17.4012 63.216 16.5406Z" fill="var(--fill-0, #101010)"/>
<path id="Vector_26" d="M66.6327 17.2362C68.0066 17.3123 68.1929 19.3335 68.1288 20.3758C68.1252 20.4325 68.1206 20.4892 68.115 20.5458C67.3941 21.4446 66.6625 22.2574 65.6041 21.1306C64.4623 20.0011 64.7109 17.4008 66.6327 17.2362Z" fill="var(--fill-0, #EAF2EC)"/>
<path id="Vector_27" d="M65.6041 21.1306C64.4623 20.0011 64.7109 17.4008 66.6327 17.2362C65.9549 17.7955 65.5102 18.1185 65.4281 19.0709C65.3823 19.6018 65.4885 20.6118 65.6041 21.1306Z" fill="var(--fill-0, #101010)"/>
<path id="Vector_28" d="M19.5688 13.3065C19.9064 13.3083 19.9421 13.2501 20.1686 13.4312C20.3868 14.0783 20.3285 14.2341 20.2018 14.9101C19.9569 15.0038 19.8394 14.9928 19.5832 14.9935C18.4461 15.0053 16.8403 15.0627 15.7267 15.0057C15.7451 15.7204 15.7446 16.5557 15.786 17.2592L19.1425 17.2513L19.5585 17.2551C19.908 17.2621 19.9396 17.202 20.1669 17.3953C20.4117 18.0732 20.4056 18.0854 20.1583 18.7661C19.9409 18.9583 19.8966 18.8992 19.5541 18.9102C18.4764 18.9167 17.3986 18.9138 16.321 18.9015L15.7849 18.8965C15.7811 19.7481 15.743 20.886 15.7959 21.7157C16.998 21.7125 18.3821 21.7442 19.5679 21.7043C19.8941 21.7108 19.939 21.656 20.1629 21.8301C20.3414 22.2978 20.4866 22.9148 20.0771 23.3267C19.8617 23.3675 19.7938 23.3696 19.5737 23.3644L12.902 23.3767C12.6956 23.3815 12.6454 23.3878 12.4587 23.3053C12.4455 23.2638 12.4131 23.1542 12.4136 23.0926C12.4383 19.8751 12.4043 16.6577 12.4245 13.441C12.4645 13.3936 12.4977 13.3543 12.5241 13.3231L12.9066 13.3048C15.0294 13.3408 17.4498 13.355 19.5688 13.3065Z" fill="var(--fill-0, #101010)"/>
<path id="Vector_29" d="M12.902 23.3767C12.6956 23.3815 12.6454 23.3878 12.4587 23.3053C12.4455 23.2639 12.4131 23.1542 12.4136 23.0926C12.4383 19.8751 12.4043 16.6578 12.4245 13.441C12.4645 13.3936 12.4977 13.3543 12.5241 13.3231L12.9066 13.3048L12.902 23.3767Z" fill="var(--fill-0, #101010)"/>
<path id="Vector_30" d="M15.7959 21.7157C15.5074 21.7062 15.4339 21.7561 15.2445 21.5948C15.2373 21.2761 15.1818 19.1165 15.3241 18.9328L15.7849 18.8965C15.7811 19.7481 15.743 20.886 15.7959 21.7157Z" fill="var(--fill-0, #101010)"/>
<path id="Vector_31" d="M15.786 17.2592C15.5876 17.2666 15.5526 17.2618 15.3596 17.2143C15.099 16.8441 15.1004 15.4128 15.3968 15.0083C15.4219 14.9739 15.6568 15.0019 15.7267 15.0057C15.7451 15.7204 15.7446 16.5557 15.786 17.2592Z" fill="var(--fill-0, #101010)"/>
<path id="Vector_32" d="M19.568 21.7043C19.8941 21.7108 19.9391 21.656 20.163 21.8301C20.3414 22.2978 20.4867 22.9148 20.0772 23.3267C19.8617 23.3675 19.7939 23.3696 19.5738 23.3644C19.5914 22.8529 19.5712 22.2246 19.568 21.7043Z" fill="var(--fill-0, #101010)"/>
<path id="Vector_33" d="M19.5688 13.3065C19.9064 13.3083 19.9421 13.2501 20.1687 13.4312C20.3868 14.0783 20.3285 14.2341 20.2018 14.9101C19.9569 15.0038 19.8394 14.9928 19.5832 14.9935C19.5856 14.4364 19.5737 13.8648 19.5688 13.3065Z" fill="var(--fill-0, #101010)"/>
<path id="Vector_34" d="M19.5586 17.2551C19.9081 17.2621 19.9397 17.202 20.167 17.3953C20.4118 18.0732 20.4057 18.0854 20.1584 18.7661C19.941 18.9584 19.8966 18.8992 19.5542 18.9102C19.5733 18.3876 19.5595 17.7838 19.5586 17.2551Z" fill="var(--fill-0, #101010)"/>
<path id="Vector_35" d="M19.1425 17.2513L19.5585 17.2551C19.5595 17.7838 19.5733 18.3876 19.5542 18.9102C18.4764 18.9167 17.3986 18.9138 16.321 18.9015C16.9217 18.7991 18.3169 18.8288 18.9826 18.8262C19.0462 18.3182 19.13 17.7592 19.1425 17.2513Z" fill="var(--fill-0, #101010)"/>
<path id="Vector_36" d="M79.4185 15.5133C79.6598 15.5251 79.8294 15.4895 79.996 15.6176C80.053 17.9194 79.9938 20.2359 80.0113 22.5393C80.0132 22.7866 80.0134 23.032 79.9926 23.2786C79.8482 23.4016 79.6176 23.371 79.4197 23.3701C78.9045 23.3821 78.331 23.4046 77.8183 23.3903C77.0263 23.3683 77.2755 23.0205 77.0254 22.7516C76.6214 22.7788 76.3061 23.2145 75.8818 23.2953C75.1921 23.4267 74.2614 23.3729 73.5523 23.329C72.2249 23.2927 72.5583 22.2416 71.6987 21.4328C71.5031 20.4854 71.5565 16.7368 71.667 15.6624C71.8368 15.4796 71.8734 15.5323 72.1765 15.5106C72.8601 15.5126 73.7196 15.5394 74.3889 15.5091C74.6321 15.5227 74.7852 15.4874 74.953 15.6179C75.1726 16.7299 74.7158 19.919 75.0965 21.1867C75.1425 21.34 75.3641 21.5591 75.4869 21.6812C75.6714 21.685 76.0126 21.6491 76.2087 21.6348C77.4464 20.5268 76.3285 17.1119 76.8632 15.5782C76.8771 15.5383 77.1583 15.511 77.2079 15.5036C77.9446 15.5189 78.6816 15.5221 79.4185 15.5133Z" fill="var(--fill-0, #101010)"/>
<path id="Vector_37" d="M79.4185 15.5133C79.6598 15.5251 79.8295 15.4895 79.996 15.6176C80.0531 17.9194 79.9939 20.2359 80.0113 22.5393C80.0132 22.7866 80.0135 23.032 79.9927 23.2786C79.8483 23.4016 79.6177 23.371 79.4198 23.3701C79.4896 20.8638 79.4283 18.0423 79.4185 15.5133Z" fill="var(--fill-0, #101010)"/>
<path id="Vector_38" d="M71.6987 21.4328C71.5031 20.4854 71.5565 16.7368 71.667 15.6624C71.8368 15.4796 71.8734 15.5323 72.1765 15.5106C72.164 16.9937 72.146 18.4835 72.1477 19.9619C72.1487 20.8802 72.1254 22.0057 72.8066 22.6937C73.0454 22.935 73.3206 23.1069 73.5523 23.329C72.2249 23.2927 72.5583 22.2416 71.6987 21.4328Z" fill="var(--fill-0, #101010)"/>
<path id="Vector_39" d="M74.3889 15.5091C74.6321 15.5227 74.7852 15.4874 74.953 15.6179C75.1726 16.7299 74.7158 19.919 75.0965 21.1867C75.1425 21.34 75.3641 21.5591 75.4869 21.6812C74.2583 21.316 74.3745 20.2815 74.375 19.2018C74.3756 17.9715 74.3956 16.7396 74.3889 15.5091Z" fill="var(--fill-0, #101010)"/>
<path id="Vector_40" d="M76.2087 21.6348C77.4464 20.5268 76.3285 17.1119 76.8632 15.5782C76.877 15.5383 77.1583 15.511 77.2079 15.5036C77.1863 17.3784 77.1806 19.2532 77.1905 21.1281C76.8952 21.3037 76.5309 21.5415 76.2087 21.6348Z" fill="var(--fill-0, #101010)"/>
<path id="Vector_41" d="M40.0959 22.8954C38.7724 23.4038 36.8608 23.5831 35.4888 23.2349C34.3752 22.9581 33.423 22.2388 32.8525 21.2438C31.5196 18.9633 31.9744 15.2838 34.4305 13.9115C35.6239 13.1962 36.9283 13.3759 38.217 13.3242C39.4581 13.2744 39.3182 13.6166 40.2004 13.8571C40.3929 13.8685 40.6706 13.852 40.7959 13.9793C40.8416 14.5008 40.8797 16.0603 40.8069 16.5741C40.5906 16.6699 40.5061 16.6651 40.2676 16.6777C39.7773 16.596 39.2761 15.9567 39.0292 15.5572C38.5383 15.3164 38.2396 15.1676 37.7144 14.9969C36.9376 15.1369 36.6941 15.1688 36.0222 15.6193C35.1025 17.3007 35.0421 18.0006 35.4255 19.9762C35.4681 20.1952 35.6309 20.5236 35.6744 20.7484C36.7069 22.0051 38.3007 21.8937 39.3618 20.8208C39.6511 20.5283 39.7916 20.5221 39.9336 20.0956L39.9462 20.0573L40.1778 20.0085L40.7483 19.9999C40.8594 20.1536 40.8761 21.9651 40.8603 22.3242C40.837 22.8487 40.4962 22.8757 40.0959 22.8954Z" fill="var(--fill-0, #101010)"/>
<path id="Vector_42" d="M35.6743 20.7484C34.2096 19.4895 34.453 16.8077 36.0221 15.6193C35.1025 17.3007 35.042 18.0006 35.4255 19.9761C35.468 20.1952 35.6309 20.5235 35.6743 20.7484Z" fill="var(--fill-0, #101010)"/>
<path id="Vector_43" d="M40.1778 20.0085L40.7483 20C40.8593 20.1536 40.8761 21.9651 40.8602 22.3242C40.8369 22.8487 40.4962 22.8757 40.0959 22.8954C40.5247 22.2706 40.2974 20.744 40.1778 20.0085Z" fill="var(--fill-0, #101010)"/>
<path id="Vector_44" d="M40.2004 13.8571C40.3929 13.8685 40.6706 13.852 40.7959 13.9793C40.8416 14.5008 40.8797 16.0603 40.8069 16.5741C40.5906 16.6699 40.5061 16.6651 40.2676 16.6776L40.2435 16.425C40.2898 15.6204 40.3862 14.6353 40.2004 13.8571Z" fill="var(--fill-0, #101010)"/>
<path id="Vector_45" d="M39.0292 15.5572C40.1943 15.6764 39.5325 15.9979 40.2434 16.425L40.2676 16.6776C39.7774 16.596 39.2761 15.9567 39.0292 15.5572Z" fill="var(--fill-0, #101010)"/>
<path id="Vector_46" d="M107.326 31.2468C107.983 31.2151 109.576 31.0787 110.109 31.3201C110.199 31.4591 110.187 31.5363 110.189 31.7018L110.714 31.7945L110.777 31.4299C110.989 31.2088 110.915 31.275 111.266 31.2112C112.042 31.2191 114.621 31.1019 115.153 31.3632L115.23 31.4867L115.179 31.6792C114.888 31.7626 113.312 31.7759 112.91 31.7835L112.892 33.3762C113.5 33.3794 114.705 33.3214 115.174 33.6493L115.167 33.7719C114.658 34.0921 113.503 34.0311 112.897 34.0306L112.885 35.6453C113.223 35.6488 115.026 35.63 115.195 35.7361C115.242 35.9268 115.261 35.9724 115.191 36.1539C114.811 36.2706 111.828 36.243 111.272 36.2462C111.07 36.2461 110.99 36.2195 110.795 36.1678C110.644 35.9528 110.693 35.94 110.698 35.6429C110.43 35.688 110.303 35.6462 110.196 35.9382L110.132 36.137C109.723 36.3458 107.897 36.2622 107.437 36.1332C105.922 35.7076 105.399 34.2387 105.818 32.808C106.066 31.9597 106.601 31.6356 107.326 31.2468Z" fill="var(--fill-0, #101010)"/>
<path id="Vector_47" d="M111.266 31.2112C112.042 31.2191 114.621 31.1019 115.153 31.3632L115.23 31.4867L115.179 31.6792C114.888 31.7626 113.311 31.7759 112.91 31.7835L112.892 33.3762C113.5 33.3794 114.705 33.3213 115.174 33.6493L115.167 33.7719C114.658 34.0921 113.503 34.0311 112.897 34.0306L112.885 35.6453C113.223 35.6488 115.026 35.63 115.195 35.7361C115.242 35.9268 115.26 35.9724 115.191 36.1539C114.811 36.2706 111.828 36.2429 111.272 36.2462C111.07 36.2461 110.99 36.2195 110.795 36.1678C110.644 35.9528 110.693 35.94 110.698 35.6428C110.735 35.3266 110.737 34.7866 110.748 34.4524C110.777 33.937 110.752 33.3283 110.744 32.8056L110.631 32.9087C110.37 32.9301 110.398 32.8827 110.149 32.6924C110.148 32.3849 110.175 32.0143 110.189 31.7018L110.714 31.7945L110.777 31.4299C110.989 31.2088 110.915 31.275 111.266 31.2112Z" fill="var(--fill-0, #101010)"/>
<path id="Vector_48" d="M110.714 31.7945L110.777 31.4299C110.989 31.2088 110.915 31.275 111.266 31.2112C111.285 32.8895 111.286 34.5679 111.272 36.2462C111.07 36.2461 110.99 36.2195 110.795 36.1678C110.644 35.9528 110.693 35.94 110.698 35.6429C110.735 35.3266 110.737 34.7866 110.748 34.4524C110.777 33.937 110.752 33.3283 110.744 32.8056L110.631 32.9087C110.37 32.9301 110.398 32.8827 110.149 32.6924C110.148 32.3849 110.175 32.0143 110.189 31.7018L110.714 31.7945Z" fill="var(--fill-0, #101010)"/>
<path id="Vector_49" d="M110.189 31.7018L110.714 31.7945C110.738 32.1574 110.753 32.4425 110.744 32.8056L110.631 32.9087C110.37 32.9301 110.398 32.8827 110.149 32.6924C110.148 32.3849 110.175 32.0143 110.189 31.7018Z" fill="var(--fill-0, #101010)"/>
<path id="Vector_50" d="M107.326 31.2468L107.474 31.2437L107.566 31.4L107.744 31.3403L107.76 31.4028C107.474 31.5633 107.522 31.482 107.423 31.7361C107.537 31.8875 107.768 31.834 107.874 31.9774C107.138 32.7246 107.391 33.9596 107.403 34.9387C108.904 36.3928 108.776 35.1794 109.974 35.0416C110.088 34.8914 110.111 34.8667 110.153 34.6824C110.27 34.455 110.522 34.4788 110.748 34.4524C110.737 34.7866 110.735 35.3266 110.698 35.6429C110.43 35.688 110.303 35.6462 110.196 35.9381L110.132 36.137C109.723 36.3458 107.897 36.2622 107.437 36.1332C105.922 35.7076 105.399 34.2387 105.818 32.808C106.066 31.9597 106.601 31.6356 107.326 31.2468Z" fill="var(--fill-0, #101010)"/>
<path id="Vector_51" d="M110.153 34.6824C110.27 34.455 110.522 34.4788 110.749 34.4524C110.737 34.7866 110.735 35.3266 110.698 35.6429C110.43 35.688 110.303 35.6462 110.196 35.9381C110.162 35.553 110.163 35.0755 110.153 34.6824Z" fill="var(--fill-0, #101010)"/>
<path id="Vector_52" d="M107.326 31.2468C107.983 31.2151 109.577 31.0787 110.109 31.3201C110.199 31.4591 110.187 31.5363 110.189 31.7018C110.175 32.0143 110.148 32.3849 110.149 32.6924L110.031 32.7392C109.63 32.628 109.177 32.018 108.909 31.6903C108.499 31.7786 108.268 31.8383 107.874 31.9774C107.768 31.834 107.537 31.8875 107.423 31.7361C107.522 31.482 107.474 31.5633 107.76 31.4028L107.744 31.3403L107.566 31.4L107.474 31.2437L107.326 31.2468Z" fill="var(--fill-0, #101010)"/>
<path id="Vector_53" d="M61.5161 15.5075C61.651 15.5159 61.9267 15.499 61.9919 15.6021C62.2558 16.0191 62.2861 16.9305 61.9165 17.2568L61.5282 17.2691L60.0175 17.2734C59.5756 17.4472 59.622 17.424 59.3385 17.9106C59.2714 19.4963 59.3032 21.0861 59.3161 22.673C59.3178 22.8825 59.3224 23.0853 59.274 23.2904C59.1011 23.3967 58.9537 23.3734 58.7518 23.3669L56.5129 23.3799C56.2472 23.3608 56.187 23.3989 55.9873 23.2569C55.9556 22.8121 55.9522 22.3361 55.9603 21.8899C55.998 19.8221 55.891 17.7013 55.9832 15.6392C56.1863 15.4827 56.2391 15.5271 56.5271 15.5087C57.1282 15.5086 58.3846 15.3734 58.7577 15.7235C58.8054 15.9359 58.8132 16.0159 58.94 16.1901C59.1586 16.1124 59.1534 16.0628 59.3158 15.8773L59.5373 16.0314L59.7172 15.977L59.7731 15.6141C60.0569 15.4685 61.1315 15.5083 61.5161 15.5075Z" fill="var(--fill-0, #101010)"/>
<path id="Vector_54" d="M56.5129 23.3799C56.2472 23.3608 56.187 23.3989 55.9873 23.2569C55.9556 22.8121 55.9522 22.3361 55.9603 21.8899C55.998 19.8221 55.891 17.7013 55.9832 15.6392C56.1863 15.4827 56.2391 15.5271 56.5271 15.5087C56.5164 18.0887 56.5641 20.8179 56.5129 23.3799Z" fill="var(--fill-0, #101010)"/>
<path id="Vector_55" d="M58.8103 17.3838C59.2312 17.3294 59.5942 17.3005 60.0175 17.2734C59.5756 17.4472 59.6219 17.424 59.3384 17.9106C59.2714 19.4963 59.3031 21.0861 59.316 22.673C59.3178 22.8825 59.3224 23.0853 59.274 23.2904C59.1011 23.3967 58.9537 23.3735 58.7518 23.3669C58.7523 21.5589 58.6827 19.1451 58.8103 17.3838Z" fill="var(--fill-0, #101010)"/>
<path id="Vector_56" d="M61.5162 15.5075C61.6511 15.5159 61.9267 15.499 61.9919 15.6021C62.2559 16.0192 62.2862 16.9305 61.9166 17.2569L61.5283 17.2691C61.5495 16.6396 61.5423 16.1373 61.5162 15.5075Z" fill="var(--fill-0, #101010)"/>
<path id="Vector_57" d="M54.6778 36.1573C54.4104 35.9778 53.9987 35.7125 53.803 35.4794C52.9793 34.5084 52.9165 32.6732 53.9159 31.8026C54.8697 30.9719 56.5725 31.1821 57.7704 31.2651C58.1912 31.3758 58.0374 31.4147 58.3243 31.6268C58.7656 31.9531 58.5562 32.606 59.3101 32.556C59.4511 32.5466 59.7484 32.3812 59.9401 32.3439C59.7794 32.6143 59.3638 33.0403 59.2848 33.2057C58.5233 33.6945 58.7203 34.1374 58.7825 34.9662C58.4713 35.3588 58.4552 35.6362 58.1752 36.0301L58.1319 36.1324C57.7041 36.3741 55.2497 36.2083 54.6778 36.1573Z" fill="var(--fill-0, #101010)"/>
<path id="Vector_58" d="M57.7703 31.2651C58.1911 31.3759 58.0374 31.4148 58.3243 31.6268C58.7655 31.9531 58.5561 32.606 59.3101 32.556C59.4511 32.5466 59.7484 32.3812 59.94 32.3439C59.7794 32.6143 59.3637 33.0403 59.2848 33.2057C58.5233 33.6945 58.7203 34.1374 58.7824 34.9662C58.4712 35.3588 58.4551 35.6362 58.1752 36.0301C58.215 35.3715 58.1995 34.6864 58.1947 34.0244C57.2369 33.9998 56.3005 33.995 55.3471 34.099L55.2235 34.4259C55.0756 34.4599 54.9644 34.3788 54.8266 34.3072C54.8207 33.7688 54.8538 33.4123 54.9073 32.882C55.2463 32.4674 55.3735 32.3097 55.6304 31.8238C55.9789 31.7927 56.2754 31.7863 56.6186 31.7758C57.3368 31.7538 57.4107 32.8162 58.0356 32.8598C58.4515 32.38 58.0631 31.8318 57.7223 31.4763L57.7703 31.2651Z" fill="var(--fill-0, #101010)"/>
<path id="Vector_59" d="M54.8267 34.3072C54.9645 34.3788 55.0756 34.4599 55.2236 34.4259L55.3471 34.099C55.5413 34.5647 56.0458 34.4446 56.5488 34.5071L56.6245 35.6223C55.9487 35.6712 55.7585 35.7797 55.2618 35.2563L54.8267 34.3072Z" fill="var(--fill-0, #101010)"/>
<path id="Vector_60" d="M55.2617 35.2563C54.4292 35.0516 54.1937 34.2518 54.3526 33.4725C54.5432 32.5376 54.891 32.3187 55.6304 31.8238C55.3735 32.3097 55.2464 32.4674 54.9073 32.882C54.8538 33.4123 54.8207 33.7688 54.8267 34.3072L55.2617 35.2563Z" fill="var(--fill-0, #101010)"/>
<path id="Vector_61" d="M115.804 35.0769C115.802 34.255 115.737 32.0138 115.832 31.324C116.016 31.1825 116.053 31.2216 116.308 31.204C116.99 31.2163 119.796 31.117 120.214 31.3312C120.242 31.4353 120.276 31.5416 120.286 31.6484C120.547 31.7385 120.717 31.7422 120.83 31.9964C121.035 32.4602 120.946 32.7662 120.781 33.2205C120.66 33.554 120.503 33.4262 120.252 33.6773C120.072 35.1884 120.748 35.0993 121.526 36.1561C120.963 36.2152 119.86 36.3901 119.426 35.9974C119.114 35.7142 118.586 34.5469 118.096 34.3512C118.045 35.0046 118.036 35.5513 118.034 36.2076C117.665 36.2246 117.188 36.26 116.829 36.2478L116.309 36.2605C116.074 36.244 116.022 36.2455 115.836 36.1061C115.689 35.8507 115.775 35.3899 115.804 35.0769Z" fill="var(--fill-0, #101010)"/>
<path id="Vector_62" d="M115.804 35.0769C115.802 34.255 115.737 32.0138 115.832 31.324C116.016 31.1825 116.053 31.2215 116.308 31.2039L116.298 34.2134L116.309 36.2605C116.074 36.244 116.022 36.2455 115.836 36.1061C115.689 35.8507 115.775 35.3899 115.804 35.0769Z" fill="var(--fill-0, #101010)"/>
<path id="Vector_63" d="M116.829 36.2478C118.179 36.1475 117.18 34.7912 117.615 34.1948C117.873 34.1421 117.827 34.1773 118.096 34.3512C118.045 35.0046 118.036 35.5513 118.033 36.2076C117.665 36.2246 117.188 36.26 116.829 36.2478Z" fill="var(--fill-0, #101010)"/>
<path id="Vector_64" d="M120.286 31.6483C120.547 31.7385 120.717 31.7422 120.83 31.9964C121.035 32.4602 120.946 32.7662 120.781 33.2205C120.66 33.5539 120.503 33.4262 120.252 33.6773C120.242 32.9322 120.333 32.5266 120.286 31.6483Z" fill="var(--fill-0, #101010)"/>
<path id="Vector_65" d="M117.476 31.7465C118.017 31.7272 118.33 31.7181 118.877 31.7722L119.079 31.8368C119.214 32.1391 119.123 32.9816 119.101 33.3619L118.004 33.4009C117.699 33.3848 117.754 33.4301 117.54 33.2807C117.377 32.8699 117.457 32.2153 117.476 31.7465Z" fill="var(--fill-0, #101010)"/>
<path id="Vector_66" d="M117.476 31.7465C118.017 31.7272 118.33 31.7181 118.877 31.7722C118.441 31.7727 118.407 31.7001 118.105 31.9041C117.935 32.208 118.005 32.9841 118.004 33.4009C117.699 33.3848 117.754 33.4301 117.54 33.2807C117.377 32.8699 117.457 32.2153 117.476 31.7465Z" fill="var(--fill-0, #101010)"/>
<path id="Vector_67" d="M152.021 32.3044L152.722 32.2997L155.877 32.31C157.416 32.3895 157.314 34.8932 156.542 35.7632C156.329 36.0021 156.161 36.103 155.863 36.2154C155.405 36.2286 154.803 36.2638 154.357 36.2459C154.35 36.6972 154.423 37.3794 154.297 37.7316C154.094 37.8945 154.079 37.8484 153.788 37.8678C153.14 37.945 152.697 37.8879 152.05 37.8306C152.06 37.2664 152.062 36.7518 152.044 36.1878C151.963 35.3294 152.022 33.2529 152.021 32.3044Z" fill="var(--fill-0, #101010)"/>
<path id="Vector_68" d="M152.021 32.3044L152.722 32.2997C152.702 34.1506 152.695 36.0014 152.703 37.8523L153.788 37.8678C153.14 37.945 152.697 37.8879 152.05 37.8306C152.06 37.2664 152.062 36.7518 152.044 36.1878C151.963 35.3294 152.022 33.2529 152.021 32.3044Z" fill="var(--fill-0, #101010)"/>
<path id="Vector_69" d="M155.877 32.3101C157.416 32.3895 157.313 34.8932 156.542 35.7632C156.329 36.0021 156.16 36.103 155.863 36.2154C155.928 36.0095 156.183 35.7717 156.301 35.539C156.72 34.7165 156.611 34.0358 156.547 33.1684C156.248 32.839 156.11 32.6852 155.877 32.3101Z" fill="var(--fill-0, #101010)"/>
<path id="Vector_70" d="M153.788 37.8678C153.808 37.3617 153.631 36.5638 153.995 36.2262L154.357 36.2459C154.35 36.6972 154.423 37.3794 154.297 37.7316C154.094 37.8945 154.079 37.8484 153.788 37.8678Z" fill="var(--fill-0, #101010)"/>
<path id="Vector_71" d="M154.514 32.8683L154.677 32.87C154.956 33.2614 155.275 33.4992 155.348 33.9871C155.442 34.6231 155.361 35.1121 154.807 35.4983C154.723 35.5565 154.638 35.6131 154.552 35.6679L153.804 35.6398C153.816 34.8969 153.681 34.0444 153.871 33.3356C153.973 32.9554 154.175 32.9544 154.514 32.8683Z" fill="var(--fill-0, #101010)"/>
<path id="Vector_72" d="M153.804 35.6398C153.816 34.8969 153.681 34.0444 153.871 33.3356C153.973 32.9554 154.175 32.9544 154.514 32.8683C154.367 33.2156 154.326 35.2946 154.536 35.6406L154.552 35.6679L153.804 35.6398Z" fill="var(--fill-0, #101010)"/>
<path id="Vector_73" d="M30.2556 33.425C30.227 33.0957 30.1874 32.871 30.2822 32.552C30.5131 32.3107 30.422 32.3827 30.7705 32.2888C31.8122 32.332 32.9149 32.3085 33.9617 32.3032C34.3897 32.3258 34.4781 32.2714 34.8248 32.624C34.96 32.7616 35.2559 33.2723 35.2968 33.4439C35.3532 33.9829 35.4245 34.5312 35.2907 35.0655C34.9761 35.5545 34.6397 36.0679 34.0551 36.1984L34.032 36.2034C33.4359 36.2627 32.9697 36.253 32.3722 36.2454L32.3621 37.7657C31.7265 37.8613 31.4303 37.8752 30.787 37.8737C30.6404 37.8615 30.5338 37.8288 30.3927 37.7911C30.1134 37.4083 30.2363 35.669 30.247 35.1385L30.2556 33.425Z" fill="var(--fill-0, #101010)"/>
<path id="Vector_74" d="M30.2556 33.425C30.227 33.0957 30.1874 32.871 30.2822 32.552C30.5131 32.3107 30.422 32.3827 30.7705 32.2888C30.7887 34.0505 30.8394 36.126 30.787 37.8737C30.6404 37.8615 30.5338 37.8288 30.3927 37.7911C30.1134 37.4083 30.2363 35.669 30.247 35.1385L30.2556 33.425Z" fill="var(--fill-0, #101010)"/>
<path id="Vector_75" d="M33.9616 32.3032C34.3897 32.3257 34.478 32.2714 34.8248 32.624C34.96 32.7616 35.2559 33.2723 35.2967 33.4439C35.3532 33.9829 35.4244 34.5312 35.2907 35.0655C34.976 35.5545 34.6397 36.0679 34.055 36.1984L34.032 36.2034C34.125 35.9386 34.5357 35.4652 34.7286 35.2227C34.8111 34.6186 34.7976 33.9219 34.8028 33.3052C34.5356 33.016 34.132 32.4796 33.9616 32.3032Z" fill="var(--fill-0, #101010)"/>
<path id="Vector_76" d="M32.4516 33.1243L32.5396 32.8644C33.8378 32.5087 33.5846 34.4473 33.5443 35.1038C33.1439 35.4626 32.9991 35.6187 32.4551 35.7117C32.3026 35.6897 32.241 35.6668 32.0974 35.6178C31.8482 35.1928 31.9042 33.8976 32.0784 33.4227C32.0514 33.496 32.3671 33.2496 32.4516 33.1243Z" fill="var(--fill-0, #EAF2EC)"/>
<path id="Vector_77" d="M32.4516 33.1244C32.4499 33.8193 32.4066 35.0611 32.4551 35.7117C32.3026 35.6897 32.241 35.6668 32.0974 35.6178C31.8482 35.1928 31.9042 33.8976 32.0784 33.4227C32.0514 33.4961 32.3671 33.2496 32.4516 33.1244Z" fill="var(--fill-0, #101010)"/>
<path id="Vector_78" d="M137.525 32.3044C137.788 32.311 137.887 32.2676 138.075 32.4049C138.189 33.3195 138.152 35.4175 138.017 36.3763C137.991 36.556 137.737 36.8698 137.619 37.0213C137.469 37.2142 137.316 37.4054 137.16 37.595C136.631 38.0176 133.944 38.053 133.658 37.5526C134.021 37.3587 135.408 37.3512 135.861 37.346C135.873 37.0095 135.935 36.6007 135.976 36.2603C134.257 36.256 134.129 36.4668 133.429 34.867L133.419 34.9239C132.715 33.5876 133.709 33.2726 134.317 32.3167C135.359 32.2907 136.477 32.3068 137.525 32.3044Z" fill="var(--fill-0, #101010)"/>
<path id="Vector_79" d="M137.525 32.3044C137.788 32.3111 137.887 32.2676 138.075 32.4049C138.189 33.3195 138.152 35.4175 138.017 36.3763C137.991 36.556 137.737 36.8698 137.619 37.0213C137.469 37.2142 137.316 37.4054 137.16 37.595C137.194 36.6695 137.457 37.1124 137.502 36.3818C137.582 35.056 137.54 33.6375 137.525 32.3044Z" fill="var(--fill-0, #101010)"/>
<path id="Vector_80" d="M135.589 32.8456C135.938 32.7882 136.101 32.7906 136.455 32.7967C136.471 33.7446 136.474 34.6928 136.465 35.6408C136.149 35.6494 135.682 35.6757 135.382 35.6406C135.113 35.6173 135.148 35.6596 134.958 35.5196C134.677 34.7075 134.632 33.3747 135.486 32.898L135.589 32.8456Z" fill="var(--fill-0, #101010)"/>
<path id="Vector_81" d="M135.382 35.6406C135.113 35.6173 135.148 35.6596 134.958 35.5196C134.677 34.7076 134.632 33.3747 135.486 32.898C135.443 33.3997 135.295 35.1486 135.461 35.5925L135.382 35.6406Z" fill="var(--fill-0, #101010)"/>
<path id="Vector_82" d="M135.589 32.8456L135.745 32.9346C135.828 33.4037 135.911 35.1435 135.711 35.5564L135.461 35.5925C135.295 35.1486 135.443 33.3997 135.486 32.898L135.589 32.8456Z" fill="var(--fill-0, #101010)"/>
<path id="Vector_83" d="M19.0877 32.3832C19.2227 32.3048 19.3663 32.3002 19.522 32.2812C19.67 32.3111 20.2407 32.3011 20.4229 32.3013L21.3101 32.3064L21.6582 32.3136C21.9896 32.6657 21.9344 35.7117 21.8074 36.1824C21.6606 36.2804 21.435 36.2486 21.251 36.2424L20.201 36.2377C19.3518 36.2688 18.3852 36.2287 17.5273 36.2115C16.8029 35.5826 16.5657 32.9344 17.0275 32.3128L17.3614 32.292L18.5097 32.3093C18.6801 32.3135 18.9615 32.2947 19.0877 32.3832Z" fill="var(--fill-0, #101010)"/>
<path id="Vector_84" d="M19.0878 32.3832C19.2227 32.3048 19.3664 32.3002 19.5221 32.2812C19.67 32.3111 20.2408 32.3011 20.423 32.3013L20.4071 32.351C20.3927 32.3666 20.255 32.5147 20.255 32.5147C20.2007 33.5533 20.2396 34.615 20.2219 35.6563C19.9492 35.6686 19.2958 35.7209 19.0667 35.6554L19.164 35.6044C19.0627 35.2013 19.0871 32.9544 19.0878 32.3832Z" fill="var(--fill-0, #EAF2EC)"/>
<path id="Vector_85" d="M19.0877 32.3832C19.2227 32.3048 19.3664 32.3002 19.5221 32.2812C19.5366 32.9002 19.6446 35.0785 19.4526 35.5556C19.3236 35.6033 19.3003 35.6156 19.164 35.6044C19.0627 35.2013 19.0871 32.9544 19.0877 32.3832Z" fill="var(--fill-0, #EAF2EC)"/>
<path id="Vector_86" d="M21.3101 32.3064L21.6582 32.3136C21.9896 32.6657 21.9344 35.7117 21.8074 36.1824C21.6606 36.2804 21.435 36.2486 21.251 36.2424C21.4074 36.0136 21.3166 32.8138 21.3101 32.3064Z" fill="var(--fill-0, #101010)"/>
<path id="Vector_87" d="M20.423 32.3013L21.3101 32.3064C21.3166 32.8139 21.4075 36.0137 21.251 36.2424L20.201 36.2377C20.3921 36.1834 20.6375 36.1966 20.8024 36.0896C20.7503 35.4395 20.9403 32.7427 20.8023 32.4429L20.4071 32.351L20.423 32.3013Z" fill="var(--fill-0, #101010)"/>
<path id="Vector_88" d="M18.5097 32.3093C18.6801 32.3135 18.9615 32.2947 19.0877 32.3832C19.087 32.9544 19.0627 35.2013 19.164 35.6044L19.0666 35.6554C18.8889 35.6381 18.7944 35.6414 18.6425 35.5462C18.4011 35.0656 18.5119 32.9422 18.5097 32.3093Z" fill="var(--fill-0, #EAF2EC)"/>
<path id="Vector_89" d="M17.5273 36.2115C16.8029 35.5826 16.5657 32.9344 17.0275 32.3128L17.3614 32.292C17.348 33.2918 17.3364 34.2884 17.4256 35.2864C17.4504 35.5644 17.5734 35.9659 17.5273 36.2115Z" fill="var(--fill-0, #101010)"/>
<path id="Vector_90" d="M83.9572 32.3134C84.5689 32.302 85.7458 32.1494 86.1814 32.4777L86.3996 32.9697L86.7079 32.5576L86.822 32.7539C86.9493 32.7703 87.084 32.7842 87.2088 32.811C87.2171 32.9136 87.2551 33.1919 87.2096 33.2622C87.0708 33.3093 86.86 33.3458 86.8294 33.4753C86.6641 34.1777 86.7509 35.5069 86.7699 36.2253L85.1326 36.2524L84.4598 36.2353L83.7473 36.2512C83.201 36.2516 82.7257 36.2656 82.1838 36.1778L82.1973 32.3427C82.7736 32.3082 83.3787 32.3159 83.9572 32.3134Z" fill="var(--fill-0, #101010)"/>
<path id="Vector_91" d="M82.1973 32.3427C82.7736 32.3082 83.3787 32.3159 83.9572 32.3134C83.8787 32.7607 83.987 32.8968 84.4474 33.0614L84.4589 33.3429L84.4598 36.2353L83.7473 36.2512C83.201 36.2516 82.7257 36.2656 82.1838 36.1778L82.1973 32.3427Z" fill="var(--fill-0, #101010)"/>
<path id="Vector_92" d="M84.459 33.3429L84.4598 36.2353L83.7473 36.2512C84.0218 36.0925 83.9044 33.7841 83.9019 33.3637L84.459 33.3429Z" fill="var(--fill-0, #101010)"/>
<path id="Vector_93" d="M83.3183 36.1314C83.2935 35.4881 83.3101 34.4161 83.4655 33.7853C83.5374 33.494 83.6613 33.4845 83.9019 33.3637C83.9043 33.7841 84.0217 36.0925 83.7473 36.2512C83.201 36.2516 82.7257 36.2656 82.1838 36.1779C82.4508 36.1351 83.0241 36.1377 83.3183 36.1314Z" fill="var(--fill-0, #101010)"/>
<path id="Vector_94" d="M84.4475 33.0614C84.5227 32.8874 84.545 32.8725 84.7021 32.7646C84.9169 32.8671 84.907 32.818 84.9748 33.0161C85.1864 33.6329 84.9889 35.7428 85.1186 36.1924L85.1327 36.2524L84.4599 36.2354L84.459 33.3429L84.4475 33.0614Z" fill="var(--fill-0, #101010)"/>
<path id="Vector_95" d="M86.708 32.5576L86.822 32.7539C86.9493 32.7703 87.0841 32.7842 87.2089 32.811C87.2171 32.9136 87.2551 33.1919 87.2097 33.2622C87.0708 33.3093 86.8601 33.3458 86.8295 33.4753C86.6642 34.1778 86.751 35.5069 86.77 36.2253L85.1326 36.2524L85.1186 36.1924L86.2567 36.1752C86.2526 35.3794 86.2121 34.4145 86.3096 33.6247C86.346 33.3303 86.6353 33.3555 86.6551 33.0608L86.3997 32.9697L86.708 32.5576Z" fill="var(--fill-0, #101010)"/>
<path id="Vector_96" d="M151.535 32.3098L152.021 32.3044C152.022 33.2529 151.963 35.3294 152.044 36.1878L151.614 36.2269C150.29 36.1934 149.051 36.2506 147.677 36.1943C147.63 35.8821 147.195 35.5332 146.958 34.9864C147.017 34.6805 146.981 33.8644 146.974 33.5164C147.018 33.1035 146.912 32.8142 147.05 32.4385C147.261 32.2579 147.265 32.3105 147.583 32.2961L148.644 32.3071C148.905 32.3125 149.116 32.2698 149.304 32.3936C149.602 33.1884 148.985 35.2293 149.596 35.6308L149.838 35.62C149.92 35.027 149.866 33.0193 149.861 32.3072C150.405 32.2964 150.987 32.3082 151.535 32.3098Z" fill="var(--fill-0, #101010)"/>
<path id="Vector_97" d="M148.644 32.3071C148.905 32.3125 149.116 32.2698 149.304 32.3937C149.602 33.1885 148.984 35.2294 149.596 35.6308L149.837 35.6201L149.838 35.6721C149.475 35.6881 149.064 35.6275 148.699 35.5846C148.667 34.4924 148.648 33.3998 148.644 32.3071Z" fill="var(--fill-0, #101010)"/>
<path id="Vector_98" d="M146.974 33.5164C147.018 33.1035 146.912 32.8142 147.05 32.4385C147.261 32.2579 147.265 32.3105 147.583 32.2961C147.555 33.381 147.55 34.4673 147.638 35.5502C147.656 35.764 147.693 35.9797 147.677 36.1943C147.63 35.8821 147.195 35.5332 146.958 34.9864C147.017 34.6805 146.981 33.8644 146.974 33.5164Z" fill="var(--fill-0, #101010)"/>
<path id="Vector_99" d="M149.861 32.3072C150.405 32.2964 150.987 32.3082 151.535 32.3098L151.528 32.3503L150.351 32.3525C150.392 33.1551 150.546 34.8286 150.297 35.5293C150.091 35.7029 150.161 35.6521 149.838 35.6721L149.838 35.62C149.92 35.027 149.866 33.0193 149.861 32.3072Z" fill="var(--fill-0, #101010)"/>
<path id="Vector_100" d="M151.535 32.3098L152.021 32.3044C152.022 33.2529 151.963 35.3294 152.044 36.1878L151.614 36.2269C151.585 35.5611 151.673 32.7706 151.528 32.3503L151.535 32.3098Z" fill="var(--fill-0, #101010)"/>
<path id="Vector_101" d="M39.7863 33.168C40.1232 33.098 40.1555 32.6932 40.2967 32.3855C40.4872 32.2423 40.5855 32.2681 40.8299 32.2836C41.6876 32.3262 42.5867 32.3069 43.4485 32.3016C44.4482 32.294 43.8799 32.298 44.4256 32.9024C44.4515 32.9311 44.82 32.8845 44.8221 33.0354C44.9108 33.8592 44.8584 35.4586 44.8507 36.2192C44.0686 36.2347 41.5436 36.3169 40.8498 36.1906C40.8289 35.7473 40.7905 35.7433 40.4424 35.5309C40.3371 35.453 40.2957 35.2652 40.2428 35.1236L40.2749 34.998C40.1693 34.1217 40.6372 33.8283 39.7697 33.2543L39.7863 33.168Z" fill="var(--fill-0, #101010)"/>
<path id="Vector_102" d="M39.7863 33.168C40.1232 33.098 40.1555 32.6932 40.2967 32.3855C40.4872 32.2423 40.5855 32.2681 40.8299 32.2836C40.8441 32.6162 40.7865 32.6162 40.9836 32.8151C41.89 33.0992 42.9913 32.6753 43.2734 33.1367C42.9986 33.5278 41.4642 33.147 40.9996 34.0081C40.8525 34.2809 40.3898 34.2804 40.2749 34.998C40.1693 34.1217 40.6372 33.8283 39.7697 33.2543L39.7863 33.168Z" fill="var(--fill-0, #101010)"/>
<path id="Vector_103" d="M43.4486 32.3016C44.4483 32.294 43.8799 32.298 44.4256 32.9024C44.4516 32.9311 44.82 32.8845 44.8221 33.0354C44.9109 33.8592 44.8584 35.4586 44.8508 36.2192C44.0686 36.2347 41.5436 36.3169 40.8498 36.1906C41.9339 36.1516 43.1906 36.1808 44.2877 36.1821C44.282 35.2879 44.3201 33.7639 44.1836 32.9389C43.8502 32.7202 43.7289 32.5888 43.4486 32.3016Z" fill="var(--fill-0, #101010)"/>
<path id="Vector_104" d="M42.0162 34.0438L43.138 33.9995C43.1353 34.4464 43.0586 35.1601 43.0209 35.6262C41.6838 35.7665 41.795 35.1815 42.0162 34.0438Z" fill="var(--fill-0, #101010)"/>
<path id="Vector_105" d="M69.6808 32.3172C70.471 32.2941 71.2617 32.2954 72.0519 32.321C72.3131 32.6055 72.6213 32.8934 72.7266 33.2619C72.9246 33.4376 73.0826 33.4311 73.3425 33.4585L73.337 35.1726L73.3193 36.2254C72.7705 36.2409 71.7489 36.2958 71.2457 36.2447C70.6615 36.2534 70.2174 36.2194 69.6361 36.1726C69.0583 35.5702 68.6175 35.3851 68.2356 34.7073C68.2172 34.3967 68.2281 33.9954 68.2279 33.6772C68.6231 33.1529 69.1654 32.8806 69.6808 32.3172Z" fill="var(--fill-0, #101010)"/>
<path id="Vector_106" d="M72.7267 33.262C72.9247 33.4376 73.0827 33.4311 73.3426 33.4585L73.3371 35.1726C73.1138 35.168 72.8155 35.1165 72.5885 35.0844C72.2534 35.2324 72.3061 35.2567 72.0611 35.5751C71.3875 35.7278 70.8958 35.8874 70.4132 35.2579C70.4197 35.2664 70.1387 35.2155 70.0142 35.0988C69.9437 34.8011 69.922 34.9 70.0548 34.6661C70.5474 34.358 72.0141 34.466 72.6873 34.4591C72.6726 33.9835 72.6759 33.7336 72.7267 33.262Z" fill="var(--fill-0, #101010)"/>
<path id="Vector_107" d="M72.5885 35.0844C72.8154 35.1165 73.1138 35.168 73.337 35.1726L73.3194 36.2254C72.7705 36.2409 71.7489 36.2958 71.2458 36.2447C71.5916 36.2087 72.2869 36.2049 72.6578 36.1926C72.6585 35.7511 72.6571 35.5178 72.5885 35.0844Z" fill="var(--fill-0, #101010)"/>
<path id="Vector_108" d="M93.2376 32.2978C94.0683 32.3191 93.9799 32.8104 94.6006 33.3656L94.6179 34.4398L94.6287 35.1503L94.6155 36.2253C93.6021 36.2477 92.1772 36.3093 91.2052 36.2236C90.7399 36.1103 90.3225 35.6161 90.01 35.2675C89.8307 34.2253 89.8704 34.115 90.0968 33.0756C91.1994 32.0565 91.6656 32.2791 93.2376 32.2978Z" fill="var(--fill-0, #101010)"/>
<path id="Vector_109" d="M93.9526 34.473L94.6179 34.4399L94.6287 35.1503L93.8707 35.1119C93.4823 35.2526 93.622 35.2096 93.3533 35.6002C92.6624 35.7658 91.0804 35.6278 91.3093 34.6649C91.7168 34.4221 93.3889 34.4764 93.9526 34.473Z" fill="var(--fill-0, #101010)"/>
<path id="Vector_110" d="M93.2376 32.2978C94.0682 32.3191 93.9798 32.8104 94.6005 33.3656L94.6179 34.4399L93.9525 34.473C93.9608 34.03 93.9178 33.5152 93.8913 33.0676C93.6483 32.84 93.3491 32.6031 93.2376 32.2978Z" fill="var(--fill-0, #101010)"/>
<path id="Vector_111" d="M93.8707 35.1119L94.6286 35.1503L94.6154 36.2254C93.6021 36.2477 92.1771 36.3094 91.2051 36.2236C92.1118 36.2191 93.0185 36.2083 93.9252 36.1915C93.9195 35.8518 93.888 35.4562 93.8707 35.1119Z" fill="var(--fill-0, #101010)"/>
<path id="Vector_112" d="M37.9025 32.2978C38.3614 32.286 38.9642 32.2171 39.2528 32.5662C39.4078 32.7538 39.6985 32.9585 39.7864 33.168L39.7697 33.2543C40.6372 33.8283 40.1693 34.1217 40.2749 34.998L40.2429 35.1236C40.2957 35.2652 40.3372 35.453 40.4424 35.5309C40.3616 35.8611 40.3939 35.9833 40.1783 36.1758L39.7792 36.2196C37.9301 36.1955 37.2339 36.7212 35.7732 35.3362L35.2907 35.0655C35.4244 34.5312 35.3532 33.9829 35.2967 33.4439L35.6872 33.3274C35.8009 33.1779 36.4986 32.5385 36.7022 32.3298L37.9025 32.2978Z" fill="var(--fill-0, #101010)"/>
<path id="Vector_113" d="M39.7697 33.2543C40.6372 33.8283 40.1693 34.1217 40.2749 34.998L40.2429 35.1236L39.7479 35.0793C39.2644 35.2136 39.3756 35.1726 39.0714 35.5712C38.5143 35.6963 37.7291 35.8889 37.4375 35.2405C37.3945 35.145 37.1255 35.2063 36.9091 34.8867L36.9615 34.718C37.402 34.3993 39.1845 34.4682 39.8456 34.4558C39.8022 34.0881 39.7899 33.6307 39.7697 33.2543Z" fill="var(--fill-0, #101010)"/>
<path id="Vector_114" d="M36.7022 32.3298L37.9025 32.2978C37.1941 32.5437 37.5914 32.7407 37.0316 32.891C36.3772 33.0667 36.1852 32.8694 35.7865 33.5687L35.6872 33.3274C35.8009 33.1779 36.4986 32.5385 36.7022 32.3298Z" fill="var(--fill-0, #101010)"/>
<path id="Vector_115" d="M35.2967 33.4439L35.6872 33.3274L35.7865 33.5687C35.6522 34.2165 35.7068 34.6791 35.7732 35.3362L35.2907 35.0655C35.4244 34.5312 35.3532 33.9829 35.2967 33.4439Z" fill="var(--fill-0, #101010)"/>
<path id="Vector_116" d="M39.7479 35.0793L40.2429 35.1236C40.2957 35.2652 40.3372 35.4529 40.4424 35.5309C40.3617 35.8611 40.394 35.9832 40.1783 36.1758L39.7792 36.2196C39.7796 35.8298 39.7662 35.4687 39.7479 35.0793Z" fill="var(--fill-0, #101010)"/>
<path id="Vector_117" d="M145.268 32.2859C146.332 32.2952 146.247 33.2566 146.975 33.5164C146.981 33.8644 147.018 34.6805 146.958 34.9864C146.551 35.3074 145.865 36.2438 145.461 36.1766C142.86 36.603 141.915 36.0763 142.099 33.3538L142.696 32.3606C143.394 32.2846 144.545 32.2971 145.268 32.2859Z" fill="var(--fill-0, #101010)"/>
<path id="Vector_118" d="M145.268 32.2859C146.332 32.2952 146.247 33.2566 146.975 33.5164C146.981 33.8644 147.018 34.6805 146.958 34.9864C146.551 35.3074 145.864 36.2438 145.461 36.1766C145.402 35.6745 146.231 35.3582 146.49 34.715C147.069 33.2786 145.598 33.1917 145.268 32.2859Z" fill="var(--fill-0, #101010)"/>
<path id="Vector_119" d="M143.87 32.8503C144.098 32.8647 144.573 32.8571 144.719 33.0009C144.973 33.6048 144.872 34.9463 144.774 35.6073C144.473 35.622 144.11 35.6706 143.844 35.5513C143.506 35.1325 143.644 33.3364 143.87 32.8503Z" fill="var(--fill-0, #101010)"/>
<path id="Vector_120" d="M62.0465 32.2929C63.1083 32.3042 63.0187 33.1955 63.5658 33.291C63.8039 33.0741 63.696 32.9807 63.7879 32.6143C63.8926 33.074 63.9005 33.2 63.8927 33.6726C63.8065 34.8472 64.1542 34.7114 63.1637 35.4706L62.4762 36.1672C61.5434 36.2654 60.9655 36.2744 60.0394 36.186C59.6724 35.7684 59.1941 35.3478 58.7825 34.9662C58.7203 34.1374 58.5233 33.6945 59.2848 33.2057C59.3638 33.0403 59.7794 32.6143 59.9401 32.3439C60.191 32.2715 61.6937 32.2924 62.0465 32.2929Z" fill="var(--fill-0, #101010)"/>
<path id="Vector_121" d="M62.0465 32.2929C63.1084 32.3042 63.0187 33.1955 63.5659 33.291C63.8039 33.0741 63.696 32.9807 63.7879 32.6143C63.8926 33.074 63.9005 33.2 63.8928 33.6726C63.8065 34.8472 64.1543 34.7114 63.1638 35.4706L63.1099 35.2676C62.6964 35.3279 62.4514 35.726 62.1074 35.6882C61.9878 35.4622 62.0371 35.4478 62.0737 35.1618L62.1106 34.7553C62.393 34.4161 61.918 33.3916 62.3429 33.0606C62.6263 33.0256 62.8883 33.174 63.1561 33.2896C62.8523 32.6938 62.4175 32.9231 62.0465 32.2929Z" fill="var(--fill-0, #101010)"/>
<path id="Vector_122" d="M62.0465 32.2929C63.1084 32.3042 63.0187 33.1955 63.5659 33.291C63.8039 33.0741 63.696 32.9807 63.788 32.6143C63.8926 33.074 63.9005 33.2 63.8928 33.6726C63.8065 34.8472 64.1543 34.7114 63.1638 35.4706L63.1099 35.2676C63.2163 34.6617 63.209 33.9026 63.1561 33.2896C62.8523 32.6938 62.4175 32.9231 62.0465 32.2929Z" fill="var(--fill-0, #101010)"/>
<path id="Vector_123" d="M58.7825 34.9662C58.7203 34.1374 58.5233 33.6945 59.2848 33.2057C59.2932 33.2905 59.3312 33.5809 59.3707 33.6439C59.9117 34.508 59.6814 36.1942 61.2506 35.7007C61.627 35.5091 61.7426 35.4262 62.0737 35.1618C62.0371 35.4477 61.9877 35.4622 62.1074 35.6882C62.4514 35.726 62.6963 35.3279 63.1098 35.2676L63.1637 35.4706L62.4762 36.1672C61.5434 36.2654 60.9655 36.2744 60.0394 36.186C59.6724 35.7684 59.1941 35.3478 58.7825 34.9662Z" fill="var(--fill-0, #101010)"/>
<path id="Vector_124" d="M61.2506 35.7007C61.1876 35.6621 60.9435 35.3272 60.8024 35.2186C60.0325 34.626 60.6872 32.3491 61.7549 33.2082C62.1627 33.5364 62.1243 34.26 62.1106 34.7553L62.0737 35.1618C61.7426 35.4262 61.627 35.5091 61.2506 35.7007Z" fill="var(--fill-0, #101010)"/>
<path id="Vector_125" d="M98.2381 32.2834C98.8134 32.29 98.7531 32.2442 99.1663 32.6657C99.6284 33.1357 99.587 33.6722 99.5862 34.2654C99.5986 34.8631 99.5961 35.6026 99.649 36.1849L98.8779 36.2491L97.872 36.242C97.5877 36.2349 97.5083 36.2831 97.3116 36.1305C97.2463 35.5389 97.2537 33.7469 97.3372 33.1633C97.2323 32.8831 97.3033 32.9648 97.062 32.8189C96.8587 32.9406 96.9388 33.1209 96.8595 33.2471C96.7115 33.4818 96.3793 33.3043 96.3371 33.6595C96.2413 34.4622 96.3165 35.4059 96.3008 36.2158C95.8883 36.2235 95.4651 36.2366 95.0527 36.2354L94.6155 36.2254L94.6287 35.1503L94.6179 34.4399L94.6006 33.3656C94.5824 33.0622 94.5502 32.7929 94.613 32.495C94.8089 32.2681 94.7089 32.3282 95.0477 32.2856C95.5288 32.3026 97.805 32.3566 98.2381 32.2834Z" fill="var(--fill-0, #101010)"/>
<path id="Vector_126" d="M98.2382 32.2834C98.8134 32.29 98.7531 32.2442 99.1664 32.6657C99.6284 33.1357 99.5871 33.6722 99.5862 34.2654C99.5986 34.8631 99.5962 35.6026 99.649 36.1849L98.8779 36.2491C99.0424 36.0943 98.9804 33.5928 98.9812 33.162C98.8258 32.5133 98.6341 33.0452 98.2382 32.2834Z" fill="var(--fill-0, #101010)"/>
<path id="Vector_127" d="M98.2382 32.2834C98.8134 32.29 98.7531 32.2442 99.1664 32.6657C99.6284 33.1357 99.5871 33.6722 99.5862 34.2654C99.4449 34.058 99.4325 34.1057 99.1506 34.0235C98.9787 33.8292 98.9969 33.4388 98.9812 33.162C98.8258 32.5133 98.6341 33.0452 98.2382 32.2834Z" fill="var(--fill-0, #101010)"/>
<path id="Vector_128" d="M94.6006 33.3656C94.5824 33.0621 94.5502 32.7929 94.613 32.495C94.8089 32.2681 94.7089 32.3282 95.0477 32.2856C95.0477 33.2301 94.98 35.3912 95.0527 36.2354L94.6155 36.2253L94.6287 35.1503L94.6179 34.4398L94.6006 33.3656Z" fill="var(--fill-0, #101010)"/>
<path id="Vector_129" d="M97.3371 33.1633C97.4867 33.2358 97.638 33.3035 97.7926 33.3665C97.9554 33.8258 97.814 35.6238 97.8719 36.2419C97.5876 36.2349 97.5082 36.2831 97.3115 36.1305C97.2462 35.5389 97.2537 33.7469 97.3371 33.1633Z" fill="var(--fill-0, #101010)"/>
<path id="Vector_130" d="M25.4492 33.308L25.6947 32.895C26.1461 32.8128 25.8689 33.0703 26.2328 32.8179L26.3732 32.3643C26.6227 32.2463 28.6801 32.3011 29.0499 32.3248C29.1819 32.4991 29.1199 32.7132 29.1432 32.7322C29.5118 33.0301 29.6193 32.7164 29.7784 33.2952L30.2556 33.425L30.247 35.1385C29.9951 35.2674 29.8974 35.3638 29.6902 35.5463C29.5215 35.6301 29.3524 35.6657 29.2709 35.8388C28.9684 36.4818 27.1746 36.2443 26.5475 36.1797C25.6794 35.2498 24.9923 34.8372 25.4922 33.4459L25.4492 33.308Z" fill="var(--fill-0, #101010)"/>
<path id="Vector_131" d="M29.7783 33.2952L30.2555 33.425L30.2469 35.1385C29.995 35.2674 29.8973 35.3638 29.6902 35.5463C29.7724 35.1288 29.7587 33.8293 29.7783 33.2952Z" fill="var(--fill-0, #101010)"/>
<path id="Vector_132" d="M27.6747 32.7439L27.8771 32.9024C28.1306 33.7316 28.3872 35.0561 27.6731 35.7294C27.3285 35.2564 27.3667 35.5079 26.9989 35.1505C26.932 34.8772 26.894 33.5423 27.0214 33.4395C27.3243 33.1952 27.3841 33.306 27.6747 32.7439Z" fill="var(--fill-0, #EAF2EC)"/>
<path id="Vector_133" d="M12.4205 36.2426C12.19 36.2515 12.0642 36.2739 11.866 36.1503C11.7893 35.7368 11.8363 31.8779 11.8552 31.3118C12.0456 31.1651 12.1357 31.2108 12.4094 31.2026C13.0569 31.2081 15.8927 31.131 16.2723 31.3715L16.2753 31.6195C16.0851 31.7727 15.874 31.7252 15.5815 31.7377C15.0341 31.7914 14.6964 31.7984 14.1515 31.7941C14.1536 32.3262 14.1506 32.8669 14.1585 33.3981C14.6905 33.3966 15.7197 33.3222 16.1281 33.6569L16.1009 33.7816C15.5377 34.0761 14.7685 34.0121 14.1254 34.0155C14.1177 34.4758 14.0826 35.2347 14.1378 35.6692C14.6024 35.6715 16.0729 35.6104 16.3392 35.8521C16.1285 36.4079 13.1127 36.2423 12.4205 36.2426Z" fill="var(--fill-0, #101010)"/>
<path id="Vector_134" d="M12.4205 36.2426C12.19 36.2515 12.0642 36.2739 11.866 36.1503C11.7893 35.7368 11.8363 31.8779 11.8552 31.3118C12.0456 31.1651 12.1357 31.2108 12.4094 31.2026C12.403 32.8229 12.3573 34.6375 12.4205 36.2426Z" fill="var(--fill-0, #101010)"/>
<path id="Vector_135" d="M13.4783 31.7727C14.1571 31.7344 14.8967 31.7423 15.5815 31.7377C15.0341 31.7914 14.6964 31.7984 14.1515 31.7941C14.1536 32.3262 14.1506 32.8669 14.1585 33.3981C13.8438 33.4011 13.7844 33.4552 13.558 33.2976C13.3871 32.9086 13.4678 32.2427 13.4783 31.7727Z" fill="var(--fill-0, #101010)"/>
<path id="Vector_136" d="M14.1379 35.6692C13.7781 35.6614 13.7795 35.7231 13.555 35.5166C13.3284 34.852 13.3319 34.8357 13.5603 34.1704C13.7782 33.9714 13.7813 34.0297 14.1254 34.0155C14.1178 34.4758 14.0827 35.2347 14.1379 35.6692Z" fill="var(--fill-0, #101010)"/>
<path id="Vector_137" d="M122.057 31.7267C121.802 31.7344 121.499 31.7808 121.305 31.6331C121.267 31.3981 121.251 31.4834 121.352 31.2818C121.744 31.1605 125.746 31.1959 126.294 31.2478C126.431 31.4012 126.388 31.3622 126.384 31.6268C126.122 31.791 125.92 31.739 125.567 31.7338C125.333 31.7528 124.894 31.7566 124.73 31.8885C124.603 32.7602 124.712 35.2092 124.691 36.2369L123.731 36.2508L123.026 36.2652C122.862 36.2399 122.475 36.1802 122.468 36.081C122.413 35.178 122.49 32.489 122.494 31.7524L122.057 31.7267Z" fill="var(--fill-0, #101010)"/>
<path id="Vector_138" d="M122.057 31.7267C122.648 31.6802 122.957 31.6993 123.545 31.7386C123.549 32.3561 123.423 35.8682 123.71 36.1884C123.715 36.1937 123.721 36.1982 123.726 36.2031L123.731 36.2508L123.026 36.2652C122.862 36.2399 122.475 36.1802 122.468 36.081C122.413 35.178 122.49 32.489 122.494 31.7524L122.057 31.7267Z" fill="var(--fill-0, #101010)"/>
<path id="Vector_139" d="M122.493 31.7524C122.792 31.7812 122.805 31.7333 123.002 31.9097C123.116 32.8749 123.004 35.1606 123.026 36.2652C122.862 36.2399 122.474 36.1802 122.468 36.081C122.412 35.178 122.49 32.489 122.493 31.7524Z" fill="var(--fill-0, #101010)"/>
<path id="Vector_140" d="M124.173 31.741C124.692 31.7166 125.042 31.7087 125.566 31.7338C125.333 31.7528 124.894 31.7566 124.73 31.8885C124.603 32.7602 124.712 35.2092 124.691 36.2369L123.731 36.2508L123.726 36.203C123.839 36.1984 123.985 36.1641 124.1 36.1419C124.268 35.8168 124.18 32.3643 124.173 31.741Z" fill="var(--fill-0, #101010)"/>
<path id="Vector_141" d="M63.788 32.6143L63.801 32.3802C65.8179 31.5111 65.3301 33.8103 65.7512 34.3236C66.0061 34.0871 65.9032 33.7975 66.0265 33.6356C66.3888 33.1605 66.5208 33.3459 66.5454 32.6704C66.5494 32.5545 66.5518 32.4384 66.5526 32.3224C67.0397 32.3172 67.7555 32.2887 68.2231 32.3378C68.0543 33.7487 67.8196 33.4493 67.2047 34.6387C67.0441 34.9493 67.2595 35.7007 66.8819 35.9646C66.3655 36.3255 65.5014 36.2557 64.9125 36.2342C64.9399 35.2582 64.5258 35.1162 64.1565 34.2606C64.0721 34.0652 64.0311 33.8329 63.8928 33.6726C63.9006 33.2 63.8926 33.074 63.788 32.6143Z" fill="var(--fill-0, #101010)"/>
<path id="Vector_142" d="M73.3427 33.4585C73.3161 33.1327 73.2672 32.7755 73.3426 32.461C73.5305 32.255 73.4756 32.3142 73.8121 32.2885C74.787 32.319 75.7628 32.3236 76.738 32.3025L77.1376 32.3096L77.2041 33.4253L75.7637 33.4229L75.5477 33.4082L75.5556 36.2002L74.6998 36.2523L73.8108 36.2475L73.3194 36.2254L73.3371 35.1726L73.3427 33.4585Z" fill="var(--fill-0, #101010)"/>
<path id="Vector_143" d="M73.3427 33.4585C73.3161 33.1327 73.2672 32.7755 73.3426 32.461C73.5305 32.255 73.4756 32.3142 73.8121 32.2885C73.8038 33.6081 73.8034 34.9278 73.8108 36.2475L73.3194 36.2254L73.3371 35.1726L73.3427 33.4585Z" fill="var(--fill-0, #101010)"/>
<path id="Vector_144" d="M74.6998 36.2523L74.9082 36.1699C75.2137 35.6325 74.7826 34.4269 75.0273 33.5853C75.2238 33.3671 75.1975 33.428 75.5477 33.4082L75.5556 36.2002L74.6998 36.2523Z" fill="var(--fill-0, #101010)"/>
<path id="Vector_145" d="M76.7378 32.3025L77.1375 32.3096L77.204 33.4253L75.7635 33.4229C76.0491 33.4218 76.431 33.4604 76.6449 33.3018C76.7928 33.0997 76.7424 32.5796 76.7378 32.3025Z" fill="var(--fill-0, #101010)"/>
<path id="Vector_146" d="M101.314 31.2014L101.662 31.2447C101.904 31.5702 101.802 31.8668 101.757 32.3068C102.119 32.3103 102.697 32.2501 102.929 32.5513C102.777 32.8963 102.137 32.866 101.796 32.8595C101.798 33.7908 101.789 34.7472 101.809 35.6762C102.118 35.6754 102.778 35.6528 102.997 35.9051L102.953 36.005C102.501 36.2637 101.35 36.3423 100.862 36.2102C100.709 35.719 100.574 35.7278 100.149 35.5565C99.8598 35.1297 100.06 33.6906 100.008 33.1298C99.9854 32.8945 99.8846 32.8715 99.6978 32.7298C99.6341 32.5345 99.6068 32.5667 99.744 32.3953C100.077 31.9798 100.031 31.7647 100.004 31.241L101.314 31.2014Z" fill="var(--fill-0, #101010)"/>
<path id="Vector_147" d="M101.809 35.6762C101.622 35.6559 101.57 35.6614 101.429 35.5394C101.207 35.0323 101.119 33.2388 101.516 32.841L101.796 32.8595C101.798 33.7908 101.789 34.7472 101.809 35.6762Z" fill="var(--fill-0, #101010)"/>
<path id="Vector_148" d="M101.314 31.2014L101.662 31.2447C101.904 31.5702 101.802 31.8668 101.757 32.3068C101.493 32.3004 101.582 32.3317 101.364 32.2008C101.217 31.9343 101.29 31.5185 101.314 31.2014Z" fill="var(--fill-0, #101010)"/>
<path id="Vector_149" d="M45.2771 32.3163C45.8093 32.2933 46.2521 32.3015 46.7828 32.3163L46.9182 32.319C47.1584 32.8268 47.411 32.6616 47.8974 32.7987C47.6483 32.968 47.6605 32.9753 47.6269 33.3093C47.6772 33.6337 47.6472 35.9371 47.5591 36.1603C47.3147 36.2598 47.1888 36.2467 46.9305 36.2463C46.4288 36.2733 45.7647 36.2372 45.2488 36.223C45.234 34.9207 45.2435 33.6183 45.2771 32.3163Z" fill="var(--fill-0, #101010)"/>
<path id="Vector_150" d="M45.2771 32.3163C45.8093 32.2933 46.2521 32.3015 46.7828 32.3163C46.5327 32.3265 46.1633 32.3016 45.9872 32.4523C45.8826 33.1161 45.95 35.401 45.9567 36.1979C46.2421 36.1993 46.6838 36.2148 46.9558 36.1947L46.9305 36.2463C46.4288 36.2733 45.7647 36.2372 45.2488 36.223C45.234 34.9207 45.2435 33.6183 45.2771 32.3163Z" fill="var(--fill-0, #101010)"/>
<path id="Vector_151" d="M47.0422 33.3915L47.627 33.3093C47.6773 33.6337 47.6472 35.9371 47.5591 36.1603C47.3148 36.2598 47.1888 36.2467 46.9305 36.2463L46.9558 36.1947C47.086 35.8858 47.0269 34.8599 47.0187 34.4815L47.0422 33.3915Z" fill="var(--fill-0, #101010)"/>
<path id="Vector_152" d="M47.0187 34.4815C46.7943 34.678 46.7769 34.8718 46.6225 35.1776L46.5439 35.2032C46.5431 34.511 46.4229 33.8058 47.0422 33.3915L47.0187 34.4815Z" fill="var(--fill-0, #101010)"/>
<path id="Vector_153" d="M79.4129 32.3189C79.8266 32.3016 80.6878 32.1951 80.9722 32.4725C81.0894 32.587 81.1482 32.8167 81.1465 32.8166C81.89 32.8908 81.7213 32.8604 81.76 33.8775C81.7772 34.3283 81.8037 35.6196 81.7374 36.1126C81.5815 36.2255 81.4832 36.2029 81.2872 36.194C80.8174 36.2395 80.4928 36.2531 80.0204 36.2522C79.8007 36.2412 79.5882 36.2297 79.4381 36.0951C79.3714 35.4938 79.3729 33.942 79.4405 33.3415L79.3601 32.7801C79.1008 32.7788 78.882 32.7723 78.75 32.5433C79.0811 32.2921 78.9736 32.4338 79.4129 32.3189Z" fill="var(--fill-0, #101010)"/>
<path id="Vector_154" d="M79.3601 32.7801C79.6575 32.8053 79.7814 32.7597 79.9649 32.9354L79.9827 33.0474C80.0121 33.9632 79.9579 35.4402 80.0204 36.2522C79.8006 36.2412 79.5881 36.2297 79.4381 36.0951C79.3713 35.4938 79.3729 33.942 79.4405 33.3415L79.3601 32.7801Z" fill="var(--fill-0, #101010)"/>
<path id="Vector_155" d="M79.9828 33.0474C80.1928 33.3199 80.2674 33.381 80.5391 33.5936C80.5535 34.1135 80.5065 35.7474 80.5712 36.0837C80.8358 36.1717 81.0126 36.1738 81.2872 36.194C80.8174 36.2395 80.4928 36.2531 80.0205 36.2522C79.958 35.4402 80.0121 33.9632 79.9828 33.0474Z" fill="var(--fill-0, #101010)"/>
<path id="Vector_156" d="M127.293 32.3288C127.792 32.3008 130.174 32.2126 130.505 32.5055L130.439 32.652C129.83 33.1271 128.539 32.5788 128.147 32.9697C128.44 34.5026 129.615 33.7903 130.285 34.1293C130.819 34.7264 129.979 35.5984 129.681 36.1452C129.632 36.2333 129.184 36.2354 129.078 36.2396C128.482 36.242 126.843 36.3147 126.415 36.0313L126.396 35.8891C126.774 35.4465 128.609 35.8558 129.099 35.4822C128.999 35.3525 128.938 35.3691 128.75 35.3069C128.683 35.0367 128.621 34.7651 128.565 34.4923C127.951 34.4985 126.914 34.6155 126.605 33.949C126.516 33.3722 126.808 33.2744 127.049 32.8509C127.143 32.6878 127.082 32.655 127.293 32.3288Z" fill="var(--fill-0, #101010)"/>
<path id="Vector_157" d="M86.708 32.5576C86.7262 32.4434 86.7518 32.4324 86.8369 32.3454C87.3543 32.2628 88.2652 32.2983 88.8222 32.3053C88.9999 32.7574 89.2603 32.8085 89.3206 32.9919C89.6364 33.9568 89.4835 35.166 89.5033 36.188L88.6793 36.2562L87.8577 36.2453C87.637 36.2422 87.3989 36.2701 87.2369 36.1322C87.1477 35.5551 87.1948 33.8989 87.2097 33.2622C87.2551 33.1919 87.2171 32.9136 87.2088 32.811C87.084 32.7842 86.9493 32.7703 86.822 32.7539L86.708 32.5576Z" fill="var(--fill-0, #101010)"/>
<path id="Vector_158" d="M87.2089 32.811C87.3461 32.8202 87.628 32.8091 87.6767 32.8975C88.052 33.5717 87.8272 35.4287 87.8577 36.2453C87.6371 36.2422 87.399 36.2701 87.237 36.1322C87.1478 35.5551 87.1949 33.8989 87.2097 33.2622C87.2552 33.1919 87.2172 32.9136 87.2089 32.811Z" fill="var(--fill-0, #101010)"/>
<path id="Vector_159" d="M88.8223 32.3053C89 32.7574 89.2603 32.8085 89.3207 32.9919C89.6364 33.9568 89.4835 35.166 89.5033 36.188L88.6793 36.2562L88.8438 36.1752C89.0553 35.7536 88.8892 32.8903 88.8223 32.3053Z" fill="var(--fill-0, #101010)"/>
<path id="Vector_160" d="M141.533 32.2968C141.861 32.3202 141.86 32.2646 142.062 32.4618C142.137 32.7478 142.109 33.0561 142.099 33.3538C141.871 33.4085 141.76 33.4447 141.521 33.4244C141.103 33.433 140.707 33.4209 140.289 33.4082C140.323 34.0762 140.437 35.5498 140.253 36.1232C140.108 36.2358 140.041 36.2311 139.86 36.2482C139.613 36.2214 138.9 36.2377 138.619 36.2362C138.606 34.9308 138.602 33.6254 138.607 32.32C139.547 32.2938 140.569 32.3163 141.533 32.2968Z" fill="var(--fill-0, #101010)"/>
<path id="Vector_161" d="M139.86 36.2482C139.85 35.6573 139.741 34.0156 139.964 33.474C139.979 33.4355 140.217 33.4182 140.289 33.4082C140.323 34.0762 140.437 35.5498 140.253 36.1232C140.108 36.2358 140.041 36.2311 139.86 36.2482Z" fill="var(--fill-0, #101010)"/>
<path id="Vector_162" d="M141.533 32.2968C141.861 32.3202 141.86 32.2646 142.062 32.4618C142.137 32.7478 142.109 33.0561 142.099 33.3538C141.872 33.4085 141.76 33.4447 141.521 33.4244C141.544 33.1648 141.53 32.5814 141.533 32.2968Z" fill="var(--fill-0, #101010)"/>
<path id="Vector_163" d="M22.3722 32.3054C22.6968 32.3083 23.5076 32.2455 23.7307 32.3875L23.7546 32.6315L23.834 32.6924C23.866 32.4589 23.8268 32.4824 23.9595 32.33C24.481 32.2942 24.6801 32.2978 25.1989 32.3553C25.3997 32.554 25.2369 32.8297 25.4399 33.2876L25.4492 33.308L25.4921 33.4459C25.3661 33.4182 24.3005 33.4146 24.0113 33.3874C24.0506 33.9499 24.1821 35.7284 23.9569 36.1649C23.8616 36.1963 23.7423 36.2399 23.6472 36.2626C23.4321 36.2093 22.6358 36.2339 22.3709 36.236L22.3722 32.3054Z" fill="var(--fill-0, #101010)"/>
<path id="Vector_164" d="M23.6473 36.2626C23.5945 35.8024 23.5322 33.9479 23.7149 33.4797C23.7333 33.4326 23.9341 33.4049 24.0114 33.3874C24.0506 33.9499 24.1821 35.7284 23.9569 36.1649C23.8616 36.1963 23.7423 36.2399 23.6473 36.2626Z" fill="var(--fill-0, #101010)"/>
<path id="Vector_165" d="M77.1374 32.3097C77.5185 32.3094 78.0378 32.2927 78.4068 32.3124L79.4128 32.3189C78.9735 32.4338 79.081 32.2921 78.7499 32.5433C78.8819 32.7723 79.1007 32.7788 79.3601 32.7801L79.4405 33.3415C79.2929 33.3646 79.0456 33.3707 78.9785 33.4756C78.5423 34.1574 79.3537 35.8048 78.6628 36.2382L78.2545 36.245L77.1882 36.2277L77.204 33.4253L77.1374 32.3097Z" fill="var(--fill-0, #101010)"/>
<path id="Vector_166" d="M77.1374 32.3097C77.5185 32.3094 78.0378 32.2927 78.4068 32.3124L78.412 32.3639C78.1491 32.3678 77.9549 32.3189 77.785 32.4538C77.7663 32.9815 77.715 35.7629 77.7982 36.1284C77.9436 36.1541 78.1329 36.193 78.2761 36.1997L78.2545 36.245L77.1882 36.2277L77.204 33.4253L77.1374 32.3097Z" fill="var(--fill-0, #101010)"/>
<path id="Vector_167" d="M78.4069 32.3124L79.4129 32.3189C78.9736 32.4338 79.0811 32.292 78.75 32.5432C78.882 32.7723 79.1008 32.7788 79.3602 32.7801L79.4406 33.3415C79.293 33.3646 79.0457 33.3707 78.9786 33.4756C78.5424 34.1574 79.3538 35.8047 78.6629 36.2381L78.2546 36.245L78.2762 36.1997C78.602 35.8457 78.3029 34.1544 78.4607 33.5064L78.7816 33.3859C78.9993 32.8411 78.6087 32.9135 78.4186 32.3824L78.4121 32.3639L78.4069 32.3124Z" fill="var(--fill-0, #101010)"/>
<path id="Vector_168" d="M46.9182 32.319C47.4462 32.3033 48.9044 32.1649 49.2595 32.4545L49.2939 32.7205C49.473 32.7982 49.5772 32.8371 49.7645 32.8917C49.8883 33.2868 49.9148 35.7987 49.7849 36.1988C49.336 36.2754 48.6149 36.2492 48.1414 36.2477C48.1651 35.1488 48.1472 34.0494 48.0879 32.9519L47.8974 32.7987C47.411 32.6616 47.1584 32.8268 46.9182 32.319Z" fill="var(--fill-0, #101010)"/>
<path id="Vector_169" d="M48.0879 32.9519C48.4487 33.2393 48.561 33.3216 48.6311 33.7901C48.7474 34.5667 48.6774 35.4094 48.6569 36.1928C48.9432 36.1914 49.5225 36.1722 49.7849 36.1988C49.336 36.2754 48.6149 36.2492 48.1414 36.2477C48.1651 35.1488 48.1472 34.0494 48.0879 32.9519Z" fill="var(--fill-0, #101010)"/>
<path id="Vector_170" d="M49.2939 32.7205C49.4731 32.7982 49.5772 32.8372 49.7645 32.8918C49.8883 33.2868 49.9149 35.7987 49.7849 36.1988C49.7317 35.9964 49.7542 35.6388 49.7081 35.3859C49.5543 34.5426 49.1393 33.574 49.2939 32.7205Z" fill="var(--fill-0, #101010)"/>
</g>
</svg>
