<svg preserveAspectRatio="none" width="100%" height="100%" overflow="visible" style="display: block;" viewBox="0 0 82.0664 47" fill="none" xmlns="http://www.w3.org/2000/svg">
<g id="image 2 [Vectorized]">
<path id="Vector" d="M44.9167 20.485C46.6383 20.7063 50.1629 20.1124 51.5054 21.0167C51.9736 21.3318 52.2838 21.87 52.3908 22.4175C52.5771 23.3718 52.4628 24.3222 51.9084 25.1317C51.3636 25.9273 50.4947 26.1589 49.6043 26.3258C49.7695 26.5946 49.9949 26.8297 50.156 27.1068C50.5507 27.7846 50.8963 28.501 51.2149 29.2175C51.4076 29.6511 51.5412 30.0873 51.7615 30.5069C51.0905 30.5923 50.0513 30.5192 49.3307 30.5226L49.0085 29.7302C48.8346 29.2039 48.7955 29.165 48.5651 28.6915C48.2443 27.9795 48.091 27.2256 47.4599 26.7163C47.2199 26.5228 45.8176 26.3058 45.75 26.5662C45.4312 27.7942 45.357 29.1793 44.9325 30.3823C44.8313 30.6692 42.8321 30.5314 42.6872 30.4312C42.6704 30.2306 42.7911 29.8404 42.8265 29.6246C42.9958 28.5911 43.2971 27.5784 43.4919 26.5513C43.6781 25.5691 43.8678 24.5957 44.0994 23.623C44.2659 22.9417 44.441 20.9165 44.9167 20.485ZM49.2784 24.5085C49.8563 24.1088 50.0894 23.9089 50.2973 23.1954C50.1987 23.0065 50.0752 22.7508 49.9687 22.5729C49.0094 22.1209 47.649 22.3846 46.5525 22.3068C46.592 22.7543 46.2542 24.4546 46.1009 24.8218L46.1302 24.8707C46.7338 24.8966 48.8548 24.8361 49.2784 24.5085Z" fill="var(--fill-0, #101010)"/>
<path id="Vector_2" d="M34.1468 20.3935C35.2026 20.2148 36.9569 20.492 37.7249 21.3131C38.3684 22.0012 38.5987 22.5695 38.591 23.5095C37.7727 23.6494 37.364 23.6073 36.5407 23.6132C36.3763 23.1786 36.2336 22.6777 35.8365 22.3952C35.3789 22.0698 34.2215 22.2314 33.6973 22.3381C33.5803 22.5522 33.3398 22.9992 33.3737 23.2257C33.4929 24.0242 35.402 24.5187 36.05 24.8845C36.5984 25.1941 36.8127 25.2296 37.2609 25.6614C37.8063 26.1591 37.9955 26.9456 37.9555 27.6896C37.841 29.8243 35.8727 30.6783 34.0911 30.6801C33.6296 30.6885 33.1684 30.6512 32.7142 30.5687C31.8528 30.4092 31.0682 30.08 30.5488 29.3316C30.3332 29.0208 29.8807 27.7542 29.9489 27.4121C30.225 26.9955 30.8118 27.2461 31.1224 27.161C32.8098 26.6988 31.8124 27.939 32.719 28.5653C33.3047 28.9699 34.3844 28.8166 35.096 28.6723C35.5301 28.2594 36.1285 27.793 35.5031 27.2059C34.2582 26.0427 31.6985 26.0462 31.302 24.0695C31.174 23.4309 31.2132 22.2674 31.6015 21.7107C32.2543 20.7749 33.096 20.5914 34.1468 20.3935Z" fill="var(--fill-0, #101010)"/>
<path id="Vector_3" d="M25.2553 20.3919C27.5887 20.1565 29.4827 21.2358 29.7279 23.6942C28.8188 23.8926 28.4438 23.8669 27.5818 23.92C27.4554 23.3938 27.287 22.8968 26.8391 22.5844C25.7257 21.8075 24.2707 22.664 23.617 23.6256C22.9946 24.5413 22.7161 26.0673 22.8406 27.1366C22.975 28.2909 23.9347 29.039 25.0698 28.7965C26.0618 28.587 26.472 27.5893 26.9814 26.8281C27.547 26.8192 28.3716 26.9693 28.9325 27.12C29.0586 27.1538 29.0666 27.2081 29.103 27.3011C29.0909 27.6277 28.6238 28.5022 28.4356 28.7854C27.8159 29.7179 26.8475 30.3622 25.7481 30.5736C24.5796 30.8071 23.1058 30.7493 22.0819 30.0638C21.3567 29.5783 20.7625 28.5747 20.6595 27.7121C20.3521 25.1373 20.8357 22.1636 23.4293 20.9303C24.1052 20.609 24.5278 20.5281 25.2553 20.3919Z" fill="var(--fill-0, #101010)"/>
<path id="Vector_4" d="M67.1875 23.1012C69.2529 22.9706 70.5271 23.8273 70.6818 26.0223C70.7226 26.6067 70.6946 26.9905 70.494 27.549C69.991 27.5869 69.2268 27.5583 68.7022 27.5554C67.674 27.5477 66.6464 27.5487 65.6182 27.5584C65.9492 28.3253 65.7211 28.5919 66.5784 29.0933C67.7814 29.1336 67.7401 29.0421 68.5571 28.2022C69.0124 28.1562 69.4319 28.3496 69.9768 28.3792C70.1246 28.4188 70.1636 28.449 70.2264 28.5724C70.2384 28.7794 70.1695 28.8762 70.0617 29.047C69.0101 30.7082 66.6973 31.1872 65.0441 30.1174C63.2788 28.9752 63.3945 26.1813 64.4974 24.6064C65.19 23.6184 66.0593 23.3126 67.1875 23.1012ZM65.9065 26.2904C66.3728 26.2604 66.8318 26.2623 67.2986 26.2601C67.7443 26.2591 68.2946 26.2733 68.732 26.2508C68.7228 25.6961 68.7081 25.4212 68.3969 24.9289C67.9857 24.7036 67.8962 24.6041 67.4344 24.6094C66.3953 24.9283 66.236 25.3247 65.9065 26.2904Z" fill="var(--fill-0, #101010)"/>
<path id="Vector_5" d="M74.5969 23.1014C75.6994 23.0483 76.9974 23.0784 77.7818 23.9901C78.0806 24.3373 78.1536 24.6941 78.2633 25.1238C77.8667 25.1948 76.9065 25.4018 76.4916 25.4018C76.4498 25.3559 76.2878 25.2277 76.258 25.1921C75.8646 24.7184 74.6208 24.2697 74.1205 24.7987C73.494 25.4613 74.1815 25.4813 74.5854 25.666C75.4768 26.0737 76.5127 26.1806 77.2388 26.8688C77.9741 27.5678 77.8685 28.9887 77.1842 29.6798C76.392 30.4989 75.441 30.6591 74.344 30.6609C73.2883 30.6877 71.9876 30.422 71.3124 29.5353C71.1958 29.3819 70.7524 28.5642 70.7758 28.4098C71.1384 28.247 72.3024 28.1399 72.7229 28.1519C72.7655 28.1531 72.8982 28.265 72.9289 28.3056C73.2149 28.6797 73.3113 28.8606 73.7303 29.0933C74.1462 29.1043 74.562 29.1043 74.9774 29.0934C77.3765 27.6982 72.117 27.9017 71.988 26.0297C71.8412 23.9037 72.6898 23.41 74.5969 23.1014Z" fill="var(--fill-0, #101010)"/>
<path id="Vector_6" d="M40.8768 20.4758C41.4219 20.5455 42.412 20.5161 42.9969 20.5115C43.0063 20.7945 42.9873 21.0778 42.9403 21.357C42.9028 21.5873 42.8553 21.8157 42.8021 22.0428C42.5145 23.2709 42.2832 24.5097 42.0312 25.7458C41.8188 26.8373 41.5877 27.9252 41.3379 29.0088C41.2745 29.2875 41.0691 30.3744 40.9138 30.5503C40.4106 30.5862 39.3297 30.5427 38.7975 30.5386L38.7963 30.5113C38.7688 29.8147 39.5712 26.3985 39.7604 25.4691L40.485 21.8598C40.5664 21.4723 40.6235 20.7516 40.8768 20.4758Z" fill="var(--fill-0, #101010)"/>
<path id="Vector_7" d="M53.3344 22.3232C53.3831 21.9654 53.5589 20.7433 53.7691 20.6392C54.1546 20.4484 56.104 20.525 56.5698 20.5257C58.2502 20.5334 59.9305 20.5292 61.6108 20.5133C61.5223 21.2113 61.4906 21.6486 61.3364 22.3376C60.5901 22.3528 59.147 22.3504 58.4462 22.3042C58.3984 22.7049 58.2304 23.997 58.0239 24.2889C57.7292 24.299 56.0264 25.042 55.6312 25.206C55.8217 24.3889 55.9318 23.0722 56.2545 22.3084C55.4072 22.3497 54.2061 22.3206 53.3344 22.3232Z" fill="var(--fill-0, #101010)"/>
<path id="Vector_8" d="M8.57208 24.0193C9.19961 24.7988 9.76756 25.475 10.6299 26.0261C10.3506 26.4209 9.81644 27.6403 9.63477 27.8304L9.41308 28.228C9.14627 28.752 8.81594 29.2451 8.61936 29.7976C7.58293 29.405 6.51597 28.4894 5.80611 27.657C5.5785 27.3901 4.85528 26.4166 4.8388 26.1062C4.99595 25.6938 5.96065 25.4028 6.42734 25.1218C6.55838 25.0418 6.83882 24.9178 6.98712 24.8469C7.52982 24.4642 7.96393 24.2757 8.57208 24.0193Z" fill="var(--fill-0, #101010)"/>
<path id="Vector_9" d="M8.57208 24.0193C9.19961 24.7988 9.76755 25.475 10.6299 26.0261C10.3506 26.4209 9.81644 27.6403 9.63477 27.8304L9.41308 28.228C9.22728 27.8886 7.80007 27.2687 7.28114 26.3896C7.03779 25.9773 6.89362 25.3113 6.42734 25.1218C6.55838 25.0418 6.83882 24.9178 6.98712 24.8469C7.52982 24.4642 7.96393 24.2757 8.57208 24.0193Z" fill="var(--fill-0, #101010)"/>
<path id="Vector_10" d="M6.42734 25.1218C6.55838 25.0418 6.83882 24.9178 6.98712 24.8469C6.93668 24.9163 6.89514 24.9733 6.83951 25.0386C6.9689 26.0751 8.46055 27.592 9.45558 27.9016L9.63477 27.8304L9.41308 28.228C9.22728 27.8886 7.80007 27.2687 7.28114 26.3896C7.03779 25.9773 6.89362 25.3113 6.42734 25.1218Z" fill="var(--fill-0, #101010)"/>
<path id="Vector_11" d="M4.25626 20.6244C4.50544 20.6336 4.78069 20.6347 5.02358 20.6804C5.3127 20.7795 5.9735 20.7814 6.312 20.8013C6.39145 20.8214 6.64288 20.8873 6.70544 20.8873C8.42168 20.887 7.8484 21.2887 8.11425 22.8273C8.20458 23.1993 8.21885 23.1807 8.40065 23.4962C8.2379 23.583 8.04829 23.6951 7.87337 23.7423C7.50476 23.8772 6.91299 24.2273 6.61686 24.3051C6.22654 24.5254 5.32459 25.0212 4.91485 25.1305C4.83067 25.1873 4.72323 25.213 4.62454 25.244C4.1993 25.1603 4.19631 24.5693 4.11818 24.2145C3.83517 22.9294 3.99651 21.8891 4.25626 20.6244Z" fill="var(--fill-0, #101010)"/>
<path id="Vector_12" d="M6.312 20.8013C6.39145 20.8214 6.64288 20.8873 6.70544 20.8873C8.42167 20.887 7.8484 21.2887 8.11425 22.8273C8.20458 23.1993 8.21885 23.1807 8.40065 23.4962C8.2379 23.583 8.04829 23.6951 7.87337 23.7423C7.50476 23.8772 6.91299 24.2273 6.61686 24.3051C6.42261 24.2727 6.49637 24.2673 6.31393 24.3503C6.32191 22.8876 6.31264 22.3657 6.98799 20.9957C6.64013 21.0015 6.57445 21.0141 6.312 20.8013Z" fill="var(--fill-0, #101010)"/>
<path id="Vector_13" d="M8.11425 22.8273C8.20458 23.1993 8.21885 23.1807 8.40065 23.4962C8.2379 23.583 8.04829 23.6951 7.87337 23.7423C7.85547 23.4267 7.90578 23.0778 8.11425 22.8273Z" fill="var(--fill-0, #101010)"/>
<path id="Vector_14" d="M4.25626 20.6244C4.50544 20.6336 4.78069 20.6347 5.02358 20.6804C4.72254 20.8573 4.71024 20.9339 4.6189 21.2878C4.35703 22.3022 4.29131 24.1769 4.66282 25.1374L4.85367 25.0885L4.91485 25.1305C4.83067 25.1873 4.72323 25.213 4.62454 25.244C4.1993 25.1603 4.19631 24.5693 4.11818 24.2145C3.83517 22.9294 3.99651 21.8891 4.25626 20.6244Z" fill="var(--fill-0, #101010)"/>
<path id="Vector_15" d="M11.0268 26.1898C11.7856 26.6182 13.3407 26.6785 13.4734 26.7865C13.6707 27.2778 13.7318 29.6376 13.7272 30.291C13.066 30.4828 12.5086 30.4954 11.8303 30.5205C10.8139 30.5329 10.0978 30.4175 9.1678 30.0566C9.3105 29.4506 10.6645 26.5534 11.0268 26.1898Z" fill="var(--fill-0, #101010)"/>
<path id="Vector_16" d="M55.6312 25.206C56.0264 25.042 57.7292 24.299 58.0239 24.2889C58.0165 24.5713 58.012 24.8872 57.9055 25.1528C57.8164 25.8611 57.6475 26.437 57.536 27.1194C57.4277 27.4288 57.3184 27.8742 57.2083 28.1381C57.2496 28.534 56.9076 29.9545 56.8627 30.5618C56.1021 30.5474 55.3411 30.5369 54.5806 30.5303C54.5737 30.0836 54.5691 29.459 54.8408 29.0842C54.8615 28.8631 54.9404 28.2742 55.0235 28.0887C55.1415 27.869 55.0786 26.6382 55.4182 26.1101C55.4761 25.8111 55.527 25.4906 55.6312 25.206Z" fill="var(--fill-0, #101010)"/>
<path id="Vector_17" d="M54.8408 29.0842C55.236 29.0082 56.8103 28.3231 57.2083 28.1381C57.2496 28.534 56.9076 29.9545 56.8627 30.5618C56.1021 30.5474 55.3411 30.5369 54.5806 30.5303C54.5737 30.0836 54.5691 29.459 54.8408 29.0842Z" fill="var(--fill-0, #101010)"/>
<path id="Vector_18" d="M55.0235 28.0887L55.0432 28.0837C55.8162 27.8791 56.7378 27.3973 57.536 27.1194C57.4277 27.4288 57.3184 27.8742 57.2083 28.1381C56.8103 28.3231 55.236 29.0082 54.8408 29.0842C54.8615 28.8631 54.9404 28.2742 55.0235 28.0887Z" fill="var(--fill-0, #101010)"/>
<path id="Vector_19" d="M55.6312 25.206C56.0264 25.042 57.7292 24.299 58.0239 24.2889C58.0165 24.5713 58.0119 24.8872 57.9055 25.1528C57.5016 25.3183 55.6996 26.0968 55.4182 26.1101C55.4761 25.8111 55.527 25.4906 55.6312 25.206Z" fill="var(--fill-0, #101010)"/>
<path id="Vector_20" d="M5.44365 20.2754C5.17106 20.2859 4.90999 20.3313 4.69894 20.1583C4.35827 19.5439 6.11087 17.6451 6.68855 17.376C6.83565 17.3074 6.89592 17.3518 7.02985 17.3903L7.24016 17.4863L7.38556 17.444C7.63135 17.5839 8.44719 18.0956 8.6418 18.1367L8.68743 18.2299L8.57355 18.2489L8.58158 18.3266C8.7588 18.4801 8.93808 18.621 8.98838 18.8594C8.4919 19.5346 8.35375 19.8389 8.00294 20.5841C7.79686 20.5704 7.44018 20.5563 7.24686 20.5267C7.12073 20.5265 6.87187 20.4574 6.72233 20.4356C6.29373 20.3731 5.87707 20.3037 5.44365 20.2754Z" fill="var(--fill-0, #101010)"/>
<path id="Vector_21" d="M7.24686 20.5267L7.23199 20.446C7.41728 19.9531 8.28972 19.1161 8.75715 18.8418C8.85822 18.7825 8.88851 18.8188 8.98838 18.8594C8.4919 19.5346 8.35375 19.8389 8.00294 20.5841C7.79686 20.5704 7.44018 20.5563 7.24686 20.5267Z" fill="var(--fill-0, #101010)"/>
<path id="Vector_22" d="M5.44365 20.2754C5.17106 20.2859 4.90999 20.3313 4.69894 20.1583C4.35827 19.5439 6.11087 17.6451 6.68855 17.376C6.83565 17.3074 6.89592 17.3518 7.02985 17.3903C6.27813 17.7935 5.10193 19.2287 4.85564 20.0361C4.84242 20.0796 4.8304 20.1236 4.81961 20.1678C4.96933 20.191 5.3132 20.2351 5.44365 20.2754Z" fill="var(--fill-0, #101010)"/>
<path id="Vector_23" d="M7.38556 17.444C7.63135 17.5839 8.44719 18.0956 8.6418 18.1367L8.68743 18.2299L8.57355 18.2489L8.58158 18.3266C8.37926 18.3134 7.41489 17.6611 7.24016 17.4863L7.38556 17.444Z" fill="var(--fill-0, #101010)"/>
<path id="Vector_24" d="M14.1554 28.3208C14.065 26.6114 13.4121 26.7994 15.1281 26.0305C15.3514 25.9305 15.5079 25.602 15.7796 25.616C15.9315 25.7262 16.2057 26.161 16.3356 26.3465C16.4043 26.4592 16.374 26.4223 16.5177 26.4818C16.6126 26.7953 16.7874 27.0278 16.8564 27.2826C17.4108 27.8563 16.742 28.4705 16.2895 28.8587C15.9316 29.1701 15.5427 29.444 15.129 29.6761C14.9017 29.8014 14.566 29.94 14.3778 30.086C14.2032 29.5859 14.1887 28.865 14.1554 28.3208Z" fill="var(--fill-0, #101010)"/>
<path id="Vector_25" d="M14.1554 28.3208C14.2943 28.3741 14.2072 28.6938 14.3691 28.8085C14.8697 28.7729 15.9635 27.7734 16.2671 27.3532C16.3374 27.2559 16.5413 26.9746 16.5889 26.9229C16.6677 27.0892 16.6864 27.1383 16.8269 27.2579L16.8564 27.2826C17.4108 27.8563 16.742 28.4705 16.2895 28.8587C15.9316 29.1701 15.5427 29.444 15.129 29.6761C14.9017 29.8014 14.566 29.94 14.3778 30.086C14.2032 29.5859 14.1887 28.865 14.1554 28.3208Z" fill="var(--fill-0, #101010)"/>
<path id="Vector_26" d="M16.8002 23.5339C17.1325 23.6924 17.6528 24.108 18.0053 24.3233L17.9884 24.4238C18.0742 24.5222 18.1517 24.594 18.1946 24.716C18.1756 25.6149 17.9587 26.8466 17.325 27.5291C17.0424 27.178 16.9068 27.0296 16.7044 26.6304C16.6353 26.5375 16.6257 26.5196 16.5177 26.4818C16.374 26.4223 16.4043 26.4592 16.3356 26.3465L16.3978 26.2879C16.43 25.9334 15.8271 25.6142 16.1263 25.0119C16.3255 24.6112 16.5534 24.093 16.7441 23.6766L16.8002 23.5339Z" fill="var(--fill-0, #101010)"/>
<path id="Vector_27" d="M16.7044 26.6304C16.7873 26.6446 16.819 26.6854 16.8757 26.7416C17.4371 26.7646 17.8225 25.0421 17.9433 24.616L18.0034 24.5916C18.0681 24.6656 18.1037 24.6801 18.1946 24.716C18.1756 25.6149 17.9587 26.8466 17.325 27.5291C17.0424 27.178 16.9068 27.0296 16.7044 26.6304Z" fill="var(--fill-0, #101010)"/>
<path id="Vector_28" d="M16.8002 23.5339C17.1325 23.6924 17.6528 24.108 18.0053 24.3233L17.9884 24.4238C17.6509 24.2558 17.0387 23.8876 16.7441 23.6766L16.8002 23.5339Z" fill="var(--fill-0, #101010)"/>
<path id="Vector_29" d="M7.38556 17.444C7.29422 17.3593 7.25099 17.3306 7.21317 17.2105C7.32378 16.6637 9.24385 16.2608 9.76549 16.2719C9.96666 16.2761 10.0734 16.3409 10.1961 16.4912L10.4697 16.8859C10.6025 17.1278 10.7337 17.3525 10.8337 17.6104C10.8225 17.6977 10.8123 17.8637 10.7117 17.8967C9.997 18.1308 9.3983 18.7312 8.68743 18.2298L8.6418 18.1367C8.44719 18.0956 7.63135 17.5839 7.38556 17.444Z" fill="var(--fill-0, #101010)"/>
<path id="Vector_30" d="M7.38556 17.444C7.29422 17.3593 7.25099 17.3306 7.21317 17.2105C7.32378 16.6637 9.24385 16.2608 9.76549 16.2719C9.96666 16.2761 10.0734 16.3409 10.1961 16.4912C10.1144 16.629 10.1022 16.6738 9.93141 16.706C9.53122 16.7817 8.12958 17.1704 8.04829 17.619C8.16625 17.9255 8.5064 17.9032 8.6418 18.1367C8.44719 18.0956 7.63135 17.5839 7.38556 17.444Z" fill="var(--fill-0, #101010)"/>
<path id="Vector_31" d="M15.1703 17.8884C16.3391 18.3637 17.4191 20.3648 17.8857 21.4687L17.9452 21.6116C17.6471 21.812 17.04 21.6074 16.7861 21.6983L16.7238 21.7381C16.6992 21.6736 16.6008 21.5354 16.5613 21.4593C16.3261 21.006 16.0869 20.5457 15.892 20.0736C16.2582 20.0343 16.5192 19.8622 16.7706 19.6122C16.406 19.7052 16.1335 19.742 15.8462 19.9874C15.7204 19.9352 14.8509 19.0421 14.7207 18.8929C14.8187 18.5406 14.91 18.3048 15.0933 17.992C15.1095 17.9779 15.1549 17.9103 15.1703 17.8884Z" fill="var(--fill-0, #101010)"/>
<path id="Vector_32" d="M60.2105 28.4754C60.843 28.4787 61.5787 28.4983 62.1988 28.4477C62.1052 28.8253 61.894 30.2508 61.7499 30.5232C61.1124 30.4976 60.3826 30.4638 59.7538 30.5343C59.7478 30.4201 59.7487 30.3056 59.757 30.1916C59.7868 29.8152 59.9512 28.9687 60.0884 28.5777C60.1366 28.5373 60.1774 28.5032 60.2105 28.4754Z" fill="var(--fill-0, #101010)"/>
<path id="Vector_33" d="M10.177 16.2683C10.9029 16.2383 11.7948 16.242 12.4755 16.492C12.5806 16.5306 12.8288 16.666 12.9759 16.7279L12.939 16.7958C12.7061 17.0977 13.0033 17.8723 12.6883 17.8576C12.1797 17.8341 11.7048 17.8082 11.1912 17.8163C11.1008 17.696 11.0117 17.5875 10.9471 17.4515C10.777 17.2327 10.6673 17.0738 10.5181 16.8409L10.177 16.2683Z" fill="var(--fill-0, #101010)"/>
<path id="Vector_34" d="M16.7861 21.6983C16.9833 21.8527 17.7206 21.9149 17.9966 21.9464C18.1573 22.3825 18.4274 23.8216 18.3214 24.2753C18.2027 24.4155 18.1851 24.4021 18.0053 24.3233C17.6528 24.108 17.1325 23.6924 16.8002 23.5339C16.8074 23.1507 16.7025 21.859 16.7238 21.7381L16.7861 21.6983Z" fill="var(--fill-0, #101010)"/>
<path id="Vector_35" d="M12.9759 16.7279C13.4761 16.6942 14.4653 17.2751 14.8415 17.592C14.9562 17.6886 15.0067 17.7666 15.1703 17.8884C15.1549 17.9103 15.1095 17.9779 15.0933 17.992C15.0379 17.9652 15.0425 17.9737 14.9772 17.9677C14.7603 18.2326 14.6557 18.4179 14.482 18.7136C13.9932 18.3754 13.4914 18.248 13.0571 17.9485C13.0477 17.7963 12.962 16.9527 12.939 16.7958L12.9759 16.7279Z" fill="var(--fill-0, #101010)"/>
<path id="Vector_36" d="M17.9452 21.6116C17.9618 21.7233 17.9789 21.8349 17.9966 21.9464C17.7206 21.9149 16.9833 21.8527 16.7861 21.6983C17.04 21.6074 17.6471 21.812 17.9452 21.6116Z" fill="var(--fill-0, #101010)"/>
<path id="Vector_37" d="M16.7706 19.6122C16.5192 19.8622 16.2582 20.0343 15.892 20.0736L15.8462 19.9874C16.1335 19.742 16.406 19.7052 16.7706 19.6122Z" fill="var(--fill-0, #101010)"/>
<path id="Vector_38" d="M10.5181 16.8409C10.6673 17.0738 10.777 17.2327 10.9471 17.4515L10.8337 17.6104C10.7337 17.3525 10.6025 17.1278 10.4697 16.8859L10.5181 16.8409Z" fill="var(--fill-0, #101010)"/>
</g>
</svg>
