<svg preserveAspectRatio="none" width="100%" height="100%" overflow="visible" style="display: block;" viewBox="0 0 82.0664 47" fill="none" xmlns="http://www.w3.org/2000/svg">
<g id="image 3 [Vectorized]">
<path id="Vector" d="M29.0606 26.6337C28.6575 26.2754 28.2584 25.8246 27.8506 25.4333C25.0701 22.7496 22.2667 19.6885 20.9162 16.0148C20.3838 14.5665 20.3917 12.5315 22.1815 12.0917C24.7983 11.4487 28.375 12.9943 30.6502 14.2141L30.5147 14.2833C29.0726 13.7647 27.2455 13.1466 25.7737 13.7717C23.9175 14.5601 24.9591 17.5914 25.6621 18.8419C26.5847 20.4826 27.6141 21.9408 28.8463 23.3503C29.0063 23.5347 29.2498 23.8592 29.4471 23.9616C29.4655 24.2737 29.1587 26.4258 29.0606 26.6337Z" fill="var(--fill-0, #101010)"/>
<path id="Vector_2" d="M29.4471 23.9616C29.7085 22.1761 29.933 20.3792 30.2656 18.6058C30.3463 18.1751 30.3441 17.2529 30.5627 16.9071C30.9733 16.7742 34.5574 16.8389 35.2968 16.8411L34.9388 18.9633C34.3975 18.9763 33.6059 18.9815 33.0707 18.9275C32.9648 19.442 32.8997 20.1177 32.8345 20.6529C33.1949 20.638 34.1925 20.5558 34.4772 20.6915C34.4952 20.8541 34.2709 22.6537 34.2211 22.9856L32.3821 22.9846C32.3597 23.825 32.0352 25.7566 31.8557 26.6639C31.0125 26.6686 29.8992 26.6252 29.0846 26.6783L29.0606 26.6337C29.1587 26.4258 29.4655 24.2737 29.4471 23.9616Z" fill="var(--fill-0, #101010)"/>
<path id="Vector_3" d="M40.909 20.6304L46.6672 20.6289C46.4364 21.6427 45.8476 22.2023 44.9391 22.6456C45.461 24.1266 45.8121 25.19 46.233 26.7013C45.7635 26.7319 43.7256 26.7592 43.3346 26.6864C43.211 26.5542 43.2468 26.5903 43.2055 26.3939C43.1634 26.0318 42.6808 23.4391 42.5447 23.3172C42.3044 23.5175 42.2513 26.3721 41.8658 26.6604C41.6729 26.8045 39.4708 26.7094 39.1325 26.6886C39.7082 24.9187 39.6443 22.5982 40.1656 20.7871C40.2162 20.6114 40.7748 20.6315 40.909 20.6304Z" fill="var(--fill-0, #101010)"/>
<path id="Vector_4" d="M29.0846 26.6783C29.8992 26.6252 31.0125 26.6686 31.8557 26.6639C32.1907 26.7764 35.6191 29.7034 36.2607 30.1323C39.3209 32.1777 42.9625 34.7818 46.8118 34.5976C47.3282 34.5728 48.0832 34.146 48.3485 33.7259C49.2371 32.4702 48.2232 31.1978 48.0345 30.0896L48.074 30.0857C48.4463 30.5319 48.6702 31.2993 48.8217 31.8539C49.0604 32.7299 49.3124 33.8 48.8263 34.6351C48.5009 35.194 48.024 35.5246 47.4053 35.6837C43.3136 36.736 35.7863 31.8512 32.5711 29.4523C31.9417 28.9875 31.3263 28.5043 30.7256 28.0031C30.3374 27.675 29.4946 26.9214 29.0846 26.6783Z" fill="var(--fill-0, #101010)"/>
<path id="Vector_5" d="M48.3774 20.6313C49.2174 20.6148 50.5108 20.5966 51.3255 20.6541C53.1926 21.8585 52.9062 24.407 51.4182 25.8006C50.3451 26.8059 49.6199 26.8025 48.2278 26.7611C47.8845 26.7343 47.3103 26.6502 47.0555 26.4129C46.9022 26.1191 47.3534 23.7549 47.464 23.2673C48.18 23.9352 47.9909 24.1298 49.0865 24.342C49.2449 24.2923 49.4143 24.2116 49.5671 24.1435L49.8356 23.6935C49.5795 22.8385 48.3848 22.2808 47.9818 21.2132C47.9175 21.0421 47.8881 20.8934 47.968 20.722C48.1273 20.6155 48.158 20.6477 48.3774 20.6313Z" fill="var(--fill-0, #101010)"/>
<path id="Vector_6" d="M51.3617 16.8593C52.6735 16.7857 54.4126 16.8543 55.7482 16.8374C56.6625 16.8259 58.5742 16.7902 59.4389 16.8821C59.2654 17.2356 59.092 18.5458 59.0952 18.9711C58.4489 19.012 57.2546 18.9606 56.5698 18.9564C53.8715 18.9535 51.1061 18.9971 48.4183 18.9697C48.2003 18.5523 48.7731 18.1029 49.0172 17.8282C49.6387 17.1293 50.4915 16.9977 51.3617 16.8593Z" fill="var(--fill-0, #101010)"/>
<path id="Vector_7" d="M54.6426 20.6302C55.399 20.6121 56.4941 20.5994 57.234 20.6427C57.0173 22.5646 56.6722 24.5374 56.3807 26.4544C56.3541 26.6308 56.3504 26.6559 56.1907 26.7106C55.3214 26.7288 54.4255 26.7195 53.5538 26.7208C53.603 26.0963 53.7342 25.6485 53.8384 25.0363C53.9325 24.6662 53.9224 23.8834 54.016 23.551C54.1496 23.0773 54.3855 20.8226 54.6426 20.6302Z" fill="var(--fill-0, #101010)"/>
<path id="Vector_8" d="M37.2789 20.6313C37.574 20.624 38.4504 20.5777 38.6747 20.6755C38.705 20.9134 38.6156 21.356 38.5858 21.6258C38.3839 23.3272 38.1232 25.0212 37.8042 26.7046C37.3844 26.7346 36.7738 26.7174 36.3401 26.7184C35.8663 26.7184 35.4339 26.724 34.9607 26.6772C35.4281 25.3217 35.4429 23.594 35.7532 22.1842C35.8541 21.7263 35.8614 21.1564 36.0727 20.7327C36.2415 20.5867 37.0139 20.6308 37.2789 20.6313Z" fill="var(--fill-0, #101010)"/>
<path id="Vector_9" d="M40.9131 16.8556C42.3215 16.7778 44.0455 16.7902 45.4092 17.1643C45.8839 17.2945 47.1409 18.4102 46.6654 18.9288C46.5272 19.0221 46.3326 18.9887 46.1605 18.9793C44.2552 18.9426 42.3491 18.9474 40.4437 18.9939C40.4405 18.9198 40.4403 18.8458 40.4432 18.7717C40.4616 18.3815 40.6139 17.4752 40.7119 17.0879C40.7269 17.0285 40.8612 16.9023 40.9131 16.8556Z" fill="var(--fill-0, #101010)"/>
<path id="Vector_10" d="M37.9793 16.8201C38.4691 16.8249 38.9501 16.8323 39.44 16.8135C39.2169 17.3961 39.1402 18.3464 39.0513 19.0026L37.6742 18.999C37.1839 19.0001 36.6898 18.994 36.2013 19.0331C36.196 18.6293 36.3707 17.2736 36.5595 16.9488C36.7816 16.7876 37.6636 16.8237 37.9793 16.8201Z" fill="var(--fill-0, #101010)"/>
<path id="Vector_11" d="M58.9758 27.0529C59.0309 27.0805 59.0731 27.1152 59.1231 27.1516C59.1612 27.2746 59.1713 27.332 59.1911 27.4564C59.4614 27.6702 59.8181 27.3473 59.7281 28.0313C59.696 28.2731 59.7878 28.4517 59.6446 28.7069C59.3031 28.9481 58.151 28.6444 57.7742 28.6697C57.3533 28.6978 56.8934 29.1701 56.6974 28.3246C56.9232 27.6552 57.1569 27.2589 57.8632 27.7756C57.9739 27.6057 58.023 27.5149 58.1758 27.383C58.3098 27.34 58.336 27.3535 58.4728 27.3943C58.7527 27.739 58.2603 28.141 58.3236 28.4365C58.4466 28.5071 58.4654 28.5057 58.6077 28.4949C58.879 28.1987 58.6614 27.3825 58.9758 27.0529Z" fill="var(--fill-0, #101010)"/>
<path id="Vector_12" d="M56.0824 27.4889C56.1443 27.4982 56.4161 27.553 56.4464 27.5783C56.781 27.8549 56.6557 28.5358 56.4987 28.8582C56.3853 29.0905 56.2674 29.1177 56.0893 29.1818C55.8543 29.1955 55.5642 29.2533 55.4848 28.9856C55.8148 28.4476 55.1116 27.8943 56.0824 27.4889Z" fill="var(--fill-0, #101010)"/>
<path id="Vector_13" d="M35.5561 27.599C35.8331 27.5776 36.632 27.4942 36.8533 27.539C37.1434 27.8058 37.0799 28.7119 36.7018 28.8285C36.5822 28.7907 36.5728 28.7723 36.5007 28.6677C36.5463 28.5036 36.6166 28.3006 36.543 28.1492L36.4745 28.1513C36.3834 28.286 36.3931 28.4701 36.3851 28.6369C36.2435 28.7325 36.1913 28.7782 36.0224 28.8083L35.9549 28.7507C35.9487 28.4605 36.1039 28.2106 36.0634 27.9864L35.9982 27.9569C35.7418 28.105 35.9202 28.4844 35.7562 28.7595C35.62 28.8429 35.6812 28.8272 35.5253 28.8226C35.362 28.5725 35.5032 27.9137 35.5561 27.599Z" fill="var(--fill-0, #101010)"/>
<path id="Vector_14" d="M43.7618 27.542C43.9499 27.532 44.0149 27.5249 44.1984 27.563C44.5232 27.8589 44.2983 28.6805 44.0953 29.0153C43.9998 29.1729 43.8382 29.1969 43.6694 29.2203C43.5316 29.1893 43.3154 29.1179 43.2337 28.9974C43.2838 28.8582 43.3489 28.8548 43.4973 28.757C43.4496 28.6739 43.4042 28.5895 43.3614 28.5038C43.1492 28.0692 43.3465 27.7309 43.7618 27.542Z" fill="var(--fill-0, #101010)"/>
<path id="Vector_15" d="M41.5245 27.6832L41.7447 27.6048C41.8159 27.3307 41.6017 27.263 41.7318 27.0898C41.8923 27.0542 41.8601 27.0385 42.0034 27.0811C42.0415 27.2134 42.02 27.3086 41.9442 27.4376C41.7258 27.8093 42.1215 28.6004 41.5986 28.8156C41.5066 28.8534 41.4002 28.6803 41.3918 28.5926C41.3604 28.2649 41.8006 27.9734 41.5321 27.6985C41.2149 27.8914 41.2442 28.7563 40.7317 28.8105C40.5781 28.7517 40.5481 28.7455 40.4613 28.6029C40.5174 28.2253 40.4214 27.9854 40.359 27.6064C40.4847 27.5732 40.548 27.5437 40.6704 27.5939C40.8488 27.8592 40.665 27.9225 40.8331 28.0855L40.9233 28.0637C41.0157 27.8541 41.0131 27.7378 41.1652 27.6028C41.305 27.5736 41.3978 27.6164 41.5245 27.6832Z" fill="var(--fill-0, #101010)"/>
<path id="Vector_16" d="M37.5887 27.5675C37.7624 27.5507 37.9357 27.518 38.0961 27.5822C38.2535 27.7441 38.2401 27.8777 38.2529 28.1125C38.2935 28.8574 37.7415 28.6304 37.5004 28.8988C37.4128 29.0666 37.3972 29.1374 37.2162 29.1218C36.9936 28.9009 37.1581 27.9273 37.302 27.6695C37.3542 27.576 37.4915 27.5829 37.5887 27.5675Z" fill="var(--fill-0, #101010)"/>
<path id="Vector_17" d="M39.4127 27.6807C39.785 27.4765 39.8786 27.3873 40.2039 27.7089C40.2421 27.8971 40.2863 28.0825 40.2907 28.2744C40.245 28.534 40.1156 28.7268 39.8502 28.8015C39.7076 28.8428 39.5543 28.825 39.4249 28.7521C38.9982 28.5077 39.2239 27.9948 39.4127 27.6807Z" fill="var(--fill-0, #101010)"/>
<path id="Vector_18" d="M54.845 27.4855C55.1438 27.5287 55.3393 27.6535 55.3774 27.9672C55.4302 28.398 55.3269 28.7048 54.8922 28.7978C53.9527 28.7528 54.1317 27.8289 54.845 27.4855Z" fill="var(--fill-0, #101010)"/>
<path id="Vector_19" d="M60.3766 27.5403C60.641 27.5105 60.719 27.4872 60.9017 27.6909C60.9875 27.9837 60.8453 28.5146 60.7319 28.7544L60.568 28.7969C59.9916 28.7894 59.6312 28.5947 59.9255 27.8995C60.0145 27.6896 60.1545 27.602 60.3766 27.5403Z" fill="var(--fill-0, #101010)"/>
<path id="Vector_20" d="M46.6764 27.4885C47.7312 27.5306 47.005 28.1852 46.9904 28.3789C47.1042 28.4371 47.1414 28.4511 47.2309 28.5413C47.1955 28.6526 47.1643 28.6412 47.0431 28.7156C45.9131 29.0929 45.8826 27.8446 46.6764 27.4885Z" fill="var(--fill-0, #101010)"/>
<path id="Vector_21" d="M45.3654 27.1822C45.5703 27.1711 46.0348 27.2428 46.1564 27.4215L46.1261 27.5179C45.9985 27.6019 45.7637 27.5591 45.5651 27.5817C45.5415 27.8318 46.642 28.4882 45.6449 28.7931L45.6107 28.7936C45.3983 28.7951 44.9964 28.7717 44.8435 28.6218C44.944 28.4417 45.3853 28.4212 45.6221 28.2947C45.5236 28.0519 44.6606 27.8276 45.3654 27.1822Z" fill="var(--fill-0, #101010)"/>
<path id="Vector_22" d="M51.8629 27.5766C52.411 27.5784 52.0663 27.8731 52.2086 28.1514C52.4422 28.0218 52.3692 27.4357 52.8525 27.5972C52.908 27.8365 52.5992 28.3475 52.4784 28.58C52.3706 28.7999 52.2113 29.1602 51.9327 29.1822C51.8106 29.1503 51.7996 29.1299 51.7216 29.0287C51.7353 28.8597 51.9442 28.7536 51.9497 28.665C51.9768 28.2134 51.6569 28.0325 51.8629 27.5766Z" fill="var(--fill-0, #101010)"/>
<path id="Vector_23" d="M42.7978 27.5068L42.8724 27.5021C43.1966 27.6955 43.1253 28.7509 42.7788 28.8226C42.5005 28.685 42.8227 28.2823 42.7037 28.0244L42.608 28.014C42.5328 28.2387 42.4248 28.7355 42.1558 28.7504C41.9954 28.5171 42.1494 27.9432 42.2032 27.6657L42.7978 27.5068Z" fill="var(--fill-0, #101010)"/>
<path id="Vector_24" d="M53.4377 27.2245C53.7044 27.2097 54.3649 27.1604 54.5613 27.3337L54.5452 27.4226C54.4245 27.5543 54.235 27.6052 54.0642 27.6675C54.0573 27.8747 54.0197 28.1426 53.9963 28.3544C53.988 28.5419 53.9894 28.8282 53.7709 28.8649L53.6612 28.7847C53.5194 28.5047 53.636 28.0852 53.6897 27.7693C53.6085 27.5871 53.5598 27.6884 53.3643 27.5111C53.3464 27.3383 53.3468 27.3951 53.4377 27.2245Z" fill="var(--fill-0, #101010)"/>
<path id="Vector_25" d="M48.4242 27.5767C48.5381 27.5666 48.5697 27.5732 48.6849 27.5882C48.9484 27.8645 48.6638 28.1926 48.7946 28.4208C49.1164 28.3252 48.9346 27.5733 49.2412 27.5355C49.4143 27.6746 49.3794 27.7964 49.3766 28.009C49.3326 28.2229 49.2729 28.6724 49.1256 28.7983C48.6914 28.6233 48.2599 29.1562 48.3916 28.0512C48.4118 27.8836 48.3838 27.7448 48.4242 27.5767Z" fill="var(--fill-0, #101010)"/>
<path id="Vector_26" d="M47.9469 27.4953C48.1181 27.5334 48.1993 27.5498 48.2962 27.6692C48.1534 27.9578 47.6334 28.0016 47.7022 28.3772C47.834 28.4762 47.9607 28.4123 48.1791 28.4634C48.2819 28.568 48.2631 28.5191 48.2654 28.6443C47.0895 29.2543 46.9738 27.7319 47.9469 27.4953Z" fill="var(--fill-0, #101010)"/>
<path id="Vector_27" d="M51.2846 27.3437C51.42 27.379 51.4572 27.4047 51.5738 27.4724C51.7496 27.7477 51.5609 27.8084 51.4526 28.0855C51.3149 28.4369 51.4618 28.4208 51.678 28.5762L51.6977 28.7277C50.9312 29.0363 50.9193 28.1695 51.0143 27.6712C51.0482 27.4927 51.1442 27.441 51.2846 27.3437Z" fill="var(--fill-0, #101010)"/>
<path id="Vector_28" d="M35.0385 27.1446C35.1634 27.1614 35.1857 27.1739 35.2999 27.2288C35.4504 27.5068 35.1861 28.482 35.1128 28.843C35.051 28.8504 34.9685 28.8343 34.9047 28.8256C34.6206 28.5621 34.864 27.4496 35.0385 27.1446Z" fill="var(--fill-0, #101010)"/>
<path id="Vector_29" d="M49.7039 27.5999C50.0472 27.5745 50.48 27.4752 50.7393 27.6689L50.4543 27.8098C50.1229 27.6626 49.909 28.6569 49.663 28.8368C49.6259 28.829 49.5749 28.8285 49.5529 28.8007C49.4005 28.6079 49.5565 28.4785 49.5937 28.3061C49.6419 28.081 49.6718 27.8305 49.7039 27.5999Z" fill="var(--fill-0, #101010)"/>
<path id="Vector_30" d="M59.4421 16.9134C59.8332 16.8357 60.1986 16.8233 60.4918 17.119C60.5488 17.0056 60.5671 16.9398 60.6745 16.875L60.742 16.9078C60.7939 17.0531 60.7723 17.4885 60.7704 17.6664C60.5065 17.9634 60.1302 17.6267 60.099 17.22L60.0957 17.1754C59.9842 17.0889 59.9048 17.149 59.7038 17.1477C59.5555 17.065 59.5413 17.0454 59.4421 16.9134Z" fill="var(--fill-0, #101010)"/>
<path id="Vector_31" d="M39.0452 27.5574L39.1559 27.5691L39.2055 27.6547C39.1964 27.7167 38.6561 28.7449 38.5847 28.8519C38.5131 28.8536 38.5223 28.848 38.4517 28.8192C38.3461 28.6464 38.442 27.8378 38.5378 27.6486C38.6692 27.5625 38.8818 27.5678 39.0452 27.5574Z" fill="var(--fill-0, #101010)"/>
<path id="Vector_32" d="M61.5796 27.5534C61.7077 27.5447 61.7472 27.53 61.855 27.5984C61.8633 27.8385 61.5943 27.8976 61.4998 28.1392C61.3983 28.3986 61.3933 28.5418 61.2698 28.8076C60.7856 28.8869 61.055 27.9029 61.145 27.6677C61.2506 27.5694 61.4305 27.5703 61.5796 27.5534Z" fill="var(--fill-0, #101010)"/>
<path id="Vector_33" d="M50.4543 27.8098L50.7393 27.6689C50.7912 27.9685 50.8825 28.6457 50.4984 28.7483C50.2625 28.5413 50.3763 28.0894 50.4543 27.8098Z" fill="var(--fill-0, #101010)"/>
<path id="Vector_34" d="M50.4915 27.078C50.6393 27.0717 50.7986 27.0431 50.9096 27.1329C50.9321 27.2982 50.9041 27.2847 50.8224 27.463C50.7729 27.484 50.7256 27.4941 50.6737 27.5081L50.5704 27.4364C50.4906 27.2831 50.4952 27.2479 50.4915 27.078Z" fill="var(--fill-0, #101010)"/>
<path id="Vector_35" d="M40.2039 27.7089C40.2551 27.6864 40.3116 27.6404 40.359 27.6064C40.4214 27.9854 40.5174 28.2253 40.4613 28.6029C40.4027 28.3714 40.4495 28.4263 40.2907 28.2744C40.2863 28.0825 40.2421 27.8971 40.2039 27.7089Z" fill="var(--fill-0, #101010)"/>
<path id="Vector_36" d="M30.6502 14.2141C30.9381 14.3477 31.2557 14.5042 31.4971 14.7125C31.1834 14.6503 30.8098 14.4038 30.5147 14.2833L30.6502 14.2141Z" fill="var(--fill-0, #101010)"/>
<path id="Vector_37" d="M36.3851 28.6369C36.3931 28.4701 36.3834 28.286 36.4745 28.1513L36.543 28.1492C36.6166 28.3006 36.5463 28.5036 36.5007 28.6677L36.3851 28.6369Z" fill="var(--fill-0, #101010)"/>
</g>
</svg>
