<svg preserveAspectRatio="none" width="100%" height="100%" overflow="visible" style="display: block;" viewBox="0 0 303 58.2853" fill="none" xmlns="http://www.w3.org/2000/svg">
<g id="Group 32">
<path id="Vector" d="M29.1427 0C13.0743 0 0 13.0743 0 29.1427C0 45.211 13.0743 58.2853 29.1427 58.2853C45.211 58.2853 58.2854 45.211 58.2854 29.1427C58.2854 13.0743 45.2127 0 29.1427 0ZM29.1427 53.2719C15.8377 53.2719 5.01509 42.4477 5.01509 29.1443C5.01509 15.841 15.8393 5.01509 29.1427 5.01509C41.6002 5.01509 51.8828 14.5053 53.1416 26.6351H38.7265C37.8104 22.1817 33.8669 18.835 29.1427 18.835C23.7381 18.835 19.3582 23.2165 19.3582 28.6194C19.3582 33.1564 22.4459 36.9712 26.6351 38.0779V45.8713H31.6502V38.0779C34.8616 37.2286 37.4243 34.788 38.4457 31.6502H53.1399C51.8811 43.78 41.6002 53.2702 29.141 53.2702L29.1427 53.2719Z" fill="var(--fill-0, #20A64C)"/>
<g id="Group 1597880641">
<path id="Vector_2" d="M215.247 45.8783V14.7769L241.507 14.6897C244.967 14.6897 247.526 15.4175 249.184 16.8709C250.87 18.296 251.714 20.4467 251.714 23.3274C251.714 26.2081 250.755 28.3152 248.835 29.6532C250.114 30.3505 251.06 31.2809 251.67 32.4445C252.28 33.5776 252.585 35.0463 252.585 36.8505C252.585 39.7879 251.742 42.0257 250.055 43.5685C248.397 45.0808 245.839 45.8369 242.379 45.8369L215.247 45.8805V45.8783ZM240.677 20.2724H222.227V27.2519H240.677C243.322 27.2519 244.647 26.0599 244.647 23.6761C244.647 21.2922 243.324 20.2746 240.677 20.2746V20.2724ZM241.551 32.8346H222.227V40.2498H241.551C244.196 40.2498 245.521 38.9991 245.521 36.4975C245.521 33.996 244.198 32.8346 241.551 32.8346Z" fill="var(--fill-0, #20A64C)"/>
<path id="Vector_3" d="M169.749 45.8783V14.6897H195.876C199.103 14.6897 201.605 15.5047 203.378 17.1324C205.18 18.7602 206.083 21.2334 206.083 24.5477C206.083 27.3674 205.429 29.5791 204.119 31.1785C202.81 32.7779 200.951 33.7803 198.537 34.1877L205.734 45.8783H197.796L191.121 34.4056H176.727V45.8783H169.747H169.749ZM195.048 20.3596H176.729V28.69L195.048 28.7336C196.327 28.7336 197.301 28.4133 197.97 27.7748C198.667 27.1342 199.016 26.0599 199.016 24.5477C199.016 23.0354 198.667 21.9307 197.97 21.3205C197.301 20.6799 196.327 20.3617 195.048 20.3617V20.3596Z" fill="var(--fill-0, #20A64C)"/>
<path id="Vector_4" d="M123.464 45.8783L137.508 14.6897H148.281L162.327 45.8761H154.738L151.772 39.2889H134.02L131.054 45.8761H123.464V45.8783ZM136.549 33.6212H149.242L143.18 20.1438H142.614L136.549 33.6212Z" fill="var(--fill-0, #20A64C)"/>
<path id="Vector_5" d="M96.9104 46.0962C91.5891 46.0962 87.4315 44.7736 84.4354 42.126C81.4697 39.4502 79.9858 35.4952 79.9858 30.2612C79.9858 25.0271 81.498 21.131 84.5225 18.4856C87.5753 15.8098 91.9944 14.4719 97.782 14.4719H114.358V20.1417H98.2635C94.4546 20.1417 91.6327 20.9414 89.8023 22.5408C88.0003 24.1403 87.0981 26.7137 87.0981 30.2612C87.0981 33.8086 87.8978 36.1359 89.4973 37.7636C91.0967 39.363 93.437 40.2346 96.5203 40.3806L109.082 40.4242V28.2543H116.062V46.0941H96.9125L96.9104 46.0962Z" fill="var(--fill-0, #20A64C)"/>
<path id="Vector_6" d="M298.422 18.4856C295.369 15.8097 290.963 14.4718 285.206 14.4718H277.355C271.596 14.4718 267.19 15.8097 264.137 18.4856C261.084 21.1309 259.556 25.0576 259.556 30.2633C259.556 35.469 261.084 39.4523 264.137 42.1282C267.19 44.7735 271.493 46.0984 277.048 46.0984H285.422C291.035 46.0984 295.367 44.7757 298.42 42.1282C301.475 39.4523 303 35.4973 303 30.2633C303 25.0292 301.475 21.1331 298.42 18.4856H298.422ZM292.27 38.6809C290.497 39.8445 287.982 40.4263 284.724 40.4263H284.088C284.088 40.4263 284.084 40.4263 284.082 40.4263H278.418C278.418 40.4263 278.414 40.4263 278.412 40.4263H277.965C274.651 40.4263 272.09 39.8445 270.288 38.6809C268.538 37.5522 267.423 35.7654 266.932 33.3248C266.708 32.3966 266.593 31.379 266.593 30.2698C266.593 29.1607 266.695 28.2477 266.9 27.3586C267.373 24.8636 268.501 23.0398 270.288 21.8871C272.09 20.7235 274.607 20.1417 277.834 20.1417H284.727C287.954 20.1417 290.47 20.7235 292.273 21.8871C294.057 23.0398 295.186 24.8614 295.661 27.3543C295.866 28.2433 295.97 29.2152 295.97 30.2698C295.97 31.379 295.855 32.3966 295.63 33.327C295.14 35.7675 294.022 37.5522 292.275 38.6809H292.27Z" fill="var(--fill-0, #20A64C)"/>
</g>
</g>
</svg>
